<svg xmlns="http://www.w3.org/2000/svg" viewBox="0 0 215 215"><defs><style>.cls-1{fill:#1d2327;}.cls-2{fill:#09f;}</style></defs><title>Asset 218</title><g id="Layer_2" data-name="Layer 2"><g id="logo"><g id="NS"><g id="website_icon_green" data-name="website icon green"><rect class="cls-1" width="215" height="215" rx="10" ry="10"/><path class="cls-2" d="M98.31955,95.16818h5.93261v44.166q0,11.2068-11.20605,11.20606H79.86154q-11.20752,0-11.20605-11.20606v-16.48q0-11.206,11.20605-11.20654H94.36447v5.93311H79.86154q-5.27344,0-5.27344,5.27343v16.48q0,5.27418,5.27344,5.27344H93.04611q5.272,0,5.27344-5.27344Z"/><path class="cls-2" d="M143.14474,144.60763v5.93262H122.05q-11.20752,0-11.20606-11.20606v-16.48q0-11.206,11.20606-11.20654h13.18457q11.20458,0,11.20605,11.20654v.13184q0,11.07422-11.20605,11.07422H120.73166v-5.93262h14.50293q5.272,0,5.27343-5.1416v-.13184q0-5.27343-5.27343-5.27343H122.05q-5.27344,0-5.27344,5.27343v16.48q0,5.27418,5.27344,5.27344Z"/><path class="cls-2" d="M104.25216,104.30587H98.31955v-27.686q0-5.27344-5.27344-5.27344H74.5881v32.95947H68.65549V65.4133H93.04611q11.20459,0,11.20605,11.20654Z"/><path class="cls-2" d="M110.844,76.61984q0-11.206,11.20606-11.20654h13.18457q11.20458,0,11.20605,11.20654V93.23166q0,11.07421-11.20605,11.07421H122.05q-11.20752,0-11.20606-11.20605Zm24.39063,21.75342q5.272,0,5.27343-5.1416V76.61984q0-5.27344-5.27343-5.27344H122.05q-5.27344,0-5.27344,5.27344v16.48q0,5.27417,5.27344,5.27344Z"/></g></g></g></g></svg>