<svg xmlns="http://www.w3.org/2000/svg" viewBox="0 0 225.26 248.55"><defs><style>.cls-1{fill:#1985ce;}.cls-2{fill:#1dc5ff;}.cls-3{fill:#35b0ed;}</style></defs><g id="Layer_2" data-name="Layer 2"><g id="Layer_19" data-name="Layer 19"><path class="cls-1" d="M129.17,40.18a36.28,36.28,0,0,1-29.93,0c-8.73-4.45-13.09-6.49-21.82-10.6-8.25-3.88-8.25-10.14,0-14.24C86.15,11,90.51,8.73,99.25,3.68a32.25,32.25,0,0,1,29.92,0C137.9,8.73,142.26,11,151,15.34c8.24,4.1,8.24,10.36,0,14.24C142.26,33.68,137.9,35.73,129.17,40.18Z"/><path class="cls-2" d="M211.46,62.47,189.62,75.8a31.47,31.47,0,0,1-29.91,0L137.88,62.47c-.53-.32-8.64-6.47-23.67-6.47s-23.15,6.15-23.67,6.47L68.71,75.8a29.11,29.11,0,0,1-15,3.78,29.08,29.08,0,0,1-15-3.78L17,62.47c-4-2.45-6.19-5.69-6.19-9.14S13,46.91,17,44.76c8.74-4.72,13.11-6.86,21.84-11a35.56,35.56,0,0,1,15-2.94,35.62,35.62,0,0,1,15,2.94c8.73,4.19,13.09,6.33,21.82,11,.53.29,8.64,6,23.68,6s23.14-5.68,23.67-6c8.73-4.71,13.09-6.85,21.83-11a39.53,39.53,0,0,1,29.92,0c8.73,4.19,13.1,6.33,21.83,11,4,2.15,6.19,5.12,6.19,8.57S215.45,60,211.46,62.47Z"/><path class="cls-3" d="M99.25,67.78a29.2,29.2,0,0,1,15-3.78,29.11,29.11,0,0,1,15,3.79L151,81.12c8.25,5,8.25,13.23,0,18.27l-21.83,13.34a29.11,29.11,0,0,1-15,3.78,29.08,29.08,0,0,1-15-3.78L77.42,99.39c-8.25-5-8.25-13.23,0-18.27Z"/><path class="cls-3" d="M221.17,67c-2.69-1.52-6.3-1-10.16,1.38L189.89,81.58c-8,5-14.56,16.67-14.68,26.06l-.31,24.88c-.06,4.56,1.39,7.9,4.08,9.42s6.31,1,10.17-1.39l21.12-13.16c8-5,14.56-16.67,14.68-26.07l.31-24.88C225.32,71.89,223.87,68.54,221.17,67Z"/><path class="cls-1" d="M168.27,161c7.16,4,6.08,15,6.07,15.59L174,201.43c-.06,4.55,1.4,7.89,4.09,9.41s6.3,1,10.17-1.39l21.11-13.16a34.73,34.73,0,0,0,14.68-26.06l.32-24.89c0-4.55-1.4-7.89-4.09-9.41s-6.3-1-10.17,1.39L189,150.48c-.51.32-9.31,6.91-16.48,2.88s-6.09-15-6.08-15.58l.31-24.88c.06-4.56-1.39-7.9-4.08-9.42s-6.3-1-10.17,1.39L131.41,118a34.73,34.73,0,0,0-14.68,26.07L116.42,169c-.06,4.55,1.4,7.9,4.09,9.41s6.3,1,10.16-1.38l21.12-13.17C152.3,163.53,161.1,156.93,168.27,161Z"/><path class="cls-2" d="M161.83,172.38c-2.69-1.51-6.3-1-10.16,1.39l-21.12,13.17c-8,5-14.57,16.66-14.68,26.06l-.32,24.88c0,4.56,1.4,7.9,4.09,9.42s6.3,1,10.17-1.39l21.11-13.16c8-5,14.57-16.67,14.69-26.07l.31-24.88C166,177.25,164.52,173.9,161.83,172.38Z"/><path class="cls-2" d="M74.85,163.93a33.39,33.39,0,0,1-14.73-26l.1-25.14c.05-9.5,6.72-13.27,14.88-8.42l21.61,12.86a33.43,33.43,0,0,1,14.73,26l-.1,25.14c0,9.5-6.72,13.28-14.88,8.42Z"/><path class="cls-3" d="M96.18,246.42,74.57,233.56a33.36,33.36,0,0,1-14.73-26l.1-25.14c0-.6,1-10.49-6.39-23.58s-16.4-17.31-16.92-17.62L15,128.32A30.62,30.62,0,0,1,4.57,117.05,30.72,30.72,0,0,1,.29,102.28l.1-25.14c0-4.6,1.57-8,4.38-9.6s6.54-1.17,10.49,1.18L36.87,81.58A30.74,30.74,0,0,1,47.32,92.86a30.65,30.65,0,0,1,4.28,14.76l-.1,25.14c0,.61-1,10.49,6.39,23.58S74.29,173.65,74.81,174l21.61,12.86a33.32,33.32,0,0,1,14.73,26l-.1,25.14c0,4.6-1.58,8-4.39,9.61S100.13,248.77,96.18,246.42Z"/><path class="cls-1" d="M36.58,151.21A30.66,30.66,0,0,1,47,162.49a30.7,30.7,0,0,1,4.29,14.76l-.11,25.14c0,9.5-6.71,13.28-14.87,8.42L14.73,198A30.69,30.69,0,0,1,4.29,186.68,30.6,30.6,0,0,1,0,171.91l.11-25.14c0-9.5,6.71-13.27,14.87-8.41Z"/></g></g></svg>