<svg xmlns="http://www.w3.org/2000/svg" viewBox="0 0 489.64 40.14"><defs><style>.cls-1{fill:none;stroke:#0af;stroke-miterlimit:10;}.cls-2{fill:#0072be;}.cls-3{font-size:35.37px;fill:#0af;font-family:VarelaRound, Varela Round;letter-spacing:0em;}.cls-4{letter-spacing:-0.07em;}.cls-5{letter-spacing:-0.02em;}.cls-6{letter-spacing:-0.07em;}</style></defs><g id="Layer_2" data-name="Layer 2"><g id="logo"><g id="NS"><g id="nodestream_icon" data-name="nodestream icon"><g id="_1" data-name="1"><path class="cls-1" d="M69.43,18.1c-2.18-1.24-4.57-2.71-7.33-4.4s-6.14-3.77-9.91-6c-24.77-14.51-47.73,7-48,7.19l.33.41C4.79,15.11,27.42-6.1,51.9,8.23c3.77,2.2,7,4.21,9.91,6s5.35,3.28,7.59,4.56A5,5,0,0,0,69.43,18.1Z"/><path class="cls-1" d="M56.75,21.76C54.21,24,51.82,26.06,49,27.29c-9.71,4.16-30-4.24-30.24-4.33l-.08.18c.21.09,20.6,8.52,30.37,4.33,2.88-1.24,5.29-3.34,7.84-5.57,3.52-3.08,7.31-6.38,12.91-7.7L69.7,14C64.09,15.35,60.28,18.67,56.75,21.76Z"/><path class="cls-2" d="M18.3,24.31a2.59,2.59,0,0,1-3.66-3.65A2.59,2.59,0,0,1,18.3,24.31Zm-.5-3.16a1.89,1.89,0,0,0-2.67,2.67A1.89,1.89,0,0,0,17.8,21.15Z"/><path class="cls-2" d="M4.33,18.65A2.59,2.59,0,0,1,.67,15,2.59,2.59,0,0,1,4.33,18.65Zm-.49-3.16a1.89,1.89,0,0,0-2.68,2.66A1.89,1.89,0,0,0,3.84,15.49Z"/><text class="cls-3" transform="translate(65.76 30.03)">F<tspan class="cls-4" x="21.4" y="0">T</tspan><tspan x="40.64" y="0">A </tspan><tspan class="cls-5" x="74.13" y="0">D</tspan><tspan class="cls-6" x="99.95" y="0">AT</tspan><tspan x="141.47" y="0">A ENGINEERING</tspan></text></g></g></g></g></g></svg>