<svg xmlns="http://www.w3.org/2000/svg" width="124.75334" height="40.1416" viewBox="0 0 124.75334 40.1416"><defs><style>.cls-1{fill:none;stroke:#0af;stroke-miterlimit:10;}.cls-2{fill:#0072be;}.cls-3{font-size:35.36758px;fill:#0af;font-family:VarelaRound, Varela Round;letter-spacing:-0.00501em;}.cls-4{letter-spacing:-0.02898em;}.cls-5{letter-spacing:-0.005em;}</style></defs><g id="Layer_2" data-name="Layer 2"><g id="logo"><g id="NS"><g id="nodestream_icon" data-name="nodestream icon"><g id="_1" data-name="1"><path class="cls-1" d="M69.42778,18.09976c-2.17322-1.2406-4.57215-2.7107-7.32447-4.40064C59.22789,11.93228,55.962,9.9252,52.19175,7.71841,27.41551-6.7883,4.46208,14.68887,4.23216,14.91031l.33032.41174c.22888-.2157,22.861-21.42395,47.34107-7.09656,3.76739,2.20923,7.032,4.21094,9.90777,5.9773,2.86151,1.75683,5.34448,3.2771,7.59088,4.55249A5.24766,5.24766,0,0,0,69.42778,18.09976Z"/><path class="cls-1" d="M56.74791,21.75576c-2.53864,2.21631-4.93018,4.30616-7.79065,5.53223-9.70459,4.16614-30.02912-4.23962-30.235-4.324l-.07806.17749c.20581.08471,20.59381,8.51562,30.36425,4.32666,2.8844-1.24073,5.29108-3.34278,7.83722-5.57068,3.52-3.07263,7.31275-6.37854,12.91517-7.69495-.021-.06006-.03937-.12012-.05988-.18017C64.086,15.35281,60.27958,18.67093,56.74791,21.75576Z"/><path class="cls-2" d="M18.3001,24.31247a2.58723,2.58723,0,0,1-3.6585-3.65522A2.58723,2.58723,0,0,1,18.3001,24.31247Zm-.49527-3.16012a1.88865,1.88865,0,0,0-2.67051,2.66833A1.88865,1.88865,0,0,0,17.80483,21.15235Z"/><path class="cls-2" d="M4.33074,18.64558a2.58723,2.58723,0,0,1-3.6585-3.65522A2.58736,2.58736,0,0,1,4.33074,18.64558Zm-.49527-3.16012A1.88865,1.88865,0,0,0,1.165,18.15379,1.88867,1.88867,0,0,0,3.83547,15.48546Z"/><text class="cls-3" transform="translate(65.76072 30.02643)">I<tspan class="cls-4" x="9.90234" y="0">O</tspan><tspan class="cls-5" x="37.56006" y="0">T</tspan></text></g></g></g></g></g></svg>