<svg xmlns="http://www.w3.org/2000/svg" viewBox="0 0 312.2 28.06"><defs><style>.cls-1{fill:#2fc98e;stroke:#0af;stroke-miterlimit:10;stroke-width:0.75px;}.cls-2{fill:#0af;}</style></defs><title>Asset 189</title><g id="Layer_2" data-name="Layer 2"><g id="logo"><g id="NS"><g id="nodestream_icon" data-name="nodestream icon"><g id="_1" data-name="1"><path class="cls-1" d="M69.43,18.1c-2.18-1.24-4.57-2.71-7.33-4.4s-6.14-3.77-9.91-6c-24.77-14.51-47.73,7-48,7.19l.33.41C4.79,15.11,27.42-6.1,51.9,8.23c3.77,2.2,7,4.21,9.91,6s5.35,3.28,7.59,4.56A5,5,0,0,0,69.43,18.1Z" transform="translate(0 -2.32)"/><path class="cls-1" d="M56.75,21.76C54.21,24,51.82,26.06,49,27.29c-9.71,4.16-30-4.24-30.24-4.33l-.08.18c.21.09,20.6,8.52,30.37,4.33,2.88-1.24,5.29-3.34,7.84-5.57,3.52-3.08,7.31-6.38,12.91-7.7L69.7,14C64.09,15.35,60.28,18.67,56.75,21.76Z" transform="translate(0 -2.32)"/><path class="cls-2" d="M18.3,24.31a2.59,2.59,0,0,1-3.66-3.65A2.59,2.59,0,0,1,18.3,24.31Zm-.5-3.16a1.89,1.89,0,0,0-2.67,2.67A1.89,1.89,0,0,0,17.8,21.15Z" transform="translate(0 -2.32)"/><path class="cls-2" d="M4.33,18.65A2.59,2.59,0,0,1,.67,15,2.59,2.59,0,0,1,4.33,18.65Zm-.49-3.16a1.89,1.89,0,0,0-2.68,2.66A1.89,1.89,0,0,0,3.84,15.49Z" transform="translate(0 -2.32)"/><path class="cls-2" d="M90.73,6.79V27.9a2.32,2.32,0,0,1-2.33,2.3H88a2.34,2.34,0,0,1-1.87-.95L72.41,9.48V28.61a1.61,1.61,0,0,1-1.63,1.59,1.58,1.58,0,0,1-1.59-1.59V7.5a2.33,2.33,0,0,1,2.3-2.34H72a2.52,2.52,0,0,1,2,1.06L87.51,25.89V6.79A1.62,1.62,0,0,1,89.1,5.16,1.64,1.64,0,0,1,90.73,6.79Z" transform="translate(0 -2.32)"/><path class="cls-2" d="M119.52,17.68c-.14,7.4-4.88,12.7-12.41,12.7s-12.28-5.3-12.42-12.7C94.83,10.29,99.54,5,107.11,5S119.38,10.29,119.52,17.68Zm-3.22,0c0-5.44-3.36-9.69-9.19-9.69s-9.2,4.25-9.2,9.69,3.32,9.69,9.2,9.69S116.3,23.13,116.3,17.68Z" transform="translate(0 -2.32)"/><path class="cls-2" d="M144.63,17.68c0,5.95-4,12.35-12.48,12.35H125a1.59,1.59,0,0,1-1.6-1.6V7A1.62,1.62,0,0,1,125,5.34h7.11C140.6,5.34,144.63,11.71,144.63,17.68Zm-3.18,0c0-5.51-3.79-9.34-9.69-9.34h-5.1V27h5.1C137.66,27,141.45,23.2,141.45,17.68Z" transform="translate(0 -2.32)"/><path class="cls-2" d="M165.85,28.54A1.48,1.48,0,0,1,164.33,30H150.15a1.58,1.58,0,0,1-1.59-1.6V7a1.61,1.61,0,0,1,1.59-1.63h14.18a1.51,1.51,0,0,1,1.52,1.52,1.47,1.47,0,0,1-1.52,1.48H151.77v7.82h11.29a1.51,1.51,0,0,1,1.52,1.52,1.48,1.48,0,0,1-1.52,1.49H151.77V27h12.56A1.51,1.51,0,0,1,165.85,28.54Z" transform="translate(0 -2.32)"/><path class="cls-2" d="M194.32,23.48c0,4-3.57,6.9-9,6.9a21,21,0,0,1-8.42-1.7,1.64,1.64,0,0,1-1-1.45,1.44,1.44,0,0,1,1.45-1.48,1.58,1.58,0,0,1,.67.14,16.94,16.94,0,0,0,7,1.45c3.5,0,6.19-1,6.19-4.07,0-5.23-15-2.33-15-11,0-3.93,3.18-7.26,9.16-7.26a20.26,20.26,0,0,1,7,1.17,1.41,1.41,0,0,1,1,1.42,1.45,1.45,0,0,1-1.42,1.48,1.59,1.59,0,0,1-.56-.14,17.21,17.21,0,0,0-5.7-1c-3.57,0-6.29,1.37-6.29,4C179.33,18.11,194.32,14.15,194.32,23.48Z" transform="translate(0 -2.32)"/><path class="cls-2" d="M214.23,6.86a1.47,1.47,0,0,1-1.52,1.48h-7.18V28.61a1.61,1.61,0,0,1-1.62,1.59,1.58,1.58,0,0,1-1.6-1.59V8.34H195.1a1.45,1.45,0,0,1-1.49-1.48,1.48,1.48,0,0,1,1.49-1.52h17.61A1.51,1.51,0,0,1,214.23,6.86Z" transform="translate(0 -2.32)"/><path class="cls-2" d="M236,28.61a1.58,1.58,0,0,1-1.6,1.59,1.5,1.5,0,0,1-1.62-1.59V27.55c0-2.33-.15-7.14-5.49-7.14H220v8.2a1.61,1.61,0,0,1-1.62,1.59,1.58,1.58,0,0,1-1.6-1.59V7a1.62,1.62,0,0,1,1.6-1.63h8.24c6.72,0,9.62,3.11,9.62,7.18a6.6,6.6,0,0,1-4.64,6.4C235.49,20,236,25,236,27Zm-3-15.84c0-2.62-1.56-4.39-6.79-4.39H220v9h6.41C230.33,17.36,233,15.77,233,12.77Z" transform="translate(0 -2.32)"/><path class="cls-2" d="M257.81,28.54A1.49,1.49,0,0,1,256.29,30H242.1a1.59,1.59,0,0,1-1.59-1.6V7a1.62,1.62,0,0,1,1.59-1.63h14.19a1.51,1.51,0,0,1,1.52,1.52,1.48,1.48,0,0,1-1.52,1.48H243.73v7.82H255a1.51,1.51,0,0,1,1.52,1.52A1.48,1.48,0,0,1,255,19.17H243.73V27h12.56A1.51,1.51,0,0,1,257.81,28.54Z" transform="translate(0 -2.32)"/><path class="cls-2" d="M282,28.61a1.52,1.52,0,0,1-1.59,1.59,1.59,1.59,0,0,1-1.52-1l-2.3-5.51h-12l-2.3,5.51a1.6,1.6,0,0,1-1.52,1,1.52,1.52,0,0,1-1.59-1.59,1.86,1.86,0,0,1,.18-.71l9-21.29a2.22,2.22,0,0,1,2-1.45h.35a2.23,2.23,0,0,1,2.05,1.45l9,21.29A1.86,1.86,0,0,1,282,28.61Zm-6.65-7.85-4.78-11.5-4.77,11.5Z" transform="translate(0 -2.32)"/><path class="cls-2" d="M312.2,7.5V28.61a1.58,1.58,0,0,1-1.59,1.59A1.62,1.62,0,0,1,309,28.61V8.52l-8.17,20.2a2.47,2.47,0,0,1-4.52,0l-8.17-20.2V28.61a1.62,1.62,0,0,1-1.63,1.59,1.58,1.58,0,0,1-1.59-1.59V7.5a2.32,2.32,0,0,1,2.3-2.34h1.16a2.39,2.39,0,0,1,2.16,1.49l8,20,8-20a2.39,2.39,0,0,1,2.16-1.49h1.16A2.32,2.32,0,0,1,312.2,7.5Z" transform="translate(0 -2.32)"/></g></g></g></g></g></svg>