<svg xmlns="http://www.w3.org/2000/svg" viewBox="0 0 201.51399 201.51401"><defs><style>.cls-1{fill:#deedf7;}.cls-2{fill:#0093d0;}.cls-3{fill:#66bae2;}.cls-4{fill:#fff;}</style></defs><title>Asset 206</title><g id="Layer_2" data-name="Layer 2"><g id="Layer_43" data-name="Layer 43"><circle class="cls-1" cx="100.757" cy="100.757" r="100.757"/><path class="cls-2" d="M100.659,85.246A50.07845,50.07845,0,0,0,88.37,106.444a50.052,50.052,0,0,0,24.498-.428,50.45738,50.45738,0,0,0-12.209-20.77Z"/><path class="cls-3" d="M88.37,106.444a50.07837,50.07837,0,0,1,12.289-21.198A50.24409,50.24409,0,0,0,51.668,71.892,50.20643,50.20643,0,0,0,88.37,106.444Z"/><path class="cls-3" d="M112.868,106.017a50.05174,50.05174,0,0,1-24.498.428,50.21343,50.21343,0,0,0,12.344,48.875A50.2405,50.2405,0,0,0,112.868,106.017Z"/><path class="cls-3" d="M100.659,85.246a50.46933,50.46933,0,0,1,12.209,20.771A50.21,50.21,0,0,0,147.965,71.41a50.223,50.223,0,0,0-47.306,13.836Z"/><path class="cls-3" d="M88.37,106.444A50.20887,50.20887,0,0,1,51.668,71.891a50.15406,50.15406,0,1,0,49.046,83.426A50.212,50.212,0,0,1,88.37,106.444Z"/><path class="cls-3" d="M100.659,85.246A50.223,50.223,0,0,1,147.965,71.41a50.15518,50.15518,0,1,0-96.296.481A50.24445,50.24445,0,0,1,100.659,85.246Z"/><path class="cls-3" d="M162.002,163.49a50.153,50.153,0,0,0-14.037-92.08,50.21,50.21,0,0,1-35.097,34.607,50.23937,50.23937,0,0,1-12.154,49.302A50.17192,50.17192,0,0,0,162.002,163.49Z"/><path class="cls-4" d="M67.774,120.81a10.23108,10.23108,0,0,0-.059-7.021l2.296-1.325-1.76-3.045-2.21809,1.341a11.3376,11.3376,0,0,0-6.00209-3.459v-2.98539h-4V107.331a11.26171,11.26171,0,0,0-5.91341,3.559l-2.22671-1.325-1.72485,3.048,2.33807,1.338a10.27444,10.27444,0,0,0,.0708,7.021l-2.29286,1.325,1.76007,3.046,2.10294-1.339a11.03087,11.03087,0,0,0,5.886,3.458v2.8536h4V127.43a11.56127,11.56127,0,0,0,6.02909-3.558l2.286,1.324,1.755-3.045Zm-9.627.088a3.5185,3.5185,0,1,1,3.518-3.518A3.523,3.523,0,0,1,58.147,120.898Z"/><path class="cls-4" d="M78.326,134.52l-.36-2.203-1.679.276a6.48659,6.48659,0,0,0-2.848-3.43l.596-1.574-2.088-.792-.624,1.61a6.16328,6.16328,0,0,0-4.412.768l-1.012-1.242-1.687,1.379,1.024,1.254a6.583,6.583,0,0,0-1.547,4.182l-1.662.271.357,2.203,1.679-.272a6.4985,6.4985,0,0,0,2.847,3.428l-.596,1.573,2.088.793.629-1.612a6.21972,6.21972,0,0,0,4.417-.771l1.064,1.304,1.688-1.377-1.077-1.319a6.55763,6.55763,0,0,0,1.542-4.178Zm-6.738,1.98a2.23371,2.23371,0,1,1,.317-3.142A2.23551,2.23551,0,0,1,71.588,136.5Z"/><path class="cls-4" d="M48.97,136.637l1.463-2.534-1.895-1.094a3.85471,3.85471,0,0,0,.03-.471,3.8971,3.8971,0,0,0-.06-.679l1.827-1.055-1.461-2.534-1.88159,1.093c-.295-.222-.96159-.4-.96159-.534v-2.5134h-3v2.5584c0,.15-.66591.351-.96391.594l-1.86-1.082-1.456,2.534,1.91552,1.104a4.1513,4.1513,0,0,0-.03275.515,3.90521,3.90521,0,0,0,.05213.635l-1.87244,1.082,1.46328,2.534,1.81105-1.105c.315.241.943.438.943.577v2.05362h3V136.185c1-.152.7511-.356,1.0451-.602Z"/><rect class="cls-4" x="117.74461" y="121.5975" width="50.80577" height="2.76904" transform="translate(-18.68529 25.89479) rotate(-9.70628)"/><circle class="cls-4" cx="156.696" cy="109.862" r="8.312"/><polygon class="cls-4" points="143.164 142.316 152.768 142.316 147.965 133.985 143.164 125.664 138.362 133.991 133.562 142.316 143.164 142.316"/><path class="cls-4" d="M80.778,50.142a29.81618,29.81618,0,0,0,4.694,8.354l1.146-1.374c3.508,5.979,8.68,12.505,14.603,12.654,10.984.281,9.863-12.735,9.863-12.735l9.015-.987L110.477,31.85s-.526-.478-1.414-1.18c.079.012.122.019.122.019a13.4257,13.4257,0,0,0,3.963-4.354c-3.915-.63-12.255-2.275-18.902-1.752-6.647.522-10.827,6.078-12.697,10.819A23.94269,23.94269,0,0,0,80.778,50.142Zm6.13-13.744c.31-3.492,5.494-5.884,11.122-5.384,5.626.5,10.103,3.753,9.792,7.244-.312,3.493-4.712,5.953-10.336,5.455-1.784-.159-4.519-.29318-4.475-.79518l.14,6.39781H89.806l-.271-5.19081C88.32,42.61682,86.73,38.408,86.908,36.398Z"/></g></g></svg>