<svg xmlns="http://www.w3.org/2000/svg" viewBox="0 0 369.34999 355.63018"><defs><style>.cls-1,.cls-23,.cls-4{fill:#fff;}.cls-2{fill:#449fd8;}.cls-12,.cls-13,.cls-14,.cls-15,.cls-16,.cls-17,.cls-18,.cls-3,.cls-6{fill:none;}.cls-3,.cls-4{stroke:#449fd8;}.cls-3,.cls-4,.cls-6{stroke-width:0.78px;}.cls-4{opacity:0.1;isolation:isolate;}.cls-5{fill:#49ba89;}.cls-6{stroke:#49ba89;}.cls-7{opacity:0.52;}.cls-8{fill:#63c1e3;}.cls-9{fill:#d64456;}.cls-10{fill:#f9a65a;}.cls-11{fill:#99b945;}.cls-12{stroke:#63c1e3;}.cls-12,.cls-13,.cls-14,.cls-15,.cls-16,.cls-17,.cls-18{stroke-width:0.75px;}.cls-13{stroke:#d74557;}.cls-14{stroke:#f9a65a;}.cls-15{stroke:#99b945;}.cls-16{stroke:#9bba44;}.cls-17{stroke:#64c2e5;}.cls-18{stroke:#d64456;}.cls-19{opacity:0.2;}.cls-20{fill:#0dadea;}.cls-21{fill:#00adef;}.cls-22{font-size:21.06085px;fill:#09f;font-family:Zekton;}.cls-23{font-size:36.21651px;font-family:Lato-Light, Lato;font-weight:300;letter-spacing:-0.03999em;}.cls-24{letter-spacing:-0.06698em;}.cls-25{letter-spacing:-0.04002em;}.cls-26{letter-spacing:-0.07448em;}.cls-27{fill:#62c3e4;}.cls-28{fill:#145884;}.cls-29{fill:#2fc98e;}</style></defs><title>Asset 263</title><g id="Layer_2" data-name="Layer 2"><g id="Layer_50" data-name="Layer 50"><g id="Page-1"><g id="Expanded"><g id="apps_and_infrastructure" data-name="apps and infrastructure"><g id="Layer_1-2" data-name="Layer 1-2"><path id="Shape" class="cls-1" d="M146.67,21.12017h-4l-1.07,3.4h-1.45l3.77-11.15h1.6l3.77,11.15h-1.51Zm-.36-1.12-.53-1.7q-.31-.93-.58-1.86t-.53-1.89h0q-.25,1-.53,1.9l-.58,1.86-.56,1.69h3.31Z"/><path id="Shape-2" class="cls-1" d="M152.12,25.22017v2.78h-1.39v-11.74h1.16l.12,1h.05a6.28984,6.28984,0,0,1,1.23-.82,3.07,3.07,0,0,1,1.4-.34,3.20012,3.20012,0,0,1,1.41.3,2.75978,2.75978,0,0,1,1,.85,4,4,0,0,1,.62,1.33,6.57991,6.57991,0,0,1,.21,1.74,5.66978,5.66978,0,0,1-.29,1.88,4.36015,4.36015,0,0,1-.78,1.4,3.32,3.32,0,0,1-1.14.88,3.22,3.22,0,0,1-1.36.3,2.79,2.79,0,0,1-1.15-.25,5.77035,5.77035,0,0,1-1.15-.7Zm0-2.53a3.71986,3.71986,0,0,0,1.09.67,2.7501,2.7501,0,0,0,.93.2,2,2,0,0,0,.94-.23,2.25021,2.25021,0,0,0,.75-.65,3.14992,3.14992,0,0,0,.49-1,4.90977,4.90977,0,0,0,.18-1.38,5.99886,5.99886,0,0,0-.12-1.24,2.77983,2.77983,0,0,0-.38-1,1.83,1.83,0,0,0-.68-.62,2.09993,2.09993,0,0,0-1-.22,2.23,2.23,0,0,0-1.06.29,6.20981,6.20981,0,0,0-1.15.83v4.35Z"/><path id="Shape-3" class="cls-1" d="M161.55,25.22017v2.78h-1.39v-11.74h1.16l.12,1h.05a6.28984,6.28984,0,0,1,1.23-.82,3.07,3.07,0,0,1,1.4-.34,3.20012,3.20012,0,0,1,1.41.3,2.75986,2.75986,0,0,1,1,.85,4,4,0,0,1,.62,1.33,6.57992,6.57992,0,0,1,.21,1.74,5.67,5.67,0,0,1-.29,1.88,4.36015,4.36015,0,0,1-.78,1.4,3.32014,3.32014,0,0,1-1.14.88,3.22,3.22,0,0,1-1.36.3,2.79008,2.79008,0,0,1-1.15-.25,5.77057,5.77057,0,0,1-1.15-.7Zm0-2.53a3.72,3.72,0,0,0,1.09.67,2.7501,2.7501,0,0,0,.93.2,2,2,0,0,0,.94-.23,2.25,2.25,0,0,0,.75-.65,3.15016,3.15016,0,0,0,.49-1,4.91014,4.91014,0,0,0,.18-1.38,5.99955,5.99955,0,0,0-.12-1.24,2.77983,2.77983,0,0,0-.38-1,1.83,1.83,0,0,0-.68-.62,2.1,2.1,0,0,0-1-.22,2.23,2.23,0,0,0-1.06.29,6.20981,6.20981,0,0,0-1.15.83v4.35Z"/><path id="Shape-4" class="cls-1" d="M169.59,12.42017H171v10.58a.73.73,0,0,0,.12.48.35.35,0,0,0,.27.14h.31l.19,1a1.21,1.21,0,0,1-.32.1,2.75,2.75,0,0,1-.48,0,1.3,1.3,0,0,1-1.14-.48,2.38,2.38,0,0,1-.34-1.39v-10.43h-.02Z"/><path id="Shape-5" class="cls-1" d="M174.67,14.56017a1,1,0,0,1-.69-.25.89.89,0,0,1-.04206-1.25795q.02033-.02172.04206-.042a1.09,1.09,0,0,1,1.38,0,.89.89,0,0,1,.042,1.25795q-.02033.02172-.042.042a1,1,0,0,1-.69.25Zm-.67,1.7h1.39v8.26H174v-8.26Z"/><path id="Shape-6" class="cls-1" d="M177.5,20.41017a4.93,4.93,0,0,1,.32-1.84,4.14991,4.14991,0,0,1,.87-1.37,3.61987,3.61987,0,0,1,1.27-.85,4.07,4.07,0,0,1,1.52-.29,3.07992,3.07992,0,0,1,1.4.3,4.50953,4.50953,0,0,1,1,.69l-.7.9a3.93944,3.93944,0,0,0-.77-.53,1.92989,1.92989,0,0,0-.89-.2,2.32,2.32,0,0,0-1.85.88,3.23,3.23,0,0,0-.54,1,4.08021,4.08021,0,0,0-.2,1.3,4.17019,4.17019,0,0,0,.19,1.29,3.14,3.14,0,0,0,.52,1,2.3,2.3,0,0,0,.81.65,2.47,2.47,0,0,0,2.12,0,3.86976,3.86976,0,0,0,.86-.59l.63.92a4.52993,4.52993,0,0,1-1.25.78,3.68021,3.68021,0,0,1-1.44.29,4.00013,4.00013,0,0,1-1.53-.29,3.43006,3.43006,0,0,1-1.23-.84,4.00009,4.00009,0,0,1-.82-1.36,5.26012,5.26012,0,0,1-.29-1.84h0Z"/><path id="Shape-7" class="cls-1" d="M185.28,22.38017a2.29,2.29,0,0,1,1.21-2.08,10.0699,10.0699,0,0,1,3.87-1,3.75074,3.75074,0,0,0-.08-.76,1.82977,1.82977,0,0,0-.27-.66,1.49,1.49,0,0,0-.52-.47,1.71008,1.71008,0,0,0-.83-.18,3.33993,3.33993,0,0,0-1.35.27,6.66944,6.66944,0,0,0-1.11.61l-.56-1a9.00084,9.00084,0,0,1,1.41-.72,4.70991,4.70991,0,0,1,1.84-.35,2.54,2.54,0,0,1,2.19.93,4.09,4.09,0,0,1,.68,2.47v5.08H190.6l-.12-1h0a6.8802,6.8802,0,0,1-1.28.84,3.17,3.17,0,0,1-1.45.35,2.52,2.52,0,0,1-1.75-.61,2.2,2.2,0,0,1-.73-1.72h.01Zm1.38-.1a1.18,1.18,0,0,0,.42,1,1.69,1.69,0,0,0,1,.31,2.41012,2.41012,0,0,0,1.13-.28,5.5102,5.5102,0,0,0,1.13-.83v-2.28a14.60973,14.60973,0,0,0-1.75.32,4.58992,4.58992,0,0,0-1.15.44,1.64012,1.64012,0,0,0-.62.59,1.44006,1.44006,0,0,0-.15.73h-.01Z"/><path id="Shape-8" class="cls-1" d="M194.67,17.40017h-1.22v-1l1.29-.08.17-2.32h1.17v2.31h2.23v1.14h-2.23v4.55a2.11,2.11,0,0,0,.28,1.18,1.11,1.11,0,0,0,1,.42,1.87005,1.87005,0,0,0,.48-.07,3.549,3.549,0,0,0,.46-.15l.27,1.05a7.39976,7.39976,0,0,1-.74.21,3.44048,3.44048,0,0,1-.79.09,2.7,2.7,0,0,1-1.11-.2,1.91983,1.91983,0,0,1-.73-.53,2.18983,2.18983,0,0,1-.4-.87,4.99963,4.99963,0,0,1-.12-1.12v-4.61h-.01Z"/><path id="Shape-9" class="cls-1" d="M200.85,14.56017a1,1,0,0,1-.69-.25.89.89,0,0,1-.042-1.25795q.02032-.02172.042-.042a1.09,1.09,0,0,1,1.38,0,.89.89,0,0,1,.04205,1.25795q-.02033.02172-.04205.042a1,1,0,0,1-.69.25Zm-.71,1.7h1.39v8.26h-1.39v-8.26Z"/><path id="Shape-10" class="cls-1" d="M203.67,20.41017a5.05975,5.05975,0,0,1,.31-1.84,4.18014,4.18014,0,0,1,.84-1.37,3.51,3.51,0,0,1,1.21-.85,3.8,3.8,0,0,1,2.91,0,3.52,3.52,0,0,1,1.22.85,4.20979,4.20979,0,0,1,.84,1.37,5.06,5.06,0,0,1,.31,1.84,5.00013,5.00013,0,0,1-.31,1.83,4.10989,4.10989,0,0,1-.84,1.36,3.57007,3.57007,0,0,1-1.22.84,3.8,3.8,0,0,1-2.91,0,3.55992,3.55992,0,0,1-1.21-.84,4.08005,4.08005,0,0,1-.84-1.36,4.99992,4.99992,0,0,1-.31-1.83Zm1.44,0a4.52939,4.52939,0,0,0,.17,1.29,3.0002,3.0002,0,0,0,.48,1,2.22,2.22,0,0,0,.76.65,2.16,2.16,0,0,0,1.94,0,2.23011,2.23011,0,0,0,.76-.65,3.0898,3.0898,0,0,0,.49-1,4.59941,4.59941,0,0,0,.17-1.29,4.69968,4.69968,0,0,0-.17-1.3,3.16965,3.16965,0,0,0-.49-1,2.14,2.14,0,0,0-3.46,0,3.13007,3.13007,0,0,0-.48,1,4.62041,4.62041,0,0,0-.13,1.3h-.04Z"/><path id="Shape-11" class="cls-1" d="M213.53,16.26017h1.14l.12,1.19h.05a6.73971,6.73971,0,0,1,1.25-1,2.86,2.86,0,0,1,1.52-.4,2.22,2.22,0,0,1,1.91.82,4,4,0,0,1,.6,2.41v5.24h-1.39v-5a3.00008,3.00008,0,0,0-.37-1.69,1.37,1.37,0,0,0-1.19-.52,2,2,0,0,0-1.14.32,7.33062,7.33062,0,0,0-1.12,1v6h-1.39v-8.37h.01Z"/><path id="Shape-12" class="cls-1" d="M222.61,22.65017a5.52991,5.52991,0,0,0,1.11.71,2.99992,2.99992,0,0,0,1.32.27,1.76,1.76,0,0,0,1.22-.37,1.2,1.2,0,0,0,.41-.92,1.00007,1.00007,0,0,0-.17-.56,1.73013,1.73013,0,0,0-.43-.42,3.18,3.18,0,0,0-.6-.31l-.68-.23q-.44-.15-.88-.35a3.5,3.5,0,0,1-.79-.48,2.4,2.4,0,0,1-.57-.65,1.74,1.74,0,0,1-.22-.9,2.24011,2.24011,0,0,1,.2-.93,2.14027,2.14027,0,0,1,.56-.75,2.6501,2.6501,0,0,1,.89-.49,4,4,0,0,1,2.63.09,4.48013,4.48013,0,0,1,1.13.66l-.66.88a4.45,4.45,0,0,0-.88-.53,2.44987,2.44987,0,0,0-1-.2,1.59,1.59,0,0,0-1.15.36,1.13006,1.13006,0,0,0-.37.83.83988.83988,0,0,0,.15.5,1.4598,1.4598,0,0,0,.41.37,3.34043,3.34043,0,0,0,.59.29l.69.26.89.36a3.43,3.43,0,0,1,.81.47,2.31,2.31,0,0,1,.59.69,2,2,0,0,1,.23,1,2.34,2.34,0,0,1-.2,1,2.26993,2.26993,0,0,1-.58.78,2.7599,2.7599,0,0,1-1,.54,3.99964,3.99964,0,0,1-1.3.2,4.45991,4.45991,0,0,1-1.68-.32,5.25987,5.25987,0,0,1-1.39-.82Z"/><path id="Shape-13" class="cls-2" d="M359.54,350.94017a2.22,2.22,0,0,1-2.22,2.22H11.44a2.22,2.22,0,0,1-2.22-2.22h0v-110.12H6.75v110.12a4.7,4.7,0,0,0,4.7,4.69H357.33a4.7,4.7,0,0,0,4.7-4.69v-110.12h-2.48v110.12h-.01Z"/><path id="Shape-14" class="cls-2" d="M9.16,4.70017a2.22,2.22,0,0,1,2.22-2.22H357.26a2.22,2.22,0,0,1,2.22,2.22h0v155.56H362V4.70017A4.7,4.7,0,0,0,357.30017,0c-.0134,0-.02676.00006-.04016.00017H11.38a4.7,4.7,0,0,0-4.71,4.69v155.57H9.15V4.70017h.01Z"/><path id="Rectangle-path" class="cls-3" d="M4.42,160.26017H365.5a3.46,3.46,0,0,1,3.46,3.46v73.81a3.46,3.46,0,0,1-3.46,3.46H4.42a3.46,3.46,0,0,1-3.46-3.46v-73.81a3.46,3.46,0,0,1,3.46-3.46Z"/><polygon id="Shape-15" class="cls-1" points="137.05 330.44 138.46 330.44 138.46 341.59 137.05 341.59 137.05 330.44"/><path id="Shape-16" class="cls-1" d="M141.38,333.33016h1.16l.13,1.19h0a6.74,6.74,0,0,1,1.25-1,2.85992,2.85992,0,0,1,1.52-.4,2.22,2.22,0,0,1,1.91.82,4.00009,4.00009,0,0,1,.6,2.41v5.24h-1.39v-5a3,3,0,0,0-.37-1.69,1.37,1.37,0,0,0-1.19-.52,1.9999,1.9999,0,0,0-1.14.32,7.33115,7.33115,0,0,0-1.12,1v6h-1.39v-8.26Z"/><path id="Shape-17" class="cls-1" d="M154.4,330.63018a2.28958,2.28958,0,0,0-.94-.2q-1.16,0-1.16,1.6v1.31h1.75v1.14H152.3v7.12h-1.39v-7.12h-1.12v-1.06l1.12-.08v-1.34a3.1201,3.1201,0,0,1,.59-2,2.19992,2.19992,0,0,1,1.83-.73,3.44959,3.44959,0,0,1,.74.08,3.82125,3.82125,0,0,1,.64.2Z"/><path id="Shape-18" class="cls-1" d="M155.67,333.33016h1.16l.12,1.5H157a3.80979,3.80979,0,0,1,1-1.24,2.13,2.13,0,0,1,1.32-.46,2.2,2.2,0,0,1,.88.17l-.27,1.22-.37-.1a2.23054,2.23054,0,0,0-.42,0,1.85,1.85,0,0,0-1.1.42,3.38,3.38,0,0,0-1,1.48v5.3h-1.37v-8.29Z"/><path id="Shape-19" class="cls-1" d="M160.67,339.45018a2.29,2.29,0,0,1,1.21-2.08,10.06946,10.06946,0,0,1,3.87-1,3.75062,3.75062,0,0,0-.08-.76,1.82989,1.82989,0,0,0-.27-.66,1.49007,1.49007,0,0,0-.52-.47,1.71019,1.71019,0,0,0-.83-.18,3.34009,3.34009,0,0,0-1.35.27,6.67158,6.67158,0,0,0-1.11.61l-.56-1a9.0017,9.0017,0,0,1,1.41-.72,4.70973,4.70973,0,0,1,1.84-.35,2.54,2.54,0,0,1,2.19.93,4.09,4.09,0,0,1,.68,2.47v5.07H166l-.12-1h0a6.87957,6.87957,0,0,1-1.28.84,3.16988,3.16988,0,0,1-1.45.35,2.52,2.52,0,0,1-1.74-.61,2.2,2.2,0,0,1-.73-1.71h-.01Zm1.38-.1a1.18,1.18,0,0,0,.42,1,1.69,1.69,0,0,0,1,.31,2.41,2.41,0,0,0,1.13-.28,5.51053,5.51053,0,0,0,1.13-.83v-2.29a14.60741,14.60741,0,0,0-1.75.32,4.58992,4.58992,0,0,0-1.15.44,1.64005,1.64005,0,0,0-.62.59,1.44,1.44,0,0,0-.12.74h-.04Z"/><path id="Shape-20" class="cls-1" d="M169.6,339.73018a5.52974,5.52974,0,0,0,1.11.71,2.99989,2.99989,0,0,0,1.32.27,1.76,1.76,0,0,0,1.22-.37,1.2,1.2,0,0,0,.41-.92,1,1,0,0,0-.17-.56,1.7293,1.7293,0,0,0-.43-.42,3.1815,3.1815,0,0,0-.6-.31l-.68-.27q-.44-.15-.88-.35a3.5,3.5,0,0,1-.79-.48,2.4003,2.4003,0,0,1-.57-.65,1.74,1.74,0,0,1-.22-.9,2.24008,2.24008,0,0,1,.2-.93,2.14012,2.14012,0,0,1,.56-.75,2.6498,2.6498,0,0,1,.89-.49,4,4,0,0,1,2.63.09,4.48,4.48,0,0,1,1.13.66l-.66.88a4.44947,4.44947,0,0,0-.88-.53,2.45011,2.45011,0,0,0-1-.2,1.59008,1.59008,0,0,0-1.15.36,1.13,1.13,0,0,0-.37.83.83992.83992,0,0,0,.15.5,1.46,1.46,0,0,0,.41.37,3.33935,3.33935,0,0,0,.59.29l.69.26.89.36a3.42985,3.42985,0,0,1,.81.47,2.31037,2.31037,0,0,1,.59.69,2,2,0,0,1,.23,1,2.3401,2.3401,0,0,1-.2,1,2.2698,2.2698,0,0,1-.58.78,2.75971,2.75971,0,0,1-1,.54,4.00022,4.00022,0,0,1-1.3.2,4.45972,4.45972,0,0,1-1.68-.32,5.26017,5.26017,0,0,1-1.39-.82Z"/><path id="Shape-21" class="cls-1" d="M177.18,334.47017H176v-1l1.29-.08.17-2.31h1.17v2.31h2.23v1.14h-2.23v4.59a2.10993,2.10993,0,0,0,.28,1.18,1.11,1.11,0,0,0,1,.42,1.87086,1.87086,0,0,0,.48-.07,3.55367,3.55367,0,0,0,.46-.15l.27,1a7.39971,7.39971,0,0,1-.74.21,3.43993,3.43993,0,0,1-.79.09,2.7,2.7,0,0,1-1.11-.2,1.92011,1.92011,0,0,1-.73-.56,2.18981,2.18981,0,0,1-.4-.87,4.999,4.999,0,0,1-.12-1.12v-4.57h0Z"/><path id="Shape-22" class="cls-1" d="M182.67,333.33016h1.16l.12,1.5H184a3.80979,3.80979,0,0,1,1-1.24,2.13,2.13,0,0,1,1.32-.46,2.2,2.2,0,0,1,.88.17l-.27,1.22-.37-.1a2.23054,2.23054,0,0,0-.42,0,1.85,1.85,0,0,0-1.1.42,3.38,3.38,0,0,0-1,1.48v5.3h-1.37v-8.29Z"/><path id="Shape-23" class="cls-1" d="M188.47,333.33016h1.41v5a3,3,0,0,0,.37,1.69,1.34,1.34,0,0,0,1.18.52,2,2,0,0,0,1.14-.33,5.31989,5.31989,0,0,0,1.09-1.06v-5.86h1.39v8.26h-1.16l-.12-1.29h-.05a5.52,5.52,0,0,1-1.22,1.09,2.72992,2.72992,0,0,1-1.5.41,2.24,2.24,0,0,1-1.93-.82,4,4,0,0,1-.6-2.41v-5.2Z"/><path id="Shape-24" class="cls-1" d="M197.23,337.48018a4.93,4.93,0,0,1,.32-1.84,4.15,4.15,0,0,1,.87-1.37,3.62,3.62,0,0,1,1.27-.85,4.06957,4.06957,0,0,1,1.52-.29,3.08,3.08,0,0,1,1.4.3,4.51,4.51,0,0,1,1,.69l-.7.9a3.93938,3.93938,0,0,0-.77-.53,1.92993,1.92993,0,0,0-.89-.2,2.3201,2.3201,0,0,0-1.85.88,3.23,3.23,0,0,0-.54,1,4.08011,4.08011,0,0,0-.2,1.3,4.17,4.17,0,0,0,.19,1.29,3.14,3.14,0,0,0,.52,1,2.30015,2.30015,0,0,0,.81.65,2.46987,2.46987,0,0,0,2.12,0,3.86948,3.86948,0,0,0,.86-.59l.63.92a4.52972,4.52972,0,0,1-1.25.78,3.67954,3.67954,0,0,1-1.44.29,4.00007,4.00007,0,0,1-1.53-.29,3.43,3.43,0,0,1-1.23-.84,4.00015,4.00015,0,0,1-.82-1.36,5.26039,5.26039,0,0,1-.29-1.84h0Z"/><path id="Shape-25" class="cls-1" d="M205.83,334.47017h-1.22v-1l1.29-.08.17-2.31h1.17v2.31h2.23v1.14h-2.23v4.59a2.11,2.11,0,0,0,.28,1.18,1.11,1.11,0,0,0,1,.42,1.87086,1.87086,0,0,0,.48-.07,3.55317,3.55317,0,0,0,.46-.15l.27,1a7.39971,7.39971,0,0,1-.74.21,3.43993,3.43993,0,0,1-.79.09,2.7,2.7,0,0,1-1.11-.2,1.92011,1.92011,0,0,1-.73-.56,2.18981,2.18981,0,0,1-.4-.87,4.999,4.999,0,0,1-.12-1.12v-4.57h0Z"/><path id="Shape-26" class="cls-1" d="M211.12,333.33016h1.41v5a3.00008,3.00008,0,0,0,.37,1.69,1.34,1.34,0,0,0,1.18.52,2.00006,2.00006,0,0,0,1.14-.33,5.31984,5.31984,0,0,0,1.09-1.06v-5.86h1.36v8.26h-1.16l-.12-1.29h0a5.51973,5.51973,0,0,1-1.22,1.09,2.72992,2.72992,0,0,1-1.5.41,2.24,2.24,0,0,1-1.93-.82,4.00006,4.00006,0,0,1-.6-2.41v-5.2Z"/><path id="Shape-27" class="cls-1" d="M220.48,333.33016h1.19l.12,1.5h.05a3.80979,3.80979,0,0,1,1-1.24,2.13,2.13,0,0,1,1.32-.46,2.2,2.2,0,0,1,.88.17l-.27,1.22-.37-.1a2.23054,2.23054,0,0,0-.42,0,1.85,1.85,0,0,0-1.1.42,3.38007,3.38007,0,0,0-1,1.48v5.3h-1.39v-8.29Z"/><path id="Shape-28" class="cls-1" d="M225.6,337.48018a5.00007,5.00007,0,0,1,.31-1.83,4.2699,4.2699,0,0,1,.83-1.37,3.62979,3.62979,0,0,1,1.18-.86,3.34,3.34,0,0,1,1.38-.3,3.4698,3.4698,0,0,1,1.4.27,2.74993,2.74993,0,0,1,1,.78,3.6,3.6,0,0,1,.64,1.22,5.43016,5.43016,0,0,1,.22,1.6,4.86918,4.86918,0,0,1-.05.76h-5.58a3.27992,3.27992,0,0,0,.82,2.13,2.53,2.53,0,0,0,1.93.78,3.25,3.25,0,0,0,1.1-.18,4.82017,4.82017,0,0,0,1-.47l.49.92a6.93981,6.93981,0,0,1-1.21.6,4.1907,4.1907,0,0,1-1.51.25,4,4,0,0,1-1.56-.3,3.68,3.68,0,0,1-1.26-.85,3.93,3.93,0,0,1-.84-1.35,5.00024,5.00024,0,0,1-.29-1.8h0Zm5.78-.63a3.05989,3.05989,0,0,0-.54-2,1.82,1.82,0,0,0-1.5-.67,1.99978,1.99978,0,0,0-.84.18,2.32988,2.32988,0,0,0-.72.51,2.71991,2.71991,0,0,0-.54.82,3.77019,3.77019,0,0,0-.28,1.11h4.42Z"/><path id="Rectangle-path-2" class="cls-4" d="M3.85,160.26017H364.93a3.46,3.46,0,0,1,3.46,3.46v73.81a3.46,3.46,0,0,1-3.46,3.46H3.85a3.46,3.46,0,0,1-3.46-3.46v-73.81a3.46,3.46,0,0,1,3.46-3.46Z"/><path id="Shape-62" class="cls-5" d="M227.41,260.44017a.94.94,0,0,1,.94.94h0v23.62a.94.94,0,0,1-.94.94H136.94a.94.94,0,0,1-.94-.94h0v-23.62a.94.94,0,0,1,.94-.94h90.47Zm0-.75H136.94a1.69,1.69,0,0,0-1.69,1.69h0v23.62a1.69,1.69,0,0,0,1.69,1.69h90.47a1.69,1.69,0,0,0,1.69-1.69h0v-23.62a1.69,1.69,0,0,0-1.69-1.69Z"/><path id="Shape-63" class="cls-5" d="M227.41,294.77016a.94.94,0,0,1,.94.94h0v23.65a.94.94,0,0,1-.94.94H136.94a.94.94,0,0,1-.94-.94h0v-23.65a.94.94,0,0,1,.94-.94h90.47Zm0-.75H136.94a1.69,1.69,0,0,0-1.69,1.69h0v23.65a1.69,1.69,0,0,0,1.69,1.69h90.47a1.69,1.69,0,0,0,1.69-1.69h0v-23.65a1.69,1.69,0,0,0-1.69-1.69Z"/><circle id="Oval-5" class="cls-6" cx="149.33" cy="303.01017" r="2.05"/><path class="cls-5" d="M207.85,303.00017a.49.49,0,0,1,.47979-.5c.00673-.00015.01348-.00015.02021,0h0a.49.49,0,0,1,.5.4798c.00013.00674.00013.01346,0,.0202h0a.49.49,0,0,1-.4798.5q-.01009.00022-.0202,0h0a.49.49,0,0,1-.5-.4798C207.84987,303.01363,207.84987,303.00691,207.85,303.00017Zm-2,0a.49.49,0,0,1,.47979-.5c.00673-.00015.01348-.00015.02021,0h0a.49.49,0,0,1,.5.4798c.00013.00674.00013.01346,0,.0202h0a.49.49,0,0,1-.4798.5q-.01009.00022-.0202,0h0a.49.49,0,0,1-.5-.4798C205.84987,303.01363,205.84987,303.00691,205.85,303.00017Zm-2,0a.49.49,0,0,1,.47979-.5c.00673-.00015.01348-.00015.02021,0h0a.5.5,0,0,1,.5.5h0a.5.5,0,0,1-.5.5h0a.49.49,0,0,1-.5-.4798C203.84987,303.01363,203.84987,303.00691,203.85,303.00017Zm-2,0a.49.49,0,0,1,.47979-.5c.00673-.00015.01348-.00015.02021,0h0a.5.5,0,0,1,.5.5h0a.5.5,0,0,1-.5.5h0a.49.49,0,0,1-.5-.4798C201.84987,303.01363,201.84987,303.00691,201.85,303.00017Zm-2,0a.49.49,0,0,1,.47979-.5c.00673-.00015.01348-.00015.02021,0h0a.49.49,0,0,1,.5.4798c.00013.00674.00013.01346,0,.0202h0a.49.49,0,0,1-.4798.5q-.01009.00022-.0202,0h0a.49.49,0,0,1-.5-.4798C199.84987,303.01363,199.84987,303.00691,199.85,303.00017Zm-2,0a.49.49,0,0,1,.47979-.5c.00673-.00015.01348-.00015.02021,0h0a.49.49,0,0,1,.5.4798c.00013.00674.00013.01346,0,.0202h0a.49.49,0,0,1-.4798.5q-.01009.00022-.0202,0h0a.49.49,0,0,1-.5-.4798C197.84987,303.01363,197.84987,303.00691,197.85,303.00017Zm-2,0a.49.49,0,0,1,.47979-.5c.00673-.00015.01348-.00015.02021,0h0a.5.5,0,0,1,.5.5h0a.5.5,0,0,1-.5.5h0a.49.49,0,0,1-.5-.4798C195.84987,303.01363,195.84987,303.00691,195.85,303.00017Zm-2,0a.49.49,0,0,1,.47979-.5c.00673-.00015.01348-.00015.02021,0h0a.5.5,0,0,1,.5.5h0a.5.5,0,0,1-.5.5h0a.49.49,0,0,1-.5-.4798C193.84987,303.01363,193.84987,303.00691,193.85,303.00017Zm-2,0a.49.49,0,0,1,.47979-.5c.00673-.00015.01348-.00015.02021,0h0a.49.49,0,0,1,.5.4798c.00013.00674.00013.01346,0,.0202h0a.49.49,0,0,1-.4798.5q-.01009.00022-.0202,0h0a.49.49,0,0,1-.5-.4798C191.84987,303.01363,191.84987,303.00691,191.85,303.00017Zm-2,0a.49.49,0,0,1,.47979-.5c.00673-.00015.01348-.00015.02021,0h0a.49.49,0,0,1,.5.4798c.00013.00674.00013.01346,0,.0202h0a.49.49,0,0,1-.4798.5q-.01009.00022-.0202,0h0a.49.49,0,0,1-.5-.4798C189.84987,303.01363,189.84987,303.00691,189.85,303.00017Zm-2,0a.49.49,0,0,1,.47979-.5c.00673-.00015.01348-.00015.02021,0h0a.5.5,0,0,1,.5.5h0a.5.5,0,0,1-.5.5h0a.49.49,0,0,1-.5-.4798C187.84987,303.01363,187.84987,303.00691,187.85,303.00017Zm-2,0a.49.49,0,0,1,.47979-.5c.00673-.00015.01348-.00015.02021,0h0a.5.5,0,0,1,.5.5h0a.5.5,0,0,1-.5.5h0a.49.49,0,0,1-.5-.4798C185.84987,303.01363,185.84987,303.00691,185.85,303.00017Zm-2,0a.5.5,0,0,1,.5-.5h0a.49.49,0,0,1,.5.4798c.00013.00674.00013.01346,0,.0202h0a.49.49,0,0,1-.4798.5q-.01009.00022-.0202,0h0A.5.5,0,0,1,183.85,303.00017Zm-2,0a.5.5,0,0,1,.5-.5h0a.49.49,0,0,1,.5.4798c.00013.00674.00013.01346,0,.0202h0a.49.49,0,0,1-.4798.5q-.01009.00022-.0202,0h0A.5.5,0,0,1,181.85,303.00017Zm-2,0a.5.5,0,0,1,.5-.5h0a.49.49,0,0,1,.5.4798c.00013.00674.00013.01346,0,.0202h0a.49.49,0,0,1-.4798.5q-.01009.00022-.0202,0h0A.5.5,0,0,1,179.85,303.00017Zm-2,0a.5.5,0,0,1,.5-.5h0a.5.5,0,0,1,.5.5h0a.5.5,0,0,1-.5.5h0A.5.5,0,0,1,177.85,303.00017Zm-2,0a.5.5,0,0,1,.5-.5h0a.49.49,0,0,1,.5.4798c.00013.00674.00013.01346,0,.0202h0a.49.49,0,0,1-.4798.5q-.01009.00022-.0202,0h0A.5.5,0,0,1,175.85,303.00017Zm-2,0a.5.5,0,0,1,.5-.5h0a.49.49,0,0,1,.5.4798c.00013.00674.00013.01346,0,.0202h0a.49.49,0,0,1-.4798.5q-.01009.00022-.0202,0h0A.5.5,0,0,1,173.85,303.00017Zm-2,0a.5.5,0,0,1,.5-.5h0a.49.49,0,0,1,.5.4798c.00013.00674.00013.01346,0,.0202h0a.49.49,0,0,1-.4798.5q-.01009.00022-.0202,0h0A.5.5,0,0,1,171.85,303.00017Zm-2,0a.5.5,0,0,1,.5-.5h0a.49.49,0,0,1,.5.4798c.00013.00674.00013.01346,0,.0202h0a.49.49,0,0,1-.4798.5q-.01009.00022-.0202,0h0A.5.5,0,0,1,169.85,303.00017Zm-2,0a.5.5,0,0,1,.5-.5h0a.49.49,0,0,1,.5.4798c.00013.00674.00013.01346,0,.0202h0a.49.49,0,0,1-.4798.5q-.01009.00022-.0202,0h0A.5.5,0,0,1,167.85,303.00017Zm-2,0a.5.5,0,0,1,.5-.5h0a.49.49,0,0,1,.5.4798c.00013.00674.00013.01346,0,.0202h0a.49.49,0,0,1-.4798.5q-.01009.00022-.0202,0h0A.5.5,0,0,1,165.85,303.00017Zm-2,0a.5.5,0,0,1,.5-.5h0a.49.49,0,0,1,.5.4798c.00013.00674.00013.01346,0,.0202h0a.49.49,0,0,1-.4798.5q-.01009.00022-.0202,0h0A.5.5,0,0,1,163.85,303.00017Zm-2,0a.5.5,0,0,1,.5-.5h0a.49.49,0,0,1,.5.4798c.00013.00674.00013.01346,0,.0202h0a.49.49,0,0,1-.4798.5q-.01009.00022-.0202,0h0A.5.5,0,0,1,161.85,303.00017Z"/><circle id="Oval-6" class="cls-6" cx="149.33" cy="311.32017" r="2.05"/><path class="cls-5" d="M207.85,311.32018a.5.5,0,0,1,.5-.5h0a.5.5,0,0,1,.5.5h0a.49.49,0,0,1-.4798.5q-.01009.00023-.0202,0h0a.49.49,0,0,1-.5-.4798C207.84987,311.33364,207.84987,311.32692,207.85,311.32018Zm-2,0a.5.5,0,0,1,.5-.5h0a.5.5,0,0,1,.5.5h0a.49.49,0,0,1-.4798.5q-.01009.00023-.0202,0h0a.49.49,0,0,1-.5-.4798C205.84987,311.33364,205.84987,311.32692,205.85,311.32018Zm-2,0a.5.5,0,0,1,.5-.5h0a.5.5,0,0,1,.5.5h0a.5.5,0,0,1-.5.5h0a.49.49,0,0,1-.5-.4798C203.84987,311.33364,203.84987,311.32692,203.85,311.32018Zm-2,0a.5.5,0,0,1,.5-.5h0a.5.5,0,0,1,.5.5h0a.5.5,0,0,1-.5.5h0a.49.49,0,0,1-.5-.4798C201.84987,311.33364,201.84987,311.32692,201.85,311.32018Zm-2,0a.5.5,0,0,1,.5-.5h0a.5.5,0,0,1,.5.5h0a.49.49,0,0,1-.4798.5q-.01009.00023-.0202,0h0a.49.49,0,0,1-.5-.4798C199.84987,311.33364,199.84987,311.32692,199.85,311.32018Zm-2,0a.5.5,0,0,1,.5-.5h0a.5.5,0,0,1,.5.5h0a.49.49,0,0,1-.4798.5q-.01009.00023-.0202,0h0a.49.49,0,0,1-.5-.4798C197.84987,311.33364,197.84987,311.32692,197.85,311.32018Zm-2,0a.5.5,0,0,1,.5-.5h0a.5.5,0,0,1,.5.5h0a.5.5,0,0,1-.5.5h0a.49.49,0,0,1-.5-.4798C195.84987,311.33364,195.84987,311.32692,195.85,311.32018Zm-2,0a.5.5,0,0,1,.5-.5h0a.5.5,0,0,1,.5.5h0a.5.5,0,0,1-.5.5h0a.49.49,0,0,1-.5-.4798C193.84987,311.33364,193.84987,311.32692,193.85,311.32018Zm-2,0a.5.5,0,0,1,.5-.5h0a.5.5,0,0,1,.5.5h0a.49.49,0,0,1-.4798.5q-.01009.00023-.0202,0h0a.49.49,0,0,1-.5-.4798C191.84987,311.33364,191.84987,311.32692,191.85,311.32018Zm-2,0a.5.5,0,0,1,.5-.5h0a.5.5,0,0,1,.5.5h0a.5.5,0,0,1-.5.5h0a.49.49,0,0,1-.5-.4798C189.84987,311.33364,189.84987,311.32692,189.85,311.32018Zm-2,0a.5.5,0,0,1,.5-.5h0a.5.5,0,0,1,.5.5h0a.5.5,0,0,1-.5.5h0a.49.49,0,0,1-.5-.4798C187.84987,311.33364,187.84987,311.32692,187.85,311.32018Zm-2,0a.5.5,0,0,1,.5-.5h0a.5.5,0,0,1,.5.5h0a.49.49,0,0,1-.4798.5q-.01009.00023-.0202,0h0a.49.49,0,0,1-.5-.4798C185.84987,311.33364,185.84987,311.32692,185.85,311.32018Zm-2,0a.5.5,0,0,1,.5-.5h0a.5.5,0,0,1,.5.5h0a.49.49,0,0,1-.4798.5q-.01009.00023-.0202,0h0A.5.5,0,0,1,183.85,311.32018Zm-2,0a.5.5,0,0,1,.5-.5h0a.5.5,0,0,1,.5.5h0a.49.49,0,0,1-.4798.5q-.01009.00023-.0202,0h0A.5.5,0,0,1,181.85,311.32018Zm-2,0a.5.5,0,0,1,.5-.5h0a.5.5,0,0,1,.5.5h0a.49.49,0,0,1-.4798.5q-.01009.00023-.0202,0h0A.5.5,0,0,1,179.85,311.32018Zm-2,0a.5.5,0,0,1,.5-.5h0a.5.5,0,0,1,.5.5h0a.49.49,0,0,1-.4798.5q-.01009.00023-.0202,0h0A.5.5,0,0,1,177.85,311.32018Zm-2,0a.5.5,0,0,1,.5-.5h0a.5.5,0,0,1,.5.5h0a.49.49,0,0,1-.4798.5q-.01009.00023-.0202,0h0A.5.5,0,0,1,175.85,311.32018Zm-2,0a.5.5,0,0,1,.5-.5h0a.5.5,0,0,1,.5.5h0a.49.49,0,0,1-.4798.5q-.01009.00023-.0202,0h0A.5.5,0,0,1,173.85,311.32018Zm-2,0a.5.5,0,0,1,.5-.5h0a.5.5,0,0,1,.5.5h0a.49.49,0,0,1-.4798.5q-.01009.00023-.0202,0h0A.5.5,0,0,1,171.85,311.32018Zm-2,0a.5.5,0,0,1,.5-.5h0a.5.5,0,0,1,.5.5h0a.49.49,0,0,1-.4798.5q-.01009.00023-.0202,0h0A.5.5,0,0,1,169.85,311.32018Zm-2,0a.5.5,0,0,1,.5-.5h0a.5.5,0,0,1,.5.5h0a.49.49,0,0,1-.4798.5q-.01009.00023-.0202,0h0A.5.5,0,0,1,167.85,311.32018Zm-2,0a.5.5,0,0,1,.5-.5h0a.5.5,0,0,1,.5.5h0a.49.49,0,0,1-.4798.5q-.01009.00023-.0202,0h0A.5.5,0,0,1,165.85,311.32018Zm-2,0a.5.5,0,0,1,.5-.5h0a.5.5,0,0,1,.5.5h0a.49.49,0,0,1-.4798.5q-.01009.00023-.0202,0h0A.5.5,0,0,1,163.85,311.32018Zm-2,0a.5.5,0,0,1,.5-.5h0a.5.5,0,0,1,.5.5h0a.49.49,0,0,1-.4798.5q-.01009.00023-.0202,0h0A.5.5,0,0,1,161.85,311.32018Z"/><circle id="Oval-7" class="cls-6" cx="149.33" cy="269.05018" r="2.05"/><path class="cls-5" d="M207.85,269.00017a.49.49,0,0,1,.47979-.5c.00673-.00015.01348-.00015.02021,0h0a.5.5,0,0,1,.5.5h0a.5.5,0,0,1-.5.5h0a.49.49,0,0,1-.5-.4798C207.84987,269.01363,207.84987,269.00691,207.85,269.00017Zm-2,0a.49.49,0,0,1,.47979-.5c.00673-.00015.01348-.00015.02021,0h0a.5.5,0,0,1,.5.5h0a.5.5,0,0,1-.5.5h0a.49.49,0,0,1-.5-.4798C205.84987,269.01363,205.84987,269.00691,205.85,269.00017Zm-2,0a.49.49,0,0,1,.47979-.5c.00673-.00015.01348-.00015.02021,0h0a.49.49,0,0,1,.5.4798c.00013.00674.00013.01346,0,.0202h0a.49.49,0,0,1-.4798.5q-.01009.00022-.0202,0h0a.49.49,0,0,1-.5-.4798C203.84987,269.01363,203.84987,269.00691,203.85,269.00017Zm-2,0a.49.49,0,0,1,.47979-.5c.00673-.00015.01348-.00015.02021,0h0a.49.49,0,0,1,.5.4798c.00013.00674.00013.01346,0,.0202h0a.49.49,0,0,1-.4798.5q-.01009.00022-.0202,0h0a.49.49,0,0,1-.5-.4798C201.84987,269.01363,201.84987,269.00691,201.85,269.00017Zm-2,0a.49.49,0,0,1,.47979-.5c.00673-.00015.01348-.00015.02021,0h0a.49.49,0,0,1,.5.4798c.00013.00674.00013.01346,0,.0202h0a.49.49,0,0,1-.4798.5q-.01009.00022-.0202,0h0a.49.49,0,0,1-.5-.4798C199.84987,269.01363,199.84987,269.00691,199.85,269.00017Zm-2,0a.49.49,0,0,1,.47979-.5c.00673-.00015.01348-.00015.02021,0h0a.5.5,0,0,1,.5.5h0a.5.5,0,0,1-.5.5h0a.49.49,0,0,1-.5-.4798C197.84987,269.01363,197.84987,269.00691,197.85,269.00017Zm-2,0a.49.49,0,0,1,.47979-.5c.00673-.00015.01348-.00015.02021,0h0a.5.5,0,0,1,.5.5h0a.5.5,0,0,1-.5.5h0a.49.49,0,0,1-.5-.4798C195.84987,269.01363,195.84987,269.00691,195.85,269.00017Zm-2,0a.49.49,0,0,1,.47979-.5c.00673-.00015.01348-.00015.02021,0h0a.5.5,0,0,1,.5.5h0a.5.5,0,0,1-.5.5h0a.49.49,0,0,1-.5-.4798C193.84987,269.01363,193.84987,269.00691,193.85,269.00017Zm-2,0a.49.49,0,0,1,.47979-.5c.00673-.00015.01348-.00015.02021,0h0a.49.49,0,0,1,.5.4798c.00013.00674.00013.01346,0,.0202h0a.49.49,0,0,1-.4798.5q-.01009.00022-.0202,0h0a.49.49,0,0,1-.5-.4798C191.84987,269.01363,191.84987,269.00691,191.85,269.00017Zm-2,0a.49.49,0,0,1,.47979-.5c.00673-.00015.01348-.00015.02021,0h0a.49.49,0,0,1,.5.4798c.00013.00674.00013.01346,0,.0202h0a.49.49,0,0,1-.4798.5q-.01009.00022-.0202,0h0a.49.49,0,0,1-.5-.4798C189.84987,269.01363,189.84987,269.00691,189.85,269.00017Zm-2,0a.49.49,0,0,1,.47979-.5c.00673-.00015.01348-.00015.02021,0h0a.49.49,0,0,1,.5.4798c.00013.00674.00013.01346,0,.0202h0a.49.49,0,0,1-.4798.5q-.01009.00022-.0202,0h0a.49.49,0,0,1-.5-.4798C187.84987,269.01363,187.84987,269.00691,187.85,269.00017Zm-2,0a.49.49,0,0,1,.47979-.5c.00673-.00015.01348-.00015.02021,0h0a.5.5,0,0,1,.5.5h0a.5.5,0,0,1-.5.5h0a.49.49,0,0,1-.5-.4798C185.84987,269.01363,185.84987,269.00691,185.85,269.00017Zm-2,0a.5.5,0,0,1,.5-.5h0a.5.5,0,0,1,.5.5h0a.5.5,0,0,1-.5.5h0A.5.5,0,0,1,183.85,269.00017Zm-2,0a.5.5,0,0,1,.5-.5h0a.49.49,0,0,1,.5.4798c.00013.00674.00013.01346,0,.0202h0a.49.49,0,0,1-.4798.5q-.01009.00022-.0202,0h0A.5.5,0,0,1,181.85,269.00017Zm-2,0a.5.5,0,0,1,.5-.5h0a.49.49,0,0,1,.5.4798c.00013.00674.00013.01346,0,.0202h0a.49.49,0,0,1-.4798.5q-.01009.00022-.0202,0h0A.5.5,0,0,1,179.85,269.00017Zm-2,0a.5.5,0,0,1,.5-.5h0a.49.49,0,0,1,.5.4798c.00013.00674.00013.01346,0,.0202h0a.49.49,0,0,1-.4798.5q-.01009.00022-.0202,0h0A.5.5,0,0,1,177.85,269.00017Zm-2,0a.5.5,0,0,1,.5-.5h0a.49.49,0,0,1,.5.4798c.00013.00674.00013.01346,0,.0202h0a.49.49,0,0,1-.4798.5q-.01009.00022-.0202,0h0A.5.5,0,0,1,175.85,269.00017Zm-2,0a.5.5,0,0,1,.5-.5h0a.49.49,0,0,1,.5.4798c.00013.00674.00013.01346,0,.0202h0a.49.49,0,0,1-.4798.5q-.01009.00022-.0202,0h0A.5.5,0,0,1,173.85,269.00017Zm-2,0a.5.5,0,0,1,.5-.5h0a.49.49,0,0,1,.5.4798c.00013.00674.00013.01346,0,.0202h0a.49.49,0,0,1-.4798.5q-.01009.00022-.0202,0h0A.5.5,0,0,1,171.85,269.00017Zm-2,0a.5.5,0,0,1,.5-.5h0a.49.49,0,0,1,.5.4798c.00013.00674.00013.01346,0,.0202h0a.49.49,0,0,1-.4798.5q-.01009.00022-.0202,0h0A.5.5,0,0,1,169.85,269.00017Zm-2,0a.5.5,0,0,1,.5-.5h0a.49.49,0,0,1,.5.4798c.00013.00674.00013.01346,0,.0202h0a.49.49,0,0,1-.4798.5q-.01009.00022-.0202,0h0A.5.5,0,0,1,167.85,269.00017Zm-2,0a.5.5,0,0,1,.5-.5h0a.49.49,0,0,1,.5.4798c.00013.00674.00013.01346,0,.0202h0a.49.49,0,0,1-.4798.5q-.01009.00022-.0202,0h0A.5.5,0,0,1,165.85,269.00017Zm-2,0a.5.5,0,0,1,.5-.5h0a.49.49,0,0,1,.5.4798c.00013.00674.00013.01346,0,.0202h0a.49.49,0,0,1-.4798.5q-.01009.00022-.0202,0h0A.5.5,0,0,1,163.85,269.00017Zm-2,0a.5.5,0,0,1,.5-.5h0a.49.49,0,0,1,.5.4798c.00013.00674.00013.01346,0,.0202h0a.49.49,0,0,1-.4798.5q-.01009.00022-.0202,0h0A.5.5,0,0,1,161.85,269.00017Z"/><circle id="Oval-8" class="cls-6" cx="149.33" cy="277.36018" r="2.05"/><path class="cls-5" d="M207.85,277.36016a.5.5,0,0,1,.5-.5h0a.5.5,0,0,1,.5.5h0a.49.49,0,0,1-.4798.5q-.01009.00023-.0202,0h0a.49.49,0,0,1-.5-.4798C207.84987,277.37361,207.84987,277.3669,207.85,277.36016Zm-2,0a.5.5,0,0,1,.5-.5h0a.5.5,0,0,1,.5.5h0a.49.49,0,0,1-.4798.5q-.01009.00023-.0202,0h0a.49.49,0,0,1-.5-.4798C205.84987,277.37361,205.84987,277.3669,205.85,277.36016Zm-2,0a.5.5,0,0,1,.5-.5h0a.5.5,0,0,1,.5.5h0a.5.5,0,0,1-.5.5h0a.49.49,0,0,1-.5-.4798C203.84987,277.37361,203.84987,277.3669,203.85,277.36016Zm-2,0a.5.5,0,0,1,.5-.5h0a.5.5,0,0,1,.5.5h0a.5.5,0,0,1-.5.5h0a.49.49,0,0,1-.5-.4798C201.84987,277.37361,201.84987,277.3669,201.85,277.36016Zm-2,0a.5.5,0,0,1,.5-.5h0a.5.5,0,0,1,.5.5h0a.5.5,0,0,1-.5.5h0a.49.49,0,0,1-.5-.4798C199.84987,277.37361,199.84987,277.3669,199.85,277.36016Zm-2,0a.5.5,0,0,1,.5-.5h0a.5.5,0,0,1,.5.5h0a.49.49,0,0,1-.4798.5q-.01009.00023-.0202,0h0a.49.49,0,0,1-.5-.4798C197.84987,277.37361,197.84987,277.3669,197.85,277.36016Zm-2,0a.5.5,0,0,1,.5-.5h0a.5.5,0,0,1,.5.5h0a.49.49,0,0,1-.4798.5q-.01009.00023-.0202,0h0a.49.49,0,0,1-.5-.4798C195.84987,277.37361,195.84987,277.3669,195.85,277.36016Zm-2,0a.5.5,0,0,1,.5-.5h0a.5.5,0,0,1,.5.5h0a.5.5,0,0,1-.5.5h0a.49.49,0,0,1-.5-.4798C193.84987,277.37361,193.84987,277.3669,193.85,277.36016Zm-2,0a.5.5,0,0,1,.5-.5h0a.5.5,0,0,1,.5.5h0a.5.5,0,0,1-.5.5h0a.49.49,0,0,1-.5-.4798C191.84987,277.37361,191.84987,277.3669,191.85,277.36016Zm-2,0a.5.5,0,0,1,.5-.5h0a.5.5,0,0,1,.5.5h0a.5.5,0,0,1-.5.5h0a.49.49,0,0,1-.5-.4798C189.84987,277.37361,189.84987,277.3669,189.85,277.36016Zm-2,0a.5.5,0,0,1,.5-.5h0a.5.5,0,0,1,.5.5h0a.49.49,0,0,1-.4798.5q-.01009.00023-.0202,0h0a.49.49,0,0,1-.5-.4798C187.84987,277.37361,187.84987,277.3669,187.85,277.36016Zm-2,0a.5.5,0,0,1,.5-.5h0a.5.5,0,0,1,.5.5h0a.49.49,0,0,1-.4798.5q-.01009.00023-.0202,0h0a.49.49,0,0,1-.5-.4798C185.84987,277.37361,185.84987,277.3669,185.85,277.36016Zm-2,0a.5.5,0,0,1,.5-.5h0a.5.5,0,0,1,.5.5h0a.49.49,0,0,1-.4798.5q-.01009.00023-.0202,0h0A.5.5,0,0,1,183.85,277.36016Zm-2,0a.5.5,0,0,1,.5-.5h0a.5.5,0,0,1,.5.5h0a.49.49,0,0,1-.4798.5q-.01009.00023-.0202,0h0A.5.5,0,0,1,181.85,277.36016Zm-2,0a.5.5,0,0,1,.5-.5h0a.5.5,0,0,1,.5.5h0a.49.49,0,0,1-.4798.5q-.01009.00023-.0202,0h0A.5.5,0,0,1,179.85,277.36016Zm-2,0a.5.5,0,0,1,.5-.5h0a.5.5,0,0,1,.5.5h0a.49.49,0,0,1-.4798.5q-.01009.00023-.0202,0h0A.5.5,0,0,1,177.85,277.36016Zm-2,0a.5.5,0,0,1,.5-.5h0a.5.5,0,0,1,.5.5h0a.49.49,0,0,1-.4798.5q-.01009.00023-.0202,0h0A.5.5,0,0,1,175.85,277.36016Zm-2,0a.5.5,0,0,1,.5-.5h0a.5.5,0,0,1,.5.5h0a.49.49,0,0,1-.4798.5q-.01009.00023-.0202,0h0A.5.5,0,0,1,173.85,277.36016Zm-2,0a.5.5,0,0,1,.5-.5h0a.5.5,0,0,1,.5.5h0a.49.49,0,0,1-.4798.5q-.01009.00023-.0202,0h0A.5.5,0,0,1,171.85,277.36016Zm-2,0a.5.5,0,0,1,.5-.5h0a.5.5,0,0,1,.5.5h0a.49.49,0,0,1-.4798.5q-.01009.00023-.0202,0h0A.5.5,0,0,1,169.85,277.36016Zm-2,0a.5.5,0,0,1,.5-.5h0a.5.5,0,0,1,.5.5h0a.49.49,0,0,1-.4798.5q-.01009.00023-.0202,0h0A.5.5,0,0,1,167.85,277.36016Zm-2,0a.5.5,0,0,1,.5-.5h0a.5.5,0,0,1,.5.5h0a.49.49,0,0,1-.4798.5q-.01009.00023-.0202,0h0A.5.5,0,0,1,165.85,277.36016Zm-2,0a.5.5,0,0,1,.5-.5h0a.5.5,0,0,1,.5.5h0a.49.49,0,0,1-.4798.5q-.01009.00023-.0202,0h0A.5.5,0,0,1,163.85,277.36016Zm-2,0a.5.5,0,0,1,.5-.5h0a.5.5,0,0,1,.5.5h0a.49.49,0,0,1-.4798.5q-.01009.00023-.0202,0h0A.5.5,0,0,1,161.85,277.36016Z"/><g id="Group-2" class="cls-7"><path id="Shape-64" class="cls-8" d="M92.22,34.57017H22.67a2.94,2.94,0,0,0-2.94,2.94v43.7a2.94,2.94,0,0,0,2.94,2.93H92.22a2.94,2.94,0,0,0,2.94-2.94h0v-43.69a2.94,2.94,0,0,0-2.94-2.94Zm2.16,40-8.71,8.8h-7.6l16.31-16.49Zm0-8.82-17.46,17.62h-7.6l25.06-25.3Zm0-8.82-26.15,26.44H60.67l33.71-34.12Zm0-8.82-34.85,35.26h-7.6l42.45-42.94Zm0-10.64v1.82l-43.54,44H43.11l47.35-48h1.76a2.16,2.16,0,0,1,2.16084,2.15917q0,.03041-.00084.06083h0Zm-12.71-2.12h7.7l-47.37,48H34.29Zm-48.44,48H25.47l47.35-48h7.73Zm-12.71-39.8,8.21-8.21h7.73l-15.94,16.17v-7.96Zm0,9.06,17-17.27h7.73l-24.73,25.11v-7.83h0Zm0,8.94,25.85-26.2H54.1l-33.57,34v-7.79h0Zm0,8.94,34.67-35.14h7.73l-42.39,43v-7.85h0Zm2.15-35.14h5l-7.11,7.11v-5a2.16,2.16,0,0,1,2.11-2.16h0Zm-2.15,45.86v-1.77l43.48-44.1h7.73l-47.35,48H22.67a2.16,2.16,0,0,1-2.15-2.13Zm71.69,2.16H86.67l7.66-7.67v5.51a2.16,2.16,0,0,1-2.11,2.16h-.01Z"/><path id="Shape-65" class="cls-8" d="M261.38,92.00017H191.84a2.94,2.94,0,0,0-2.94062,2.93938l.00061.06062v43.7a2.94,2.94,0,0,0,2.94,2.94h69.53a2.94,2.94,0,0,0,2.94-2.94h0v-43.76a2.94,2.94,0,0,0-2.93-2.94Zm2.16,40-8.76,8.81h-7.6l16.36-16.49Zm0-8.82-17.46,17.63h-7.6l25.06-25.3Zm0-8.82-26.15,26.45h-7.6l33.75-34.12Zm0-8.82-34.87,35.27h-7.6l42.47-43Zm0-10.64v1.82l-43.54,44h-7.73l47.35-48h1.76a2.16,2.16,0,0,1,2.16059,2.15942l-.00058.05058h0Zm-12.74-2.08h7.73l-47.35,48h-7.73Zm-48.44,48h-7.69l47.35-48h7.65Zm-12.69-39.82,8.22-8.17h7.78l-16,16.12v-7.95Zm0,9.06,17-17.23h7.73l-24.73,25.07v-7.84Zm0,8.94,25.86-26.17h7.73l-33.59,34v-7.83Zm0,8.94,34.68-35.11h7.73l-42.41,43Zm2.17-35.11h4.95l-7.12,7.07v-5a2.16,2.16,0,0,1,2.17-2.12h0Zm-2.17,45.82v-1.76l43.49-44.06h7.73l-47.35,48h-1.7a2.16,2.16,0,0,1-2.17007-2.14989q-.00007-.01506.00007-.0301h0Zm71.71,2.18h-5.5l7.66-7.67v5.51a2.16,2.16,0,0,1-2.16,2.16Z"/><path id="Shape-66" class="cls-9" d="M176.8,34.57017H107.26a2.94,2.94,0,0,0-2.94,2.94h0v43.7a2.94,2.94,0,0,0,2.94,2.94h69.53a2.94,2.94,0,0,0,2.94-2.94h0v-43.7a2.94,2.94,0,0,0-2.93-2.94h0Zm2.16,40-8.76,8.77h-7.6l16.4-16.49v7.72h-.04Zm0-8.82-17.46,17.62h-7.6l25.1-25.3v7.68Zm0-8.82-26.15,26.44h-7.6l33.79-34.12v7.68Zm0-8.82-34.85,35.26h-7.6l42.49-42.94v7.68Zm0-10.64v1.82l-43.54,44h-7.75l47.35-48h1.76a2.16,2.16,0,0,1,2.22,2.0983q.00171.06084,0,.1217h0Zm-12.74-2.16h7.73l-47.35,48h-7.73Zm-48.44,48h-7.73l47.35-48h7.73Zm-12.68-39.76,8.21-8.21H121l-15.9,16.17v-7.96Zm0,9.06,17-17.27h7.73l-24.76,25.1v-7.82h0Zm0,8.94,25.85-26.21h7.72l-33.57,34v-7.78h0Zm0,8.94,34.67-35.14h7.73l-42.39,43v-7.85h0Zm2.16-35.15h4.95l-7.11,7.11v-4.94a2.16,2.16,0,0,1,2.16-2.16h0Zm-2.16,45.86v-1.76l43.48-44.1h7.73l-47.31,48h-1.7a2.16,2.16,0,0,1-2.16-2.13h0Zm71.69,2.16h-5.5l7.66-7.67v5.51a2.16,2.16,0,0,1-2.14995,2.17h0Z"/><path id="Shape-67" class="cls-9" d="M346,92.00017H276.42a2.94,2.94,0,0,0-2.94061,2.93938l.00061.06062v43.7a2.94,2.94,0,0,0,2.94,2.94H346a2.94,2.94,0,0,0,2.94-2.94h0v-43.76a2.94,2.94,0,0,0-2.94-2.94Zm2.16,40-8.76,8.81h-7.6l16.36-16.49v7.68Zm0-8.82-17.45,17.63h-7.6l25.06-25.3v7.67Zm0-8.82-26.16,26.46h-7.6l33.75-34.12v7.67Zm0-8.82-34.85,35.27h-7.6l42.45-43Zm0-10.64v1.82l-43.54,44h-7.73l47.35-48H346a2.16,2.16,0,0,1,2.16058,2.15942l-.00058.05058h0Zm-12.74-2.09h7.73l-47.35,48H288Zm-48.44,48h-7.73l47.35-48h7.73Zm-12.72-39.81,8.21-8.19h7.73l-15.94,16.19Zm0,9.06,17-17.27H299l-24.76,25.1v-7.84h0Zm0,8.94,25.85-26.19h7.73l-33.57,34v-7.81Zm0,8.94,34.67-35.13h7.74l-42.39,43v-7.81Zm2.16-35.13h4.95l-7.11,7.11v-5a2.16,2.16,0,0,1,2.16-2.12h0Zm-2.16,45.86v-1.76l43.48-44.1h7.73l-47.35,48h-1.7a2.16,2.16,0,0,1-2.16009-2.1599l.00009-.02009h0Zm71.7,2.14h-5.5l7.66-7.67v5.51a2.16,2.16,0,0,1-2.16,2.16Z"/><path id="Shape-68" class="cls-10" d="M261.38,34.57017H191.84a2.94,2.94,0,0,0-2.94,2.94h0v43.7a2.94,2.94,0,0,0,2.94,2.94h69.53a2.94,2.94,0,0,0,2.94-2.94h0v-43.7a2.94,2.94,0,0,0-2.93-2.94Zm2.16,40-8.76,8.77h-7.6l16.36-16.49v7.72Zm0-8.82-17.46,17.62h-7.6l25.06-25.3Zm0-8.82-26.15,26.44h-7.6l33.75-34.12v7.68Zm0-8.82-34.87,35.26h-7.6l42.45-42.94v7.71Zm0-10.64v1.82l-43.54,44h-7.73l47.35-48h1.76a2.16,2.16,0,0,1,2.16083,2.15917q0,.03041-.00082.06083h0Zm-12.74-2.16h7.73l-47.35,48h-7.73Zm-48.44,48h-7.69l47.35-48h7.65Zm-12.69-39.76,8.21-8.21h7.79l-16,16.17v-7.96Zm0,9.06,17-17.27h7.73l-24.73,25.11v-7.83h0Zm0,8.94,25.85-26.21h7.73l-33.58,34.06v-7.84h0Zm0,8.94,34.66-35.15h7.73l-42.39,43v-7.84h0Zm2.16-35.15h4.95l-7.11,7.12v-5a2.16,2.16,0,0,1,2.16-2.16l.01,0h0Zm-2.16,45.87v-1.77l43.48-44.1h7.73l-47.35,48h-1.7a2.16,2.16,0,0,1-2.16-2.13h0Zm71.69,2.16h-5.5l7.66-7.67v5.51a2.16,2.16,0,0,1-2.14,2.16h-.02Z"/><path id="Shape-69" class="cls-10" d="M92.22,92.00017H22.67a2.94,2.94,0,0,0-2.94061,2.93938q0,.03032.00061.06062v43.7a2.94,2.94,0,0,0,2.94,2.93H92.22a2.94,2.94,0,0,0,2.94-2.94h0v-43.75a2.94,2.94,0,0,0-2.94-2.94Zm2.16,40-8.71,8.81h-7.6l16.31-16.5Zm0-8.82-17.46,17.64h-7.6l25.06-25.3v7.66Zm0-8.82-26.15,26.46H60.67l33.75-34.12v7.71Zm0-8.82-34.85,35.28h-7.6l42.45-43v7.72Zm0-10.64v1.82l-43.54,44.1H43.11l47.35-48h1.76a2.16,2.16,0,0,1,2.16,2.12h0Zm-12.71-2.08h7.7l-47.37,48H34.29Zm-48.47,48H25.47l47.35-48h7.73Zm-12.68-39.82,8.21-8.17h7.73l-15.94,16.11v-7.94Zm0,9.06,17-17.23h7.73l-24.76,25.1v-7.87Zm0,8.94,25.85-26.18H54.1l-33.58,34v-7.82Zm0,8.94,34.67-35.12h7.73l-42.4,43v-7.88Zm2.15-35.11h5l-7.11,7.11v-5a2.16,2.16,0,0,1,2.11-2.12h0Zm-2.16,45.86v-1.76L64,92.82017h7.73l-47.35,48H22.67a2.16,2.16,0,0,1-2.15007-2.16989l.00007-.01011h0Zm71.71,2.14H86.67l7.66-7.67v5.51a2.16,2.16,0,0,1-2.11,2.16Z"/><path id="Shape-70" class="cls-11" d="M346,34.57017H276.42a2.94,2.94,0,0,0-2.94,2.94h0v43.7a2.94,2.94,0,0,0,2.94,2.94H346a2.94,2.94,0,0,0,2.94-2.94h0v-43.7a2.94,2.94,0,0,0-2.94-2.94Zm2.16,40-8.76,8.77h-7.6l16.36-16.49v7.72h0Zm0-8.82-17.49,17.62h-7.6l25.06-25.3v7.68Zm0-8.82L322,83.37017h-7.6l33.75-34.12v7.68Zm0-8.82-34.89,35.26h-7.6l42.45-42.94v7.68Zm0-10.64v1.82l-43.54,44h-7.73l47.35-48H346a2.16,2.16,0,0,1,2.16083,2.15917q0,.03041-.00083.06083h0Zm-12.74-2.16h7.73l-47.35,48H288Zm-48.44,48h-7.73l47.35-48h7.73Zm-12.72-39.76,8.21-8.21h7.73l-15.94,16.17v-7.96Zm0,9.06,17-17.27H299l-24.76,25.1v-7.82h0Zm0,8.94,25.85-26.21h7.73l-33.57,34v-7.78h0Zm0,8.94,34.66-35.15h7.75l-42.39,43v-7.84h0Zm2.16-35.15h4.95l-7.11,7.11v-4.94a2.16,2.16,0,0,1,2.16-2.16h0Zm-2.16,45.86v-1.76l43.48-44.1h7.73l-47.35,48h-1.7a2.16,2.16,0,0,1-2.16-2.13h0Zm71.74,2.16h-5.5l7.66-7.67v5.51a2.16,2.16,0,0,1-2.15,2.17l-.01,0h0Z"/><path id="Shape-71" class="cls-11" d="M176.8,92.00017H107.26a2.94,2.94,0,0,0-2.94061,2.93938q0,.03032.00061.06062v43.7a2.94,2.94,0,0,0,2.94,2.94h69.53a2.94,2.94,0,0,0,2.94-2.94h0v-43.76a2.94,2.94,0,0,0-2.93-2.94Zm2.2,40-8.76,8.81h-7.6l16.36-16.48Zm0-8.82-17.5,17.64h-7.6l25.1-25.3v7.66Zm0-8.82-26.15,26.45h-7.6l33.75-34.11v7.66Zm0-8.82-34.85,35.27h-7.6l42.45-43v7.73Zm0-10.64v1.82l-43.54,44h-7.75l47.35-48h1.76a2.16,2.16,0,0,1,2.18074,2.139q.00039.04049-.00073.081h0Zm-12.74-2.09h7.73l-47.35,48h-7.73Zm-48.44,48h-7.73l47.35-48h7.73Zm-12.72-39.81,8.21-8.19H121l-15.9,16.19Zm0,9.06,17-17.27h7.73l-24.76,25.1v-7.84h0Zm0,8.94,25.85-26.19h7.72l-33.57,34Zm0,8.94,34.67-35.13h7.73l-42.39,43v-7.87Zm2.16-35.13h4.95l-7.11,7.11v-5a2.16,2.16,0,0,1,2.16-2.12h0Zm-2.16,45.86v-1.76l43.48-44.1h7.73l-47.35,48h-1.7a2.16,2.16,0,0,1-2.16009-2.1599l.00009-.02009h0Zm71.7,2.14h-5.5l7.66-7.67v5.51a2.16,2.16,0,0,1-2.16,2.16Z"/></g><rect id="Rectangle-path-4" class="cls-12" x="20.14" y="34.96017" width="74.63" height="48.8" rx="2.55"/><rect id="Rectangle-path-5" class="cls-13" x="104.72" y="34.96017" width="74.63" height="48.8" rx="2.55"/><path id="Rectangle-path-6" class="cls-14" d="M191.85,34.96017h69.53a2.55,2.55,0,0,1,2.55,2.55v43.7a2.55,2.55,0,0,1-2.55,2.55H191.85a2.55,2.55,0,0,1-2.55-2.55v-43.7A2.55,2.55,0,0,1,191.85,34.96017Z"/><path id="Rectangle-path-7" class="cls-15" d="M276.43,34.96017h69.53a2.55,2.55,0,0,1,2.55,2.55v43.7a2.55,2.55,0,0,1-2.55,2.55H276.43a2.55,2.55,0,0,1-2.55-2.55v-43.7A2.55,2.55,0,0,1,276.43,34.96017Z"/><rect id="Rectangle-path-8" class="cls-14" x="20.14" y="92.44017" width="74.63" height="48.8" rx="2.55"/><rect id="Rectangle-path-9" class="cls-16" x="104.72" y="92.41017" width="74.63" height="48.8" rx="2.55"/><path id="Rectangle-path-10" class="cls-17" d="M191.85,92.86017h69.53a2.55,2.55,0,0,1,2.55,2.55v43.7a2.55,2.55,0,0,1-2.55,2.55H191.85a2.55,2.55,0,0,1-2.55-2.55v-43.7A2.55,2.55,0,0,1,191.85,92.86017Z"/><path id="Rectangle-path-11" class="cls-18" d="M276.43,92.86017h69.53a2.55,2.55,0,0,1,2.55,2.55v43.7a2.55,2.55,0,0,1-2.55,2.55H276.43a2.55,2.55,0,0,1-2.55-2.55v-43.7A2.55,2.55,0,0,1,276.43,92.86017Z"/></g></g></g></g><g id="Layer_52" data-name="Layer 52"><g id="Group" class="cls-19"><path id="Rectangle-path-3" class="cls-2" d="M31.83,259.69016h88.75a2.55,2.55,0,0,1,2.55,2.55v56.26a2.55,2.55,0,0,1-2.55,2.55H31.83a2.55,2.55,0,0,1-2.55-2.55v-56.26A2.55,2.55,0,0,1,31.83,259.69016Z"/></g><path id="Shape-29" class="cls-2" d="M120.58,260.44017a1.8,1.8,0,0,1,1.8,1.8v56.27a1.8,1.8,0,0,1-1.8,1.8H31.82a1.8,1.8,0,0,1-1.8-1.8v-56.27a1.8,1.8,0,0,1,1.8-1.8h88.76Zm0-.75H31.82a2.55,2.55,0,0,0-2.55,2.55v56.27a2.55,2.55,0,0,0,2.55,2.55h88.76a2.55,2.55,0,0,0,2.55-2.55v-56.27a2.55,2.55,0,0,0-2.55-2.55h0Z"/><path class="cls-20" d="M35.71986,298.50232c.32751-.49785.60645-1.02436.904-1.53973q2.17823-3.77275,4.34893-7.54986c.74469-1.29321,1.49336-2.58415,2.23179-3.88092a2.42363,2.42363,0,0,1,.62476-.61428q2.66226-2.24466,5.33526-4.47656,1.42257-1.19288,2.8438-2.38733c.05585-.04682.119-.085.17872-.12723a2.21677,2.21677,0,0,1-.27234.664c-.75144,1.62825-1.51255,3.252-2.26975,4.87762q-1.73337,3.72125-3.46574,7.443-1.14006,2.44747-2.28182,4.89415c-.396.849-.79649,1.6959-1.18571,2.548a.34736.34736,0,0,1-.36567.23518q-3.31308-.00977-6.62622-.00562Z"/><path class="cls-20" d="M42.751,301.07437q1.13376-.20205,2.26757-.40392,3.23052-.57078,6.46125-1.14041,2.4599-.435,4.91913-.87367c.07742-.01378.19475-.00182.21851-.06695.02945-.08077-.072-.14617-.12588-.21043q-2.06874-2.4685-4.13982-4.93506c-.92415-1.1019-1.84506-2.20652-2.77312-3.30512a.37405.37405,0,0,1-.0743-.41833q1.38375-3.80036,2.7589-7.60385.42423-1.16989.85287-2.33817c.02417-.06583.02165-.17264.10059-.18041.07835-.00771.10036.09594.13563.15669q1.47651,2.54307,2.94924,5.08832,3.69291,6.39723,7.38226,12.7965.94788,1.643,1.89691,3.2854c.09751.169.08538.18979-.10362.19491-.04681.00128-.09368.00029-.14053.00029H42.75347Z"/><path class="cls-21" d="M77.71046,288.91963H76.46072v-4.83207q0-.59413.07416-1.45307H76.514a5.07328,5.07328,0,0,1-.20657.70333l-2.26627,5.58181h-.86846l-2.27175-5.54a5.1386,5.1386,0,0,1-.20109-.74451h-.0209q.04274.448.04243,1.463v4.82149H69.55625v-7.4668h1.77387l1.99637,4.97281a7.24951,7.24951,0,0,1,.29629.85389h.02638q.196-.58853.31769-.87505l2.03357-4.95165h1.71041l-.0005,7.4668Zm2.34591-6.45164a.74418.74418,0,0,1-.51617-.1925.629.629,0,0,1-.21453-.48954.64567.64567,0,0,1,.21453-.49489.73575.73575,0,0,1,.51617-.19786.75913.75913,0,0,1,.52961.19786.64219.64219,0,0,1,.21727.49489.63363.63363,0,0,1-.21727.48157A.75231.75231,0,0,1,80.05637,282.468Zm.60863,6.45164H79.43691v-5.33219h1.22821v5.33219Zm5.49146-.24477a3.07094,3.07094,0,0,1-1.541.36958,2.6346,2.6346,0,0,1-1.94871-.74178,2.6044,2.6044,0,0,1-.7414-1.92406,2.74578,2.74578,0,0,1,2.92828-2.91609,3.15116,3.15116,0,0,1,1.30773.25547v1.12455a2.00441,2.00441,0,0,0-1.20706-.41662,1.69239,1.69239,0,0,0-1.276.51816,1.87606,1.87606,0,0,0-.498,1.35626,1.7881,1.7881,0,0,0,.46838,1.307,1.67876,1.67876,0,0,0,1.2577.47909,1.98484,1.98484,0,0,0,1.24949-.46316Zm4.36817-3.93649a1.0304,1.0304,0,0,0-.64086-.17172,1.10142,1.10142,0,0,0-.91089.48419,2.1377,2.1377,0,0,0-.3656,1.31718v2.55161h-1.2287v-5.33219h1.2287v1.09867h.02091a1.8519,1.8519,0,0,1,.55325-.87729,1.26239,1.26239,0,0,1,.834-.31508,1.05618,1.05618,0,0,1,.5087.09893l.0005,1.1457Zm3.28306,4.30607a2.71413,2.71413,0,0,1-2.00446-.74713,2.67381,2.67381,0,0,1-.74949-1.98106,2.7813,2.7813,0,0,1,.78122-2.09865,2.90052,2.90052,0,0,1,2.105-.75509,2.625,2.625,0,0,1,1.98031.73443,2.80639,2.80639,0,0,1,.7093,2.03569,2.63961,2.63961,0,0,1-2.82189,2.81181Zm.05811-4.61853a1.41274,1.41274,0,0,0-1.13824.49439,2.04672,2.04672,0,0,0-.41836,1.3641,1.92905,1.92905,0,0,0,.42371,1.31979,1.43437,1.43437,0,0,0,1.13339.48158,1.36014,1.36014,0,0,0,1.11472-.47361,2.07628,2.07628,0,0,0,.38924-1.34892,2.10276,2.10276,0,0,0-.38924-1.35886,1.35571,1.35571,0,0,0-1.11522-.47847Zm3.68051,4.32722v-1.11932a2.47777,2.47777,0,0,0,1.5194.51542q1.11248,0,1.112-.64559a.50365.50365,0,0,0-.09507-.30985.89151.89151,0,0,0-.25709-.22623,2.09329,2.09329,0,0,0-.38116-.17707q-.22025-.07858-.48991-.1772a5.205,5.205,0,0,1-.601-.276,1.81185,1.81185,0,0,1-.44474-.33038,1.23665,1.23665,0,0,1-.26717-.41936,1.51445,1.51445,0,0,1-.08984-.54666,1.24705,1.24705,0,0,1,.18541-.67943,1.59372,1.59372,0,0,1,.4975-.49439,2.40471,2.40471,0,0,1,.70967-.30189,3.29815,3.29815,0,0,1,.82055-.10154,3.79172,3.79172,0,0,1,1.34481.22361v1.057a2.2941,2.2941,0,0,0-1.31308-.38551,1.7742,1.7742,0,0,0-.421.04654,1.09874,1.09874,0,0,0-.32055.13016.646.646,0,0,0-.20645.20035.472.472,0,0,0-.07416.25759.5446.5446,0,0,0,.07416.29181.66929.66929,0,0,0,.21988.21092,1.883,1.883,0,0,0,.34955.1665c.136.05027.29193.10527.46889.164a6.8805,6.8805,0,0,1,.62741.28658,2.11945,2.11945,0,0,1,.47424.33038,1.28926,1.28926,0,0,1,.30164.4272,1.42894,1.42894,0,0,1,.106.57528,1.29605,1.29605,0,0,1-.19089.70806,1.57409,1.57409,0,0,1-.50808.49962,2.39336,2.39336,0,0,1-.73344.29392,3.85507,3.85507,0,0,1-.87642.09631,3.73518,3.73518,0,0,1-1.541-.29081Zm7.42388.29131a2.71382,2.71382,0,0,1-2.00458-.74713,2.67345,2.67345,0,0,1-.749-1.98106,2.78137,2.78137,0,0,1,.78135-2.09865,2.89907,2.89907,0,0,1,2.1045-.75509,2.62514,2.62514,0,0,1,1.98032.73443,2.80711,2.80711,0,0,1,.70967,2.03569,2.63949,2.63949,0,0,1-2.82227,2.81181Zm.05811-4.61853a1.41451,1.41451,0,0,0-1.13886.49439,2.04672,2.04672,0,0,0-.41836,1.3641,1.9297,1.9297,0,0,0,.42371,1.31979,1.43462,1.43462,0,0,0,1.13351.48158,1.36155,1.36155,0,0,0,1.1146-.47361,2.07272,2.07272,0,0,0,.38924-1.34892,2.10276,2.10276,0,0,0-.38924-1.35886,1.35527,1.35527,0,0,0-1.1146-.47847Zm7.085-2.41585a1.13228,1.13228,0,0,0-.56669-.14061q-.89521,0-.89471.99451v.72386h1.26031v.9476h-1.255v4.38421H109.4287v-4.38421h-.92645v-.9476h.92645v-.86448a1.66925,1.66925,0,0,1,.56134-1.33024,2.0645,2.0645,0,0,1,1.40341-.48706,2.11042,2.11042,0,0,1,.71988.09893v1.00509Zm3.54239,6.85245a2.1602,2.1602,0,0,1-.948.1772q-1.57764,0-1.57764-1.4889v-3.0149h-.90541v-.94747h.90541v-1.23418l1.22871-.34358v1.57776h1.29739v.94747h-1.29739v2.66572a1.03626,1.03626,0,0,0,.17471.67682.73264.73264,0,0,0,.58237.20309.85066.85066,0,0,0,.53982-.1772v.95817ZM76.64057,300.78722H75.25868l-.68292-1.9008H71.58949l-.65654,1.9008h-1.377l2.8433-7.4668h1.419l2.82226,7.4668Zm-2.39868-2.91061-1.05337-2.97844a3.43142,3.43142,0,0,1-.10055-.46851h-.02091a2.98777,2.98777,0,0,1-.106.46851l-1.043,2.97844h2.32389Zm7.3125-1.91623-2.92816,3.88409h2.91746v.94275H76.905v-.45308l2.99175-3.93649H77.19108v-.94274H81.5544v.50547Zm5.76623,4.82684H86.09253v-.84382h-.02091a1.77262,1.77262,0,0,1-1.66249.96863q-1.9222,0-1.92233-2.27038v-3.18674h1.22858v3.06193q0,1.43727,1.12816,1.43714a1.14812,1.14812,0,0,0,.89732-.39547,1.4996,1.4996,0,0,0,.35217-1.03632v-3.06728h1.2287Zm4.74993-4.18126a1.03014,1.03014,0,0,0-.64086-.17172,1.10159,1.10159,0,0,0-.91089.48419,2.13855,2.13855,0,0,0-.3656,1.31718v2.55161H88.925V295.455h1.2282v1.09867h.02091a1.85205,1.85205,0,0,1,.55325-.87729,1.26261,1.26261,0,0,1,.834-.31508,1.05317,1.05317,0,0,1,.50809.09893l.00124,1.1457Zm5.46995,1.84319H93.8443a1.52232,1.52232,0,0,0,.46341,1.14048,1.74273,1.74273,0,0,0,1.21526.40081,2.71083,2.71083,0,0,0,1.59369-.5102v.97336a3.68882,3.68882,0,0,1-1.95928.45843,2.44664,2.44664,0,0,1-1.87716-.72647A2.87351,2.87351,0,0,1,92.6,298.142a2.81188,2.81188,0,0,1,.74961-2.02834,2.4709,2.4709,0,0,1,1.86148-.78359,2.1543,2.1543,0,0,1,1.72061.7027,2.88571,2.88571,0,0,1,.60913,1.95269l-.0005.46366Zm-1.18615-.8539a1.54737,1.54737,0,0,0-.31234-1.01256,1.05274,1.05274,0,0,0-.84743-.36161,1.20231,1.20231,0,0,0-.89744.38016,1.72409,1.72409,0,0,0-.45271.99451h2.50992Z"/><g id="Group-2-2" data-name="Group" class="cls-19"><path id="Rectangle-path-3-2" data-name="Rectangle-path-3" class="cls-2" d="M242.83,259.69016h88.75a2.55,2.55,0,0,1,2.55,2.55v56.26a2.55,2.55,0,0,1-2.55,2.55H242.83a2.55,2.55,0,0,1-2.55-2.55v-56.26A2.55,2.55,0,0,1,242.83,259.69016Z"/></g><path id="Shape-29-2" data-name="Shape-29" class="cls-2" d="M331.58,260.44017a1.8,1.8,0,0,1,1.8,1.8v56.27a1.8,1.8,0,0,1-1.8,1.8H242.82a1.8,1.8,0,0,1-1.8-1.8v-56.27a1.8,1.8,0,0,1,1.8-1.8h88.76Zm0-.75H242.82a2.55,2.55,0,0,0-2.55,2.55v56.27a2.55,2.55,0,0,0,2.55,2.55h88.76a2.55,2.55,0,0,0,2.55-2.55v-56.27a2.55,2.55,0,0,0-2.55-2.55h0Z"/></g><text class="cls-22" transform="translate(226.42746 123.75041)">de</text><text class="cls-22" transform="translate(200.46701 123.75041)">no</text><text class="cls-23" transform="translate(97.37057 214.20994)">AP<tspan class="cls-24" x="41.77441" y="0">P</tspan><tspan class="cls-25" x="60.28125" y="0" xml:space="preserve">     DE</tspan><tspan class="cls-26" x="147.83398" y="0">V</tspan></text><path class="cls-1" d="M178.82506,190.17377a2.21814,2.21814,0,0,0-2.21814-2.21814H168.9062a2.21815,2.21815,0,0,0-2.21814,2.21814v7.70072a2.21814,2.21814,0,0,0,2.21814,2.21814h7.70072a2.21813,2.21813,0,0,0,2.21814-2.21814Zm-10.88145.051a1.11943,1.11943,0,0,1,.99932-1.01359h7.78442a.98234.98234,0,0,1,.84216,1.01359v7.78442a.8106.8106,0,0,1-.84216.82789h-7.78442a.95232.95232,0,0,1-.99932-.82789Zm13.09447,3.17158H190.371l-3.18073-3.15523a.6925.6925,0,0,1,0-.94984.66947.66947,0,0,1,.96259.00638l4.31073,4.31391a.71071.71071,0,0,1,0,.96418l-4.31073,4.35338a.61084.61084,0,0,1-.92074.0006.79759.79759,0,0,1,0-1.02984l3.18074-3.248h-9.37479a.62909.62909,0,1,1,0-1.25556Zm11.59805,19.09354v-7.78442a2.104,2.104,0,0,0-2.18141-2.10174h-7.74257a2.13112,2.13112,0,0,0-2.213,2.10174v7.78442a2.25685,2.25685,0,0,0,2.213,2.25085h7.78442A2.22283,2.22283,0,0,0,192.63613,212.48989Zm-10.88145,0v-7.78442a.9293.9293,0,0,1,.95747-.84618h7.78442a.86051.86051,0,0,1,.884.84618v7.78442a.99482.99482,0,0,1-.884.99529h-7.78442A1.06112,1.06112,0,0,1,181.75468,212.48989Zm-14.82063-4.39443,4.31072-4.31073a.70868.70868,0,0,1,.96259,0,.78527.78527,0,0,1,0,1.02079l-3.18073,3.23894h9.33294a.62908.62908,0,1,1,0,1.25555h-9.33294l3.18073,3.16438a.69827.69827,0,0,1,0,.95441.66732.66732,0,0,1-.46037.20517.67448.67448,0,0,1-.46036-.2113l-4.35258-4.3536A.63773.63773,0,0,1,166.93405,208.09546Z"/><g id="Oval-3-Copy-13-_-Oval-3-Copy-14" data-name="Oval-3-Copy-13-+-Oval-3-Copy-14"><g id="Oval-3-Copy-13"><path class="cls-1" d="M312.98417,293.00527a2.51987,2.51987,0,1,1,0-5.03847,1.585,1.585,0,0,1,.5153.05726v-.28628a3.06709,3.06709,0,0,1,3.09179-3.03454,2.94013,2.94013,0,0,1,1.43139.34354,5.36587,5.36587,0,0,1,4.58044-2.63376,5.13507,5.13507,0,0,1,5.21024,4.6377,3.37909,3.37909,0,0,1,.80158-.11451,3.00994,3.00994,0,0,1,.28628,6.01182h0l-15.917.05724Z"/><path class="cls-27" d="M328.95844,293.29155h-15.917a2.81268,2.81268,0,1,1,.229-5.611,3.36215,3.36215,0,0,1,3.37807-3.26356,3.39632,3.39632,0,0,1,1.31688.28628,5.68311,5.68311,0,0,1,4.695-2.51924,5.54421,5.54421,0,0,1,5.49652,4.58044,1.765,1.765,0,0,1,.57256-.05726,3.37261,3.37261,0,0,1,3.37807,3.32082,3.32735,3.32735,0,0,1-2.92,3.26356h-.229Zm-15.97427-5.03847a2.24858,2.24858,0,0,0-2.29022,2.233,2.28574,2.28574,0,0,0,2.29022,2.233h15.917a2.72222,2.72222,0,0,0-.229-5.43927,3.35133,3.35133,0,0,0-.74433.11451l-.34353.05725-.05725-.34353a4.95389,4.95389,0,0,0-4.924-4.35142,5.04323,5.04323,0,0,0-4.35142,2.462l-.11451.229-.229-.1145a2.65968,2.65968,0,0,0-1.31688-.34354,2.76166,2.76166,0,0,0-2.80551,2.74826v.28628l.05725.40079-.40079-.05726A1.07883,1.07883,0,0,0,312.98417,288.25308Z"/></g></g><g id="Oval-3-Copy-13-_-Oval-3-Copy-14-Copy" data-name="Oval-3-Copy-13-+-Oval-3-Copy-14-Copy"><g id="Oval-3-Copy-13-2" data-name="Oval-3-Copy-13"><path class="cls-1" d="M317.79362,295.29549a1.58908,1.58908,0,0,1-1.60315-1.54589,1.553,1.553,0,0,1,1.60315-1.5459.72617.72617,0,0,1,.34354.05726v-.17177a1.9062,1.9062,0,0,1,1.88943-1.88943,1.68011,1.68011,0,0,1,.91608.229,3.31741,3.31741,0,0,1,6.12634,1.25962,1.585,1.585,0,0,1,.5153-.05726,1.9062,1.9062,0,0,1,1.88943,1.88943,1.83245,1.83245,0,0,1-1.77492,1.83217h0l-9.9052-.05725Z"/><path class="cls-27" d="M327.64157,295.58177h-9.9052a1.833,1.833,0,1,1,0-3.66435h.05726a2.14279,2.14279,0,0,1,2.17571-2.00394,2.02073,2.02073,0,0,1,.80158.17177,3.60159,3.60159,0,0,1,6.46986,1.25962h.229a2.17474,2.17474,0,0,1,2.17571,2.17571,2.04026,2.04026,0,0,1-1.71766,2.0612Zm-9.848-3.09179a1.26086,1.26086,0,1,0,0,2.51923h9.9052a1.56513,1.56513,0,0,0,1.48864-1.54589,1.63844,1.63844,0,0,0-1.60315-1.60316.9743.9743,0,0,0-.40079.05726l-.34353.05726-.05726-.34353a2.99467,2.99467,0,0,0-5.55377-1.08785l-.11451.229-.229-.11451a1.7632,1.7632,0,0,0-.74432-.17176,1.56545,1.56545,0,0,0-1.60315,1.60315v.17177l.05725.40079-.40079-.05726A.989.989,0,0,0,317.79362,292.49Z"/></g></g><g id="Rectangle-224-_-APP-Copy" data-name="Rectangle-224-+-APP-Copy"><g id="Rectangle-224"><path class="cls-1" d="M279.48972,278.46239H293.231a2.297,2.297,0,0,1,2.29022,2.29022v7.44321A2.297,2.297,0,0,1,293.231,290.486H279.48972a2.297,2.297,0,0,1-2.29022-2.29022v-7.44321A2.33488,2.33488,0,0,1,279.48972,278.46239Z"/><path class="cls-28" d="M293.231,290.77231H279.48972a2.56578,2.56578,0,0,1-2.5765-2.57649v-7.44321a2.56579,2.56579,0,0,1,2.5765-2.5765H293.231a2.56579,2.56579,0,0,1,2.5765,2.5765v7.44321A2.56578,2.56578,0,0,1,293.231,290.77231Zm-13.74131-12.02364a2.02864,2.02864,0,0,0-2.00394,2.00394v7.44321a2.02864,2.02864,0,0,0,2.00394,2.00394H293.231a2.02863,2.02863,0,0,0,2.00394-2.00394v-7.44321a2.02863,2.02863,0,0,0-2.00394-2.00394Z"/></g><g id="APP"><path class="cls-28" d="M283.15407,285.21854l-.229-.68707c-.05725-.229-.17176-.51529-.229-.74432s-.17177-.5153-.229-.74432h0a2.835,2.835,0,0,1-.229.74432,3.70314,3.70314,0,0,0-.229.74432l-.229.68707Zm.17177.458h-1.66041l-.45805,1.37413h-.57255l1.54589-4.52318h.62981l1.5459,4.52318h-.62981Zm1.6604-3.149h1.37414a2.78731,2.78731,0,0,1,.68706.05726,1.079,1.079,0,0,1,.5153.229,1.1655,1.1655,0,0,1,.34353.40078,1.78927,1.78927,0,0,1,0,1.25963.89038.89038,0,0,1-.34353.45805,1.02881,1.02881,0,0,1-.5153.229,2.46043,2.46043,0,0,1-.68706.11451h-.80158v1.77493h-.57256Zm1.37414,2.29022a1.18852,1.18852,0,0,0,.85883-.229.94817.94817,0,0,0,.28628-.68706.78083.78083,0,0,0-.28628-.68707,1.60912,1.60912,0,0,0-.85883-.17177H285.616v1.77493Zm2.57649-2.29022H290.311a2.78735,2.78735,0,0,1,.68707.05726,1.079,1.079,0,0,1,.5153.229,1.16561,1.16561,0,0,1,.34353.40078,1.78927,1.78927,0,0,1,0,1.25963.89044.89044,0,0,1-.34353.45805,1.02881,1.02881,0,0,1-.5153.229,2.87359,2.87359,0,0,1-.68707.11451h-.80157v1.77493h-.57256Zm1.37413,2.29022a1.18849,1.18849,0,0,0,.85883-.229.94817.94817,0,0,0,.28628-.68706.78083.78083,0,0,0-.28628-.68707,1.60907,1.60907,0,0,0-.85883-.17177h-.74432v1.77493Z"/></g></g><g id="Rectangle-224-_-APP-Copy-2" data-name="Rectangle-224-+-APP-Copy-2"><g id="Rectangle-224-2" data-name="Rectangle-224"><path class="cls-1" d="M279.48972,292.77625H293.231a2.297,2.297,0,0,1,2.29022,2.29022v7.44321a2.297,2.297,0,0,1-2.29022,2.29022H279.48972a2.297,2.297,0,0,1-2.29022-2.29022v-7.44321A2.33489,2.33489,0,0,1,279.48972,292.77625Z"/><path class="cls-28" d="M293.231,305.08618H279.48972a2.56579,2.56579,0,0,1-2.5765-2.5765v-7.44321a2.56578,2.56578,0,0,1,2.5765-2.57649H293.231a2.56578,2.56578,0,0,1,2.5765,2.57649v7.44321A2.56579,2.56579,0,0,1,293.231,305.08618Zm-13.74131-12.02365a2.02864,2.02864,0,0,0-2.00394,2.00394v7.44321a2.02865,2.02865,0,0,0,2.00394,2.00395H293.231a2.02864,2.02864,0,0,0,2.00394-2.00395v-7.44321a2.02863,2.02863,0,0,0-2.00394-2.00394Z"/></g><g id="APP-2" data-name="APP"><path class="cls-28" d="M283.15407,299.5324l-.229-.68706c-.05725-.229-.17176-.5153-.229-.74432s-.17177-.5153-.229-.74433h0a2.83494,2.83494,0,0,1-.229.74433,3.70294,3.70294,0,0,0-.229.74432l-.229.68706Zm.17177.45805h-1.66041l-.45805,1.37412h-.57255l1.54589-4.52317h.62981l1.5459,4.52317h-.62981Zm1.6604-3.149h1.37414a2.78731,2.78731,0,0,1,.68706.05726,1.07887,1.07887,0,0,1,.5153.229,1.16544,1.16544,0,0,1,.34353.40079,1.78927,1.78927,0,0,1,0,1.25963.89036.89036,0,0,1-.34353.458,1.02883,1.02883,0,0,1-.5153.229,2.46043,2.46043,0,0,1-.68706.11451h-.80158v1.77492h-.57256Zm1.37414,2.29022a1.18852,1.18852,0,0,0,.85883-.229.94817.94817,0,0,0,.28628-.68707.78082.78082,0,0,0-.28628-.68706,1.60912,1.60912,0,0,0-.85883-.17177H285.616v1.77492Zm2.57649-2.29022H290.311a2.78735,2.78735,0,0,1,.68707.05726,1.07887,1.07887,0,0,1,.5153.229,1.16555,1.16555,0,0,1,.34353.40079,1.78927,1.78927,0,0,1,0,1.25963.89041.89041,0,0,1-.34353.458,1.02883,1.02883,0,0,1-.5153.229,2.87359,2.87359,0,0,1-.68707.11451h-.80157v1.77492h-.57256Zm1.37413,2.29022a1.18849,1.18849,0,0,0,.85883-.229.94817.94817,0,0,0,.28628-.68707.78082.78082,0,0,0-.28628-.68706,1.60907,1.60907,0,0,0-.85883-.17177h-.74432v1.77492Z"/></g></g><polygon class="cls-29" points="274.05 278.462 274.05 289.971 265.29 289.971 267.695 287.566 267.294 287.108 264.145 290.257 267.294 293.349 267.695 292.948 265.29 290.543 274.05 290.543 274.05 304.857 274.623 304.857 274.623 278.462 274.05 278.462"/><rect class="cls-1" x="243.41878" y="280.75261" width="18.8943" height="18.8943"/><path class="cls-27" d="M243.1325,280.46633v19.46686h19.46686V280.46633Zm18.8943.57255v5.55378H243.70505v-5.55378Zm0,6.12634v6.06908H243.70505v-6.06908Zm-18.32175,12.19541v-5.55377H262.0268v5.55377Z"/><g id="Oval-7-2" data-name="Oval-7"><path class="cls-27" d="M259.45031,284.81775a1.20939,1.20939,0,0,1-1.20237-1.20237,1.23133,1.23133,0,1,1,2.462,0A1.22262,1.22262,0,0,1,259.45031,284.81775Zm0-1.88943a.64981.64981,0,0,0-.62981.68706.60073.60073,0,0,0,.62981.62981.68747.68747,0,0,0,.68706-.62981A.6962.6962,0,0,0,259.45031,282.92832Z"/></g><g id="Oval-7-Copy"><path class="cls-27" d="M259.45031,291.40213a1.20939,1.20939,0,0,1-1.20237-1.20237,1.24909,1.24909,0,0,1,1.20237-1.20237,1.302,1.302,0,0,1,1.25962,1.20237A1.2607,1.2607,0,0,1,259.45031,291.40213Zm0-1.83218a.62981.62981,0,1,0,0,1.25962.68747.68747,0,0,0,.68706-.62981A.64981.64981,0,0,0,259.45031,289.57Z"/></g><g id="Oval-7-Copy-2"><path class="cls-27" d="M259.45031,298.04376a1.22261,1.22261,0,0,1-1.20237-1.25962,1.20939,1.20939,0,0,1,1.20237-1.20237,1.23133,1.23133,0,1,1,0,2.462Zm0-1.88944a.63541.63541,0,0,0-.62981.62982.68748.68748,0,0,0,.62981.68706.69621.69621,0,0,0,.68706-.68706A.64982.64982,0,0,0,259.45031,296.15432Z"/></g><polygon class="cls-29" points="298.728 278.462 298.728 289.971 307.488 289.971 305.026 287.566 305.484 287.108 308.633 290.257 305.484 293.349 305.083 292.948 307.488 290.543 298.728 290.543 298.728 304.857 298.155 304.857 298.155 278.462 298.728 278.462"/></g></g></svg>