<svg xmlns="http://www.w3.org/2000/svg" viewBox="0 0 369.34999 355.63018"><defs><style>.cls-1,.cls-4{fill:#fff;}.cls-2{fill:#449fd8;}.cls-14,.cls-15,.cls-16,.cls-17,.cls-18,.cls-19,.cls-20,.cls-3,.cls-8{fill:none;}.cls-3,.cls-4{stroke:#449fd8;}.cls-3,.cls-4,.cls-8{stroke-width:0.78px;}.cls-4{opacity:0.1;isolation:isolate;}.cls-5{opacity:0.2;}.cls-6{fill:#f8991d;}.cls-7{fill:#49ba89;}.cls-8{stroke:#49ba89;}.cls-9{opacity:0.52;}.cls-10{fill:#63c1e3;}.cls-11{fill:#d64456;}.cls-12{fill:#f9a65a;}.cls-13{fill:#99b945;}.cls-14{stroke:#63c1e3;}.cls-14,.cls-15,.cls-16,.cls-17,.cls-18,.cls-19,.cls-20{stroke-width:0.75px;}.cls-15{stroke:#d74557;}.cls-16{stroke:#f9a65a;}.cls-17{stroke:#99b945;}.cls-18{stroke:#9bba44;}.cls-19{stroke:#64c2e5;}.cls-20{stroke:#d64456;}.cls-21{opacity:0.2;}.cls-22{fill:#0dadea;}.cls-23{fill:#00adef;}.cls-24{fill:#09f;}</style></defs><title>Asset 215</title><g id="Layer_2" data-name="Layer 2"><g id="Layer_50" data-name="Layer 50"><g id="Page-1"><g id="Expanded"><g id="apps_and_infrastructure" data-name="apps and infrastructure"><g id="Layer_1-2" data-name="Layer 1-2"><path id="Shape" class="cls-1" d="M146.67,21.12017h-4l-1.07,3.4h-1.45l3.77-11.15h1.6l3.77,11.15h-1.51Zm-.36-1.12-.53-1.7q-.31-.93-.58-1.86t-.53-1.89h0q-.25,1-.53,1.9l-.58,1.86-.56,1.69h3.31Z"/><path id="Shape-2" class="cls-1" d="M152.12,25.22017v2.78h-1.39v-11.74h1.16l.12,1h.05a6.28984,6.28984,0,0,1,1.23-.82,3.07,3.07,0,0,1,1.4-.34,3.20012,3.20012,0,0,1,1.41.3,2.75978,2.75978,0,0,1,1,.85,4,4,0,0,1,.62,1.33,6.57991,6.57991,0,0,1,.21,1.74,5.66978,5.66978,0,0,1-.29,1.88,4.36015,4.36015,0,0,1-.78,1.4,3.32,3.32,0,0,1-1.14.88,3.22,3.22,0,0,1-1.36.3,2.79,2.79,0,0,1-1.15-.25,5.77035,5.77035,0,0,1-1.15-.7Zm0-2.53a3.71986,3.71986,0,0,0,1.09.67,2.7501,2.7501,0,0,0,.93.2,2,2,0,0,0,.94-.23,2.25021,2.25021,0,0,0,.75-.65,3.14992,3.14992,0,0,0,.49-1,4.90977,4.90977,0,0,0,.18-1.38,5.99886,5.99886,0,0,0-.12-1.24,2.77983,2.77983,0,0,0-.38-1,1.83,1.83,0,0,0-.68-.62,2.09993,2.09993,0,0,0-1-.22,2.23,2.23,0,0,0-1.06.29,6.20981,6.20981,0,0,0-1.15.83v4.35Z"/><path id="Shape-3" class="cls-1" d="M161.55,25.22017v2.78h-1.39v-11.74h1.16l.12,1h.05a6.28984,6.28984,0,0,1,1.23-.82,3.07,3.07,0,0,1,1.4-.34,3.20012,3.20012,0,0,1,1.41.3,2.75986,2.75986,0,0,1,1,.85,4,4,0,0,1,.62,1.33,6.57992,6.57992,0,0,1,.21,1.74,5.67,5.67,0,0,1-.29,1.88,4.36015,4.36015,0,0,1-.78,1.4,3.32014,3.32014,0,0,1-1.14.88,3.22,3.22,0,0,1-1.36.3,2.79008,2.79008,0,0,1-1.15-.25,5.77057,5.77057,0,0,1-1.15-.7Zm0-2.53a3.72,3.72,0,0,0,1.09.67,2.7501,2.7501,0,0,0,.93.2,2,2,0,0,0,.94-.23,2.25,2.25,0,0,0,.75-.65,3.15016,3.15016,0,0,0,.49-1,4.91014,4.91014,0,0,0,.18-1.38,5.99955,5.99955,0,0,0-.12-1.24,2.77983,2.77983,0,0,0-.38-1,1.83,1.83,0,0,0-.68-.62,2.1,2.1,0,0,0-1-.22,2.23,2.23,0,0,0-1.06.29,6.20981,6.20981,0,0,0-1.15.83v4.35Z"/><path id="Shape-4" class="cls-1" d="M169.59,12.42017H171v10.58a.73.73,0,0,0,.12.48.35.35,0,0,0,.27.14h.31l.19,1a1.21,1.21,0,0,1-.32.1,2.75,2.75,0,0,1-.48,0,1.3,1.3,0,0,1-1.14-.48,2.38,2.38,0,0,1-.34-1.39v-10.43h-.02Z"/><path id="Shape-5" class="cls-1" d="M174.67,14.56017a1,1,0,0,1-.69-.25.89.89,0,0,1-.04206-1.25795q.02033-.02172.04206-.042a1.09,1.09,0,0,1,1.38,0,.89.89,0,0,1,.042,1.25795q-.02033.02172-.042.042a1,1,0,0,1-.69.25Zm-.67,1.7h1.39v8.26H174v-8.26Z"/><path id="Shape-6" class="cls-1" d="M177.5,20.41017a4.93,4.93,0,0,1,.32-1.84,4.14991,4.14991,0,0,1,.87-1.37,3.61987,3.61987,0,0,1,1.27-.85,4.07,4.07,0,0,1,1.52-.29,3.07992,3.07992,0,0,1,1.4.3,4.50953,4.50953,0,0,1,1,.69l-.7.9a3.93944,3.93944,0,0,0-.77-.53,1.92989,1.92989,0,0,0-.89-.2,2.32,2.32,0,0,0-1.85.88,3.23,3.23,0,0,0-.54,1,4.08021,4.08021,0,0,0-.2,1.3,4.17019,4.17019,0,0,0,.19,1.29,3.14,3.14,0,0,0,.52,1,2.3,2.3,0,0,0,.81.65,2.47,2.47,0,0,0,2.12,0,3.86976,3.86976,0,0,0,.86-.59l.63.92a4.52993,4.52993,0,0,1-1.25.78,3.68021,3.68021,0,0,1-1.44.29,4.00013,4.00013,0,0,1-1.53-.29,3.43006,3.43006,0,0,1-1.23-.84,4.00009,4.00009,0,0,1-.82-1.36,5.26012,5.26012,0,0,1-.29-1.84h0Z"/><path id="Shape-7" class="cls-1" d="M185.28,22.38017a2.29,2.29,0,0,1,1.21-2.08,10.0699,10.0699,0,0,1,3.87-1,3.75074,3.75074,0,0,0-.08-.76,1.82977,1.82977,0,0,0-.27-.66,1.49,1.49,0,0,0-.52-.47,1.71008,1.71008,0,0,0-.83-.18,3.33993,3.33993,0,0,0-1.35.27,6.66944,6.66944,0,0,0-1.11.61l-.56-1a9.00084,9.00084,0,0,1,1.41-.72,4.70991,4.70991,0,0,1,1.84-.35,2.54,2.54,0,0,1,2.19.93,4.09,4.09,0,0,1,.68,2.47v5.08H190.6l-.12-1h0a6.8802,6.8802,0,0,1-1.28.84,3.17,3.17,0,0,1-1.45.35,2.52,2.52,0,0,1-1.75-.61,2.2,2.2,0,0,1-.73-1.72h.01Zm1.38-.1a1.18,1.18,0,0,0,.42,1,1.69,1.69,0,0,0,1,.31,2.41012,2.41012,0,0,0,1.13-.28,5.5102,5.5102,0,0,0,1.13-.83v-2.28a14.60973,14.60973,0,0,0-1.75.32,4.58992,4.58992,0,0,0-1.15.44,1.64012,1.64012,0,0,0-.62.59,1.44006,1.44006,0,0,0-.15.73h-.01Z"/><path id="Shape-8" class="cls-1" d="M194.67,17.40017h-1.22v-1l1.29-.08.17-2.32h1.17v2.31h2.23v1.14h-2.23v4.55a2.11,2.11,0,0,0,.28,1.18,1.11,1.11,0,0,0,1,.42,1.87005,1.87005,0,0,0,.48-.07,3.549,3.549,0,0,0,.46-.15l.27,1.05a7.39976,7.39976,0,0,1-.74.21,3.44048,3.44048,0,0,1-.79.09,2.7,2.7,0,0,1-1.11-.2,1.91983,1.91983,0,0,1-.73-.53,2.18983,2.18983,0,0,1-.4-.87,4.99963,4.99963,0,0,1-.12-1.12v-4.61h-.01Z"/><path id="Shape-9" class="cls-1" d="M200.85,14.56017a1,1,0,0,1-.69-.25.89.89,0,0,1-.042-1.25795q.02032-.02172.042-.042a1.09,1.09,0,0,1,1.38,0,.89.89,0,0,1,.04205,1.25795q-.02033.02172-.04205.042a1,1,0,0,1-.69.25Zm-.71,1.7h1.39v8.26h-1.39v-8.26Z"/><path id="Shape-10" class="cls-1" d="M203.67,20.41017a5.05975,5.05975,0,0,1,.31-1.84,4.18014,4.18014,0,0,1,.84-1.37,3.51,3.51,0,0,1,1.21-.85,3.8,3.8,0,0,1,2.91,0,3.52,3.52,0,0,1,1.22.85,4.20979,4.20979,0,0,1,.84,1.37,5.06,5.06,0,0,1,.31,1.84,5.00013,5.00013,0,0,1-.31,1.83,4.10989,4.10989,0,0,1-.84,1.36,3.57007,3.57007,0,0,1-1.22.84,3.8,3.8,0,0,1-2.91,0,3.55992,3.55992,0,0,1-1.21-.84,4.08005,4.08005,0,0,1-.84-1.36,4.99992,4.99992,0,0,1-.31-1.83Zm1.44,0a4.52939,4.52939,0,0,0,.17,1.29,3.0002,3.0002,0,0,0,.48,1,2.22,2.22,0,0,0,.76.65,2.16,2.16,0,0,0,1.94,0,2.23011,2.23011,0,0,0,.76-.65,3.0898,3.0898,0,0,0,.49-1,4.59941,4.59941,0,0,0,.17-1.29,4.69968,4.69968,0,0,0-.17-1.3,3.16965,3.16965,0,0,0-.49-1,2.14,2.14,0,0,0-3.46,0,3.13007,3.13007,0,0,0-.48,1,4.62041,4.62041,0,0,0-.13,1.3h-.04Z"/><path id="Shape-11" class="cls-1" d="M213.53,16.26017h1.14l.12,1.19h.05a6.73971,6.73971,0,0,1,1.25-1,2.86,2.86,0,0,1,1.52-.4,2.22,2.22,0,0,1,1.91.82,4,4,0,0,1,.6,2.41v5.24h-1.39v-5a3.00008,3.00008,0,0,0-.37-1.69,1.37,1.37,0,0,0-1.19-.52,2,2,0,0,0-1.14.32,7.33062,7.33062,0,0,0-1.12,1v6h-1.39v-8.37h.01Z"/><path id="Shape-12" class="cls-1" d="M222.61,22.65017a5.52991,5.52991,0,0,0,1.11.71,2.99992,2.99992,0,0,0,1.32.27,1.76,1.76,0,0,0,1.22-.37,1.2,1.2,0,0,0,.41-.92,1.00007,1.00007,0,0,0-.17-.56,1.73013,1.73013,0,0,0-.43-.42,3.18,3.18,0,0,0-.6-.31l-.68-.23q-.44-.15-.88-.35a3.5,3.5,0,0,1-.79-.48,2.4,2.4,0,0,1-.57-.65,1.74,1.74,0,0,1-.22-.9,2.24011,2.24011,0,0,1,.2-.93,2.14027,2.14027,0,0,1,.56-.75,2.6501,2.6501,0,0,1,.89-.49,4,4,0,0,1,2.63.09,4.48013,4.48013,0,0,1,1.13.66l-.66.88a4.45,4.45,0,0,0-.88-.53,2.44987,2.44987,0,0,0-1-.2,1.59,1.59,0,0,0-1.15.36,1.13006,1.13006,0,0,0-.37.83.83988.83988,0,0,0,.15.5,1.4598,1.4598,0,0,0,.41.37,3.34043,3.34043,0,0,0,.59.29l.69.26.89.36a3.43,3.43,0,0,1,.81.47,2.31,2.31,0,0,1,.59.69,2,2,0,0,1,.23,1,2.34,2.34,0,0,1-.2,1,2.26993,2.26993,0,0,1-.58.78,2.7599,2.7599,0,0,1-1,.54,3.99964,3.99964,0,0,1-1.3.2,4.45991,4.45991,0,0,1-1.68-.32,5.25987,5.25987,0,0,1-1.39-.82Z"/><path id="Shape-13" class="cls-2" d="M359.54,350.94017a2.22,2.22,0,0,1-2.22,2.22H11.44a2.22,2.22,0,0,1-2.22-2.22h0v-110.12H6.75v110.12a4.7,4.7,0,0,0,4.7,4.69H357.33a4.7,4.7,0,0,0,4.7-4.69v-110.12h-2.48v110.12h-.01Z"/><path id="Shape-14" class="cls-2" d="M9.16,4.70017a2.22,2.22,0,0,1,2.22-2.22H357.26a2.22,2.22,0,0,1,2.22,2.22h0v155.56H362V4.70017A4.7,4.7,0,0,0,357.30017,0c-.0134,0-.02676.00006-.04016.00017H11.38a4.7,4.7,0,0,0-4.71,4.69v155.57H9.15V4.70017h.01Z"/><path id="Rectangle-path" class="cls-3" d="M4.42,160.26017H365.5a3.46,3.46,0,0,1,3.46,3.46v73.81a3.46,3.46,0,0,1-3.46,3.46H4.42a3.46,3.46,0,0,1-3.46-3.46v-73.81A3.46,3.46,0,0,1,4.42,160.26017Z"/><polygon id="Shape-15" class="cls-1" points="137.05 330.44 138.46 330.44 138.46 341.59 137.05 341.59 137.05 330.44"/><path id="Shape-16" class="cls-1" d="M141.38,333.33016h1.16l.13,1.19h0a6.74,6.74,0,0,1,1.25-1,2.85992,2.85992,0,0,1,1.52-.4,2.22,2.22,0,0,1,1.91.82,4.00009,4.00009,0,0,1,.6,2.41v5.24h-1.39v-5a3,3,0,0,0-.37-1.69,1.37,1.37,0,0,0-1.19-.52,1.9999,1.9999,0,0,0-1.14.32,7.33115,7.33115,0,0,0-1.12,1v6h-1.39v-8.26Z"/><path id="Shape-17" class="cls-1" d="M154.4,330.63018a2.28958,2.28958,0,0,0-.94-.2q-1.16,0-1.16,1.6v1.31h1.75v1.14H152.3v7.12h-1.39v-7.12h-1.12v-1.06l1.12-.08v-1.34a3.1201,3.1201,0,0,1,.59-2,2.19992,2.19992,0,0,1,1.83-.73,3.44959,3.44959,0,0,1,.74.08,3.82125,3.82125,0,0,1,.64.2Z"/><path id="Shape-18" class="cls-1" d="M155.67,333.33016h1.16l.12,1.5H157a3.80979,3.80979,0,0,1,1-1.24,2.13,2.13,0,0,1,1.32-.46,2.2,2.2,0,0,1,.88.17l-.27,1.22-.37-.1a2.23054,2.23054,0,0,0-.42,0,1.85,1.85,0,0,0-1.1.42,3.38,3.38,0,0,0-1,1.48v5.3h-1.37v-8.29Z"/><path id="Shape-19" class="cls-1" d="M160.67,339.45018a2.29,2.29,0,0,1,1.21-2.08,10.06946,10.06946,0,0,1,3.87-1,3.75062,3.75062,0,0,0-.08-.76,1.82989,1.82989,0,0,0-.27-.66,1.49007,1.49007,0,0,0-.52-.47,1.71019,1.71019,0,0,0-.83-.18,3.34009,3.34009,0,0,0-1.35.27,6.67158,6.67158,0,0,0-1.11.61l-.56-1a9.0017,9.0017,0,0,1,1.41-.72,4.70973,4.70973,0,0,1,1.84-.35,2.54,2.54,0,0,1,2.19.93,4.09,4.09,0,0,1,.68,2.47v5.07H166l-.12-1h0a6.87957,6.87957,0,0,1-1.28.84,3.16988,3.16988,0,0,1-1.45.35,2.52,2.52,0,0,1-1.74-.61,2.2,2.2,0,0,1-.73-1.71h-.01Zm1.38-.1a1.18,1.18,0,0,0,.42,1,1.69,1.69,0,0,0,1,.31,2.41,2.41,0,0,0,1.13-.28,5.51053,5.51053,0,0,0,1.13-.83v-2.29a14.60741,14.60741,0,0,0-1.75.32,4.58992,4.58992,0,0,0-1.15.44,1.64005,1.64005,0,0,0-.62.59,1.44,1.44,0,0,0-.12.74h-.04Z"/><path id="Shape-20" class="cls-1" d="M169.6,339.73018a5.52974,5.52974,0,0,0,1.11.71,2.99989,2.99989,0,0,0,1.32.27,1.76,1.76,0,0,0,1.22-.37,1.2,1.2,0,0,0,.41-.92,1,1,0,0,0-.17-.56,1.7293,1.7293,0,0,0-.43-.42,3.1815,3.1815,0,0,0-.6-.31l-.68-.27q-.44-.15-.88-.35a3.5,3.5,0,0,1-.79-.48,2.4003,2.4003,0,0,1-.57-.65,1.74,1.74,0,0,1-.22-.9,2.24008,2.24008,0,0,1,.2-.93,2.14012,2.14012,0,0,1,.56-.75,2.6498,2.6498,0,0,1,.89-.49,4,4,0,0,1,2.63.09,4.48,4.48,0,0,1,1.13.66l-.66.88a4.44947,4.44947,0,0,0-.88-.53,2.45011,2.45011,0,0,0-1-.2,1.59008,1.59008,0,0,0-1.15.36,1.13,1.13,0,0,0-.37.83.83992.83992,0,0,0,.15.5,1.46,1.46,0,0,0,.41.37,3.33935,3.33935,0,0,0,.59.29l.69.26.89.36a3.42985,3.42985,0,0,1,.81.47,2.31037,2.31037,0,0,1,.59.69,2,2,0,0,1,.23,1,2.3401,2.3401,0,0,1-.2,1,2.2698,2.2698,0,0,1-.58.78,2.75971,2.75971,0,0,1-1,.54,4.00022,4.00022,0,0,1-1.3.2,4.45972,4.45972,0,0,1-1.68-.32,5.26017,5.26017,0,0,1-1.39-.82Z"/><path id="Shape-21" class="cls-1" d="M177.18,334.47017H176v-1l1.29-.08.17-2.31h1.17v2.31h2.23v1.14h-2.23v4.59a2.10993,2.10993,0,0,0,.28,1.18,1.11,1.11,0,0,0,1,.42,1.87086,1.87086,0,0,0,.48-.07,3.55367,3.55367,0,0,0,.46-.15l.27,1a7.39971,7.39971,0,0,1-.74.21,3.43993,3.43993,0,0,1-.79.09,2.7,2.7,0,0,1-1.11-.2,1.92011,1.92011,0,0,1-.73-.56,2.18981,2.18981,0,0,1-.4-.87,4.999,4.999,0,0,1-.12-1.12v-4.57h0Z"/><path id="Shape-22" class="cls-1" d="M182.67,333.33016h1.16l.12,1.5H184a3.80979,3.80979,0,0,1,1-1.24,2.13,2.13,0,0,1,1.32-.46,2.2,2.2,0,0,1,.88.17l-.27,1.22-.37-.1a2.23054,2.23054,0,0,0-.42,0,1.85,1.85,0,0,0-1.1.42,3.38,3.38,0,0,0-1,1.48v5.3h-1.37v-8.29Z"/><path id="Shape-23" class="cls-1" d="M188.47,333.33016h1.41v5a3,3,0,0,0,.37,1.69,1.34,1.34,0,0,0,1.18.52,2,2,0,0,0,1.14-.33,5.31989,5.31989,0,0,0,1.09-1.06v-5.86h1.39v8.26h-1.16l-.12-1.29h-.05a5.52,5.52,0,0,1-1.22,1.09,2.72992,2.72992,0,0,1-1.5.41,2.24,2.24,0,0,1-1.93-.82,4,4,0,0,1-.6-2.41v-5.2Z"/><path id="Shape-24" class="cls-1" d="M197.23,337.48018a4.93,4.93,0,0,1,.32-1.84,4.15,4.15,0,0,1,.87-1.37,3.62,3.62,0,0,1,1.27-.85,4.06957,4.06957,0,0,1,1.52-.29,3.08,3.08,0,0,1,1.4.3,4.51,4.51,0,0,1,1,.69l-.7.9a3.93938,3.93938,0,0,0-.77-.53,1.92993,1.92993,0,0,0-.89-.2,2.3201,2.3201,0,0,0-1.85.88,3.23,3.23,0,0,0-.54,1,4.08011,4.08011,0,0,0-.2,1.3,4.17,4.17,0,0,0,.19,1.29,3.14,3.14,0,0,0,.52,1,2.30015,2.30015,0,0,0,.81.65,2.46987,2.46987,0,0,0,2.12,0,3.86948,3.86948,0,0,0,.86-.59l.63.92a4.52972,4.52972,0,0,1-1.25.78,3.67954,3.67954,0,0,1-1.44.29,4.00007,4.00007,0,0,1-1.53-.29,3.43,3.43,0,0,1-1.23-.84,4.00015,4.00015,0,0,1-.82-1.36,5.26039,5.26039,0,0,1-.29-1.84h0Z"/><path id="Shape-25" class="cls-1" d="M205.83,334.47017h-1.22v-1l1.29-.08.17-2.31h1.17v2.31h2.23v1.14h-2.23v4.59a2.11,2.11,0,0,0,.28,1.18,1.11,1.11,0,0,0,1,.42,1.87086,1.87086,0,0,0,.48-.07,3.55317,3.55317,0,0,0,.46-.15l.27,1a7.39971,7.39971,0,0,1-.74.21,3.43993,3.43993,0,0,1-.79.09,2.7,2.7,0,0,1-1.11-.2,1.92011,1.92011,0,0,1-.73-.56,2.18981,2.18981,0,0,1-.4-.87,4.999,4.999,0,0,1-.12-1.12v-4.57h0Z"/><path id="Shape-26" class="cls-1" d="M211.12,333.33016h1.41v5a3.00008,3.00008,0,0,0,.37,1.69,1.34,1.34,0,0,0,1.18.52,2.00006,2.00006,0,0,0,1.14-.33,5.31984,5.31984,0,0,0,1.09-1.06v-5.86h1.36v8.26h-1.16l-.12-1.29h0a5.51973,5.51973,0,0,1-1.22,1.09,2.72992,2.72992,0,0,1-1.5.41,2.24,2.24,0,0,1-1.93-.82,4.00006,4.00006,0,0,1-.6-2.41v-5.2Z"/><path id="Shape-27" class="cls-1" d="M220.48,333.33016h1.19l.12,1.5h.05a3.80979,3.80979,0,0,1,1-1.24,2.13,2.13,0,0,1,1.32-.46,2.2,2.2,0,0,1,.88.17l-.27,1.22-.37-.1a2.23054,2.23054,0,0,0-.42,0,1.85,1.85,0,0,0-1.1.42,3.38007,3.38007,0,0,0-1,1.48v5.3h-1.39v-8.29Z"/><path id="Shape-28" class="cls-1" d="M225.6,337.48018a5.00007,5.00007,0,0,1,.31-1.83,4.2699,4.2699,0,0,1,.83-1.37,3.62979,3.62979,0,0,1,1.18-.86,3.34,3.34,0,0,1,1.38-.3,3.4698,3.4698,0,0,1,1.4.27,2.74993,2.74993,0,0,1,1,.78,3.6,3.6,0,0,1,.64,1.22,5.43016,5.43016,0,0,1,.22,1.6,4.86918,4.86918,0,0,1-.05.76h-5.58a3.27992,3.27992,0,0,0,.82,2.13,2.53,2.53,0,0,0,1.93.78,3.25,3.25,0,0,0,1.1-.18,4.82017,4.82017,0,0,0,1-.47l.49.92a6.93981,6.93981,0,0,1-1.21.6,4.1907,4.1907,0,0,1-1.51.25,4,4,0,0,1-1.56-.3,3.68,3.68,0,0,1-1.26-.85,3.93,3.93,0,0,1-.84-1.35,5.00024,5.00024,0,0,1-.29-1.8h0Zm5.78-.63a3.05989,3.05989,0,0,0-.54-2,1.82,1.82,0,0,0-1.5-.67,1.99978,1.99978,0,0,0-.84.18,2.32988,2.32988,0,0,0-.72.51,2.71991,2.71991,0,0,0-.54.82,3.77019,3.77019,0,0,0-.28,1.11h4.42Z"/><path id="Rectangle-path-2" class="cls-4" d="M3.85,160.26017H364.93a3.46,3.46,0,0,1,3.46,3.46v73.81a3.46,3.46,0,0,1-3.46,3.46H3.85a3.46,3.46,0,0,1-3.46-3.46v-73.81A3.46,3.46,0,0,1,3.85,160.26017Z"/><g id="Group" class="cls-5"><path id="Rectangle-path-3" class="cls-6" d="M240.83,259.69016h88.75a2.55,2.55,0,0,1,2.55,2.55v56.26a2.55,2.55,0,0,1-2.55,2.55H240.83a2.55,2.55,0,0,1-2.55-2.55v-56.26a2.55,2.55,0,0,1,2.55-2.55Z"/></g><path id="Shape-29" class="cls-6" d="M329.58,260.44017a1.8,1.8,0,0,1,1.8,1.8v56.27a1.8,1.8,0,0,1-1.8,1.8H240.82a1.8,1.8,0,0,1-1.8-1.8v-56.27a1.8,1.8,0,0,1,1.8-1.8h88.76Zm0-.75H240.82a2.55,2.55,0,0,0-2.55,2.55v56.27a2.55,2.55,0,0,0,2.55,2.55h88.76a2.55,2.55,0,0,0,2.55-2.55v-56.27a2.55,2.55,0,0,0-2.55-2.55h0Z"/><polygon id="Shape-30" class="cls-6" points="253.01 304.82 248.25 303.11 248.25 296.13 253.01 297.75 253.01 304.82"/><polygon id="Shape-31" class="cls-6" points="253.89 304.82 258.65 303.11 258.65 296.13 253.89 297.75 253.89 304.82"/><polygon id="Shape-32" class="cls-6" points="248.74 295.61 253.56 294.25 258.03 295.69 253.56 297.21 248.74 295.61"/><polygon id="Shape-33" class="cls-6" points="247.35 295.07 242.59 293.36 242.59 286.38 247.35 288.01 247.35 295.07"/><polygon id="Shape-34" class="cls-6" points="248.22 295.07 252.98 293.36 252.98 286.38 248.22 288.01 248.22 295.07"/><polygon id="Shape-35" class="cls-6" points="243.07 285.86 247.89 284.5 252.36 285.95 247.89 287.46 243.07 285.86"/><polygon id="Shape-36" class="cls-6" points="258.46 295.07 253.69 293.36 253.69 286.38 258.46 288.01 258.46 295.07"/><polygon id="Shape-37" class="cls-6" points="259.33 295.07 264.09 293.36 264.09 286.38 259.33 288.01 259.33 295.07"/><polygon id="Shape-38" class="cls-6" points="254.18 285.86 259 284.5 263.47 285.95 259 287.46 254.18 285.86"/><polygon id="Shape-39" class="cls-6" points="264.12 285.32 259.36 283.61 259.36 276.63 264.12 278.26 264.12 285.32"/><polygon id="Shape-40" class="cls-6" points="265 285.32 269.76 283.61 269.76 276.63 265 278.26 265 285.32"/><polygon id="Shape-41" class="cls-6" points="259.85 276.11 264.67 274.76 269.14 276.2 264.67 277.71 259.85 276.11"/><polygon id="Shape-42" class="cls-6" points="275.23 285.32 270.47 283.61 270.47 276.63 275.23 278.26 275.23 285.32"/><polygon id="Shape-43" class="cls-6" points="276.11 285.32 280.87 283.61 280.87 276.63 276.11 278.26 276.11 285.32"/><polygon id="Shape-44" class="cls-6" points="270.96 276.11 275.78 274.76 280.25 276.2 275.78 277.71 270.96 276.11"/><polygon id="Shape-45" class="cls-1" points="272.81 300.28 271.21 305.84 270.51 305.84 269.26 301.71 268.12 305.82 267.41 305.82 265.75 300.26 266.61 300.26 267.82 304.4 268.97 300.26 269.6 300.26 270.85 304.41 272.09 300.26 272.79 300.26 272.81 300.28"/><path id="Shape-46" class="cls-1" d="M277.23,304.18016l.81.17a2.27008,2.27008,0,0,1-.86,1.18,2.47,2.47,0,0,1-1.5.47,2.33,2.33,0,0,1-1.84-.8,3.5,3.5,0,0,1,0-4.25,2.35994,2.35994,0,0,1,1.83-.82,2.22,2.22,0,0,1,1.75.75,3.39,3.39,0,0,1,.68,2.25h-4a2.16006,2.16006,0,0,0,.57,1.69,1.71012,1.71012,0,0,0,1.11.44,1.52,1.52,0,0,0,1.45-1.08h0Zm0-1.69a2.41019,2.41019,0,0,0-.15-.83,1.42,1.42,0,0,0-.48-.62,1.31994,1.31994,0,0,0-.82-.26,1.46,1.46,0,0,0-1.09.46,1.91,1.91,0,0,0-.5,1.24h3Z"/><path id="Shape-47" class="cls-1" d="M279.67,305.82018h-.4v-7.5h.87v2.87a1.81,1.81,0,0,1,1.63-1.08,2,2,0,0,1,1.6.75,3.29016,3.29016,0,0,1,.63,2.14,3.35012,3.35012,0,0,1-.63,2.08,2,2,0,0,1-1.65.84,1.9,1.9,0,0,1-1.72-1.02Zm.45-2.18a1.69,1.69,0,0,0,.52,1.24,1.5101,1.5101,0,0,0,1,.39,1.24,1.24,0,0,0,1.06-.57,2.68,2.68,0,0,0,.4-1.57,3.13,3.13,0,0,0-.39-1.69,1.22,1.22,0,0,0-1-.62,1.36,1.36,0,0,0-1,.44,1.85018,1.85018,0,0,0-.52,1.13v1.25h-.07Z"/><path id="Shape-48" class="cls-1" d="M286.22,304.39018l.83-.17a1.54,1.54,0,0,0,1.74,1,1.64983,1.64983,0,0,0,.91-.24.77.77,0,0,0,.37-.68.92.92,0,0,0-1-.83l-1.17-.22a2.13987,2.13987,0,0,1-1.09-.52,1.34006,1.34006,0,0,1-.41-1,1.47,1.47,0,0,1,.56-1.17,2.24,2.24,0,0,1,1.49-.47,2,2,0,0,1,2.23,1.41l-.79.17a1.35,1.35,0,0,0-1.4-.87,1.5799,1.5799,0,0,0-.87.22.68.68,0,0,0-.34.6.84.84,0,0,0,.86.77l1.08.2q1.7.31,1.7,1.65a1.46993,1.46993,0,0,1-.63,1.24,2.75,2.75,0,0,1-1.68.47,2.23,2.23,0,0,1-2.39-1.56h0Z"/><path id="Shape-49" class="cls-1" d="M295.58,304.18016l.81.17a2.25986,2.25986,0,0,1-.86,1.18,2.46,2.46,0,0,1-1.5.47,2.33,2.33,0,0,1-1.84-.8,3.50005,3.50005,0,0,1,0-4.25,2.36,2.36,0,0,1,1.83-.82,2.22,2.22,0,0,1,1.75.75,3.39,3.39,0,0,1,.68,2.25h-4a2.16005,2.16005,0,0,0,.53,1.7,1.71012,1.71012,0,0,0,1.11.44,1.52,1.52,0,0,0,1.49-1.09h0Zm0-1.69a2.42,2.42,0,0,0-.15-.83,1.41989,1.41989,0,0,0-.43-.66,1.32,1.32,0,0,0-.82-.26,1.46,1.46,0,0,0-1.09.46,1.91,1.91,0,0,0-.5,1.24h3Z"/><path id="Shape-50" class="cls-1" d="M298.27,305.82018h-.87v-5.56h.76v1.3a2.76006,2.76006,0,0,1,.8-1.18,1.47013,1.47013,0,0,1,.83-.27h.34v.83H300a1.51994,1.51994,0,0,0-1.19.53,2.15,2.15,0,0,0-.5,1.39v3h0Z"/><polygon id="Shape-51" class="cls-1" points="305.51 300.28 303.6 305.82 302.67 305.82 300.67 300.26 301.67 300.26 303.21 304.78 304.74 300.26 305.51 300.26 305.51 300.28"/><path id="Shape-52" class="cls-1" d="M307.13,298.33016v1h-.93v-1Zm0,2v5.54h-.87v-5.56h.87Z"/><path id="Shape-53" class="cls-1" d="M311.67,303.89018l.78.14a2.49,2.49,0,0,1-.73,1.44,2.21,2.21,0,0,1-3.11349-.27264q-.02371-.02829-.04651-.05734a3.48988,3.48988,0,0,1-.6-2.07,3.39,3.39,0,0,1,.63-2.11,2.05,2.05,0,0,1,1.73-.84,2.00008,2.00008,0,0,1,1.45.54,2.43,2.43,0,0,1,.68,1.4l-.78.15a1.34,1.34,0,0,0-1.29937-1.37942l-.03061-.00058a1.23,1.23,0,0,0-1.1.61,2.89988,2.89988,0,0,0-.38,1.57,2.99981,2.99981,0,0,0,.38,1.66,1.21,1.21,0,0,0,1.07.59,1.41,1.41,0,0,0,1.36-1.37h0Z"/><path id="Shape-54" class="cls-1" d="M317.29,304.18016l.81.17a2.25993,2.25993,0,0,1-.86,1.18,2.46,2.46,0,0,1-1.5.47,2.33,2.33,0,0,1-1.84-.8,3.50005,3.50005,0,0,1,0-4.25,2.36,2.36,0,0,1,1.83-.82,2.22,2.22,0,0,1,1.75.75,3.39,3.39,0,0,1,.68,2.25h-4a2.16,2.16,0,0,0,.51,1.69,1.71012,1.71012,0,0,0,1.11.44,1.52,1.52,0,0,0,1.51-1.08h0Zm0-1.69a2.41043,2.41043,0,0,0-.15-.83,1.41989,1.41989,0,0,0-.48-.62,1.31991,1.31991,0,0,0-.82-.26,1.46,1.46,0,0,0-1.09.46,1.91,1.91,0,0,0-.5,1.24h3Z"/><path id="Shape-55" class="cls-1" d="M318.67,304.39018l.83-.17a1.54,1.54,0,0,0,1.74,1,1.64983,1.64983,0,0,0,.91-.24.77.77,0,0,0,.37-.68.92.92,0,0,0-1-.83l-1.17-.22a2.1399,2.1399,0,0,1-1.09-.52,1.34,1.34,0,0,1-.41-1,1.47,1.47,0,0,1,.56-1.17,2.24,2.24,0,0,1,1.49-.47,2,2,0,0,1,2.23,1.41l-.79.17a1.35,1.35,0,0,0-1.4-.87,1.57987,1.57987,0,0,0-.87.22.68.68,0,0,0-.34.6.84.84,0,0,0,.86.77l1.08.2q1.7.31,1.7,1.65a1.46993,1.46993,0,0,1-.63,1.24,2.75,2.75,0,0,1-1.68.47,2.23,2.23,0,0,1-2.39-1.56h0Z"/><path id="Shape-56" class="cls-1" d="M299.17,288.40016v-1.33a.33.33,0,0,1,.31971-.34q.01011-.00032.02029,0h6a.33.33,0,0,1,.34955.30921q.001.01537.00046.03079v1.14a1.87016,1.87016,0,0,1-.45.84l-3.1,4.42a6.62993,6.62993,0,0,1,3.41.73.61.61,0,0,1,.32.52v1.42a.32.32,0,0,1-.44.31,6.89008,6.89008,0,0,0-6.32,0,.32.32,0,0,1-.43-.31v-1.32a1.60983,1.60983,0,0,1,.22-.92l3.59-5.15h-3.13a.33.33,0,0,1-.36-.35h0Z"/><path id="Shape-57" class="cls-1" d="M277.76,296.74016h-1.82a.34.34,0,0,1-.33-.31v-9.34a.34.34,0,0,1,.33984-.34015l.01016.00015h1.71a.34.34,0,0,1,.33.31v1.22h0a2.5,2.5,0,0,1,4.76,0,2.69,2.69,0,0,1,4.62-.71,4.99989,4.99989,0,0,1,.46,2.93v5.89a.34.34,0,0,1-.33985.34015l-.01016-.00015h-1.82a.34.34,0,0,1-.33-.34v-5a11.93889,11.93889,0,0,0,0-1.75,1,1,0,0,0-1.07-.81,1.21,1.21,0,0,0-1.09.77,5.65,5.65,0,0,0-.17,1.79v5a.34.34,0,0,1-.33984.34015l-.01017-.00015h-1.82a.34.34,0,0,1-.33-.34v-5c0-1,.17-2.57-1.12-2.57s-1.26,1.49-1.26,2.57v5a.34.34,0,0,1-.32.35h0Z"/><path id="Shape-58" class="cls-1" d="M310.23,286.56017c2.68,0,4.13,2.32,4.13,5.27s-1.6,5.11-4.13,5.11-4.06-2.32-4.06-5.21,1.45-5.17,4.06-5.17h0Zm0,2.15c-1.33,0-1.42,1.83-1.42,3s0,3.34,1.4,3.34,1.47-1.73,1.47-2.92a8.69977,8.69977,0,0,0-.27-2.48,1.13,1.13,0,0,0-1.16-.95h0Z"/><path id="Shape-59" class="cls-1" d="M318.24,296.74016h-1.81a.34.34,0,0,1-.33-.34v-9.34a.34.34,0,0,1,.35-.3h1.69a.35.35,0,0,1,.32.26v1.43h0a2.48,2.48,0,0,1,2.48-1.89,2.39,2.39,0,0,1,2.12,1.1,5.93993,5.93993,0,0,1,.48,2.91v5.88a.35.35,0,0,1-.35.29h-1.82a.34.34,0,0,1-.32-.29v-5.07c0-1,.12-2.52-1.14-2.52a1.19,1.19,0,0,0-1.05.75,4.14961,4.14961,0,0,0-.29,1.77v5a.35.35,0,0,1-.33.36h0Z"/><path class="cls-1" d="M297.92,295.00017a2.49013,2.49013,0,0,1-.69-1.69v-2.84c0-1.2.09-2.3-.8-3.13a4.12984,4.12984,0,0,0-2.74-.91c-1.73,0-3.66.65-4.07,2.79a.32.32,0,0,0,.25073.37674l.01925.00327,1.76.19a.38.38,0,0,0,.32-.33,1.39,1.39,0,0,1,1.46-1.09,1.22,1.22,0,0,1,1,.47,2.32987,2.32987,0,0,1,.22,1.32v.24a12.58041,12.58041,0,0,0-3.42.63,3.09,3.09,0,0,0-1.94,3,2.58008,2.58008,0,0,0,2.72,2.84,3.61,3.61,0,0,0,3-1.32,4.43952,4.43952,0,0,0,1,1.21.38.38,0,0,0,.43,0l.08-.07c.4-.32,1-.9,1.4-1.21A.33979.33979,0,0,0,297.92,295.00017Zm-3.65-.75a1.48,1.48,0,0,1-1.27.75,1.13994,1.13994,0,0,1-1.11-1.32c0-1.55,1.39-1.83,2.71-1.83v.39a3.57,3.57,0,0,1-.33,1.97Z"/><path class="cls-1" d="M274.27,295.00017a2.49009,2.49009,0,0,1-.69-1.69v-2.84c0-1.2.09-2.3-.8-3.13a4.12986,4.12986,0,0,0-2.74-.91c-1.73,0-3.66.65-4.07,2.79a.32.32,0,0,0,.25073.37674l.01926.00327,1.76.19a.38.38,0,0,0,.32-.33,1.39,1.39,0,0,1,1.46-1.09,1.22,1.22,0,0,1,1,.47,2.33,2.33,0,0,1,.22,1.32v.24a12.58027,12.58027,0,0,0-3.42.63,3.09,3.09,0,0,0-1.94,3,2.58008,2.58008,0,0,0,2.72,2.84,3.61,3.61,0,0,0,3-1.32,4.43933,4.43933,0,0,0,1,1.21.38.38,0,0,0,.43,0l.08-.07c.4-.32,1-.9,1.4-1.21A.33981.33981,0,0,0,274.27,295.00017Zm-3.65-.75a1.48,1.48,0,0,1-1.26.83,1.13994,1.13994,0,0,1-1.11-1.32c0-1.55,1.39-1.83,2.71-1.83v.39a3.57026,3.57026,0,0,1-.34,1.89Z"/><path id="Shape-62" class="cls-7" d="M227.41,260.44017a.94.94,0,0,1,.94.94h0v23.62a.94.94,0,0,1-.94.94H136.94a.94.94,0,0,1-.94-.94h0v-23.62a.94.94,0,0,1,.94-.94h90.47Zm0-.75H136.94a1.69,1.69,0,0,0-1.69,1.69h0v23.62a1.69,1.69,0,0,0,1.69,1.69h90.47a1.69,1.69,0,0,0,1.69-1.69h0v-23.62a1.69,1.69,0,0,0-1.69-1.69Z"/><path id="Shape-63" class="cls-7" d="M227.41,294.77016a.94.94,0,0,1,.94.94h0v23.65a.94.94,0,0,1-.94.94H136.94a.94.94,0,0,1-.94-.94h0v-23.65a.94.94,0,0,1,.94-.94h90.47Zm0-.75H136.94a1.69,1.69,0,0,0-1.69,1.69h0v23.65a1.69,1.69,0,0,0,1.69,1.69h90.47a1.69,1.69,0,0,0,1.69-1.69h0v-23.65a1.69,1.69,0,0,0-1.69-1.69Z"/><circle id="Oval-5" class="cls-8" cx="149.33" cy="303.01017" r="2.05"/><path class="cls-7" d="M207.85,303.00017a.49.49,0,0,1,.47979-.5c.00673-.00015.01348-.00015.02021,0h0a.49.49,0,0,1,.5.4798c.00013.00674.00013.01346,0,.0202h0a.49.49,0,0,1-.4798.5q-.01009.00022-.0202,0h0a.49.49,0,0,1-.5-.4798C207.84987,303.01363,207.84987,303.00691,207.85,303.00017Zm-2,0a.49.49,0,0,1,.47979-.5c.00673-.00015.01348-.00015.02021,0h0a.49.49,0,0,1,.5.4798c.00013.00674.00013.01346,0,.0202h0a.49.49,0,0,1-.4798.5q-.01009.00022-.0202,0h0a.49.49,0,0,1-.5-.4798C205.84987,303.01363,205.84987,303.00691,205.85,303.00017Zm-2,0a.49.49,0,0,1,.47979-.5c.00673-.00015.01348-.00015.02021,0h0a.5.5,0,0,1,.5.5h0a.5.5,0,0,1-.5.5h0a.49.49,0,0,1-.5-.4798C203.84987,303.01363,203.84987,303.00691,203.85,303.00017Zm-2,0a.49.49,0,0,1,.47979-.5c.00673-.00015.01348-.00015.02021,0h0a.5.5,0,0,1,.5.5h0a.5.5,0,0,1-.5.5h0a.49.49,0,0,1-.5-.4798C201.84987,303.01363,201.84987,303.00691,201.85,303.00017Zm-2,0a.49.49,0,0,1,.47979-.5c.00673-.00015.01348-.00015.02021,0h0a.49.49,0,0,1,.5.4798c.00013.00674.00013.01346,0,.0202h0a.49.49,0,0,1-.4798.5q-.01009.00022-.0202,0h0a.49.49,0,0,1-.5-.4798C199.84987,303.01363,199.84987,303.00691,199.85,303.00017Zm-2,0a.49.49,0,0,1,.47979-.5c.00673-.00015.01348-.00015.02021,0h0a.49.49,0,0,1,.5.4798c.00013.00674.00013.01346,0,.0202h0a.49.49,0,0,1-.4798.5q-.01009.00022-.0202,0h0a.49.49,0,0,1-.5-.4798C197.84987,303.01363,197.84987,303.00691,197.85,303.00017Zm-2,0a.49.49,0,0,1,.47979-.5c.00673-.00015.01348-.00015.02021,0h0a.5.5,0,0,1,.5.5h0a.5.5,0,0,1-.5.5h0a.49.49,0,0,1-.5-.4798C195.84987,303.01363,195.84987,303.00691,195.85,303.00017Zm-2,0a.49.49,0,0,1,.47979-.5c.00673-.00015.01348-.00015.02021,0h0a.5.5,0,0,1,.5.5h0a.5.5,0,0,1-.5.5h0a.49.49,0,0,1-.5-.4798C193.84987,303.01363,193.84987,303.00691,193.85,303.00017Zm-2,0a.49.49,0,0,1,.47979-.5c.00673-.00015.01348-.00015.02021,0h0a.49.49,0,0,1,.5.4798c.00013.00674.00013.01346,0,.0202h0a.49.49,0,0,1-.4798.5q-.01009.00022-.0202,0h0a.49.49,0,0,1-.5-.4798C191.84987,303.01363,191.84987,303.00691,191.85,303.00017Zm-2,0a.49.49,0,0,1,.47979-.5c.00673-.00015.01348-.00015.02021,0h0a.49.49,0,0,1,.5.4798c.00013.00674.00013.01346,0,.0202h0a.49.49,0,0,1-.4798.5q-.01009.00022-.0202,0h0a.49.49,0,0,1-.5-.4798C189.84987,303.01363,189.84987,303.00691,189.85,303.00017Zm-2,0a.49.49,0,0,1,.47979-.5c.00673-.00015.01348-.00015.02021,0h0a.5.5,0,0,1,.5.5h0a.5.5,0,0,1-.5.5h0a.49.49,0,0,1-.5-.4798C187.84987,303.01363,187.84987,303.00691,187.85,303.00017Zm-2,0a.49.49,0,0,1,.47979-.5c.00673-.00015.01348-.00015.02021,0h0a.5.5,0,0,1,.5.5h0a.5.5,0,0,1-.5.5h0a.49.49,0,0,1-.5-.4798C185.84987,303.01363,185.84987,303.00691,185.85,303.00017Zm-2,0a.5.5,0,0,1,.5-.5h0a.49.49,0,0,1,.5.4798c.00013.00674.00013.01346,0,.0202h0a.49.49,0,0,1-.4798.5q-.01009.00022-.0202,0h0A.5.5,0,0,1,183.85,303.00017Zm-2,0a.5.5,0,0,1,.5-.5h0a.49.49,0,0,1,.5.4798c.00013.00674.00013.01346,0,.0202h0a.49.49,0,0,1-.4798.5q-.01009.00022-.0202,0h0A.5.5,0,0,1,181.85,303.00017Zm-2,0a.5.5,0,0,1,.5-.5h0a.49.49,0,0,1,.5.4798c.00013.00674.00013.01346,0,.0202h0a.49.49,0,0,1-.4798.5q-.01009.00022-.0202,0h0A.5.5,0,0,1,179.85,303.00017Zm-2,0a.5.5,0,0,1,.5-.5h0a.5.5,0,0,1,.5.5h0a.5.5,0,0,1-.5.5h0A.5.5,0,0,1,177.85,303.00017Zm-2,0a.5.5,0,0,1,.5-.5h0a.49.49,0,0,1,.5.4798c.00013.00674.00013.01346,0,.0202h0a.49.49,0,0,1-.4798.5q-.01009.00022-.0202,0h0A.5.5,0,0,1,175.85,303.00017Zm-2,0a.5.5,0,0,1,.5-.5h0a.49.49,0,0,1,.5.4798c.00013.00674.00013.01346,0,.0202h0a.49.49,0,0,1-.4798.5q-.01009.00022-.0202,0h0A.5.5,0,0,1,173.85,303.00017Zm-2,0a.5.5,0,0,1,.5-.5h0a.49.49,0,0,1,.5.4798c.00013.00674.00013.01346,0,.0202h0a.49.49,0,0,1-.4798.5q-.01009.00022-.0202,0h0A.5.5,0,0,1,171.85,303.00017Zm-2,0a.5.5,0,0,1,.5-.5h0a.49.49,0,0,1,.5.4798c.00013.00674.00013.01346,0,.0202h0a.49.49,0,0,1-.4798.5q-.01009.00022-.0202,0h0A.5.5,0,0,1,169.85,303.00017Zm-2,0a.5.5,0,0,1,.5-.5h0a.49.49,0,0,1,.5.4798c.00013.00674.00013.01346,0,.0202h0a.49.49,0,0,1-.4798.5q-.01009.00022-.0202,0h0A.5.5,0,0,1,167.85,303.00017Zm-2,0a.5.5,0,0,1,.5-.5h0a.49.49,0,0,1,.5.4798c.00013.00674.00013.01346,0,.0202h0a.49.49,0,0,1-.4798.5q-.01009.00022-.0202,0h0A.5.5,0,0,1,165.85,303.00017Zm-2,0a.5.5,0,0,1,.5-.5h0a.49.49,0,0,1,.5.4798c.00013.00674.00013.01346,0,.0202h0a.49.49,0,0,1-.4798.5q-.01009.00022-.0202,0h0A.5.5,0,0,1,163.85,303.00017Zm-2,0a.5.5,0,0,1,.5-.5h0a.49.49,0,0,1,.5.4798c.00013.00674.00013.01346,0,.0202h0a.49.49,0,0,1-.4798.5q-.01009.00022-.0202,0h0A.5.5,0,0,1,161.85,303.00017Z"/><circle id="Oval-6" class="cls-8" cx="149.33" cy="311.32017" r="2.05"/><path class="cls-7" d="M207.85,311.32018a.5.5,0,0,1,.5-.5h0a.5.5,0,0,1,.5.5h0a.49.49,0,0,1-.4798.5q-.01009.00023-.0202,0h0a.49.49,0,0,1-.5-.4798C207.84987,311.33364,207.84987,311.32692,207.85,311.32018Zm-2,0a.5.5,0,0,1,.5-.5h0a.5.5,0,0,1,.5.5h0a.49.49,0,0,1-.4798.5q-.01009.00023-.0202,0h0a.49.49,0,0,1-.5-.4798C205.84987,311.33364,205.84987,311.32692,205.85,311.32018Zm-2,0a.5.5,0,0,1,.5-.5h0a.5.5,0,0,1,.5.5h0a.5.5,0,0,1-.5.5h0a.49.49,0,0,1-.5-.4798C203.84987,311.33364,203.84987,311.32692,203.85,311.32018Zm-2,0a.5.5,0,0,1,.5-.5h0a.5.5,0,0,1,.5.5h0a.5.5,0,0,1-.5.5h0a.49.49,0,0,1-.5-.4798C201.84987,311.33364,201.84987,311.32692,201.85,311.32018Zm-2,0a.5.5,0,0,1,.5-.5h0a.5.5,0,0,1,.5.5h0a.49.49,0,0,1-.4798.5q-.01009.00023-.0202,0h0a.49.49,0,0,1-.5-.4798C199.84987,311.33364,199.84987,311.32692,199.85,311.32018Zm-2,0a.5.5,0,0,1,.5-.5h0a.5.5,0,0,1,.5.5h0a.49.49,0,0,1-.4798.5q-.01009.00023-.0202,0h0a.49.49,0,0,1-.5-.4798C197.84987,311.33364,197.84987,311.32692,197.85,311.32018Zm-2,0a.5.5,0,0,1,.5-.5h0a.5.5,0,0,1,.5.5h0a.5.5,0,0,1-.5.5h0a.49.49,0,0,1-.5-.4798C195.84987,311.33364,195.84987,311.32692,195.85,311.32018Zm-2,0a.5.5,0,0,1,.5-.5h0a.5.5,0,0,1,.5.5h0a.5.5,0,0,1-.5.5h0a.49.49,0,0,1-.5-.4798C193.84987,311.33364,193.84987,311.32692,193.85,311.32018Zm-2,0a.5.5,0,0,1,.5-.5h0a.5.5,0,0,1,.5.5h0a.49.49,0,0,1-.4798.5q-.01009.00023-.0202,0h0a.49.49,0,0,1-.5-.4798C191.84987,311.33364,191.84987,311.32692,191.85,311.32018Zm-2,0a.5.5,0,0,1,.5-.5h0a.5.5,0,0,1,.5.5h0a.5.5,0,0,1-.5.5h0a.49.49,0,0,1-.5-.4798C189.84987,311.33364,189.84987,311.32692,189.85,311.32018Zm-2,0a.5.5,0,0,1,.5-.5h0a.5.5,0,0,1,.5.5h0a.5.5,0,0,1-.5.5h0a.49.49,0,0,1-.5-.4798C187.84987,311.33364,187.84987,311.32692,187.85,311.32018Zm-2,0a.5.5,0,0,1,.5-.5h0a.5.5,0,0,1,.5.5h0a.49.49,0,0,1-.4798.5q-.01009.00023-.0202,0h0a.49.49,0,0,1-.5-.4798C185.84987,311.33364,185.84987,311.32692,185.85,311.32018Zm-2,0a.5.5,0,0,1,.5-.5h0a.5.5,0,0,1,.5.5h0a.49.49,0,0,1-.4798.5q-.01009.00023-.0202,0h0A.5.5,0,0,1,183.85,311.32018Zm-2,0a.5.5,0,0,1,.5-.5h0a.5.5,0,0,1,.5.5h0a.49.49,0,0,1-.4798.5q-.01009.00023-.0202,0h0A.5.5,0,0,1,181.85,311.32018Zm-2,0a.5.5,0,0,1,.5-.5h0a.5.5,0,0,1,.5.5h0a.49.49,0,0,1-.4798.5q-.01009.00023-.0202,0h0A.5.5,0,0,1,179.85,311.32018Zm-2,0a.5.5,0,0,1,.5-.5h0a.5.5,0,0,1,.5.5h0a.49.49,0,0,1-.4798.5q-.01009.00023-.0202,0h0A.5.5,0,0,1,177.85,311.32018Zm-2,0a.5.5,0,0,1,.5-.5h0a.5.5,0,0,1,.5.5h0a.49.49,0,0,1-.4798.5q-.01009.00023-.0202,0h0A.5.5,0,0,1,175.85,311.32018Zm-2,0a.5.5,0,0,1,.5-.5h0a.5.5,0,0,1,.5.5h0a.49.49,0,0,1-.4798.5q-.01009.00023-.0202,0h0A.5.5,0,0,1,173.85,311.32018Zm-2,0a.5.5,0,0,1,.5-.5h0a.5.5,0,0,1,.5.5h0a.49.49,0,0,1-.4798.5q-.01009.00023-.0202,0h0A.5.5,0,0,1,171.85,311.32018Zm-2,0a.5.5,0,0,1,.5-.5h0a.5.5,0,0,1,.5.5h0a.49.49,0,0,1-.4798.5q-.01009.00023-.0202,0h0A.5.5,0,0,1,169.85,311.32018Zm-2,0a.5.5,0,0,1,.5-.5h0a.5.5,0,0,1,.5.5h0a.49.49,0,0,1-.4798.5q-.01009.00023-.0202,0h0A.5.5,0,0,1,167.85,311.32018Zm-2,0a.5.5,0,0,1,.5-.5h0a.5.5,0,0,1,.5.5h0a.49.49,0,0,1-.4798.5q-.01009.00023-.0202,0h0A.5.5,0,0,1,165.85,311.32018Zm-2,0a.5.5,0,0,1,.5-.5h0a.5.5,0,0,1,.5.5h0a.49.49,0,0,1-.4798.5q-.01009.00023-.0202,0h0A.5.5,0,0,1,163.85,311.32018Zm-2,0a.5.5,0,0,1,.5-.5h0a.5.5,0,0,1,.5.5h0a.49.49,0,0,1-.4798.5q-.01009.00023-.0202,0h0A.5.5,0,0,1,161.85,311.32018Z"/><circle id="Oval-7" class="cls-8" cx="149.33" cy="269.05018" r="2.05"/><path class="cls-7" d="M207.85,269.00017a.49.49,0,0,1,.47979-.5c.00673-.00015.01348-.00015.02021,0h0a.5.5,0,0,1,.5.5h0a.5.5,0,0,1-.5.5h0a.49.49,0,0,1-.5-.4798C207.84987,269.01363,207.84987,269.00691,207.85,269.00017Zm-2,0a.49.49,0,0,1,.47979-.5c.00673-.00015.01348-.00015.02021,0h0a.5.5,0,0,1,.5.5h0a.5.5,0,0,1-.5.5h0a.49.49,0,0,1-.5-.4798C205.84987,269.01363,205.84987,269.00691,205.85,269.00017Zm-2,0a.49.49,0,0,1,.47979-.5c.00673-.00015.01348-.00015.02021,0h0a.49.49,0,0,1,.5.4798c.00013.00674.00013.01346,0,.0202h0a.49.49,0,0,1-.4798.5q-.01009.00022-.0202,0h0a.49.49,0,0,1-.5-.4798C203.84987,269.01363,203.84987,269.00691,203.85,269.00017Zm-2,0a.49.49,0,0,1,.47979-.5c.00673-.00015.01348-.00015.02021,0h0a.49.49,0,0,1,.5.4798c.00013.00674.00013.01346,0,.0202h0a.49.49,0,0,1-.4798.5q-.01009.00022-.0202,0h0a.49.49,0,0,1-.5-.4798C201.84987,269.01363,201.84987,269.00691,201.85,269.00017Zm-2,0a.49.49,0,0,1,.47979-.5c.00673-.00015.01348-.00015.02021,0h0a.49.49,0,0,1,.5.4798c.00013.00674.00013.01346,0,.0202h0a.49.49,0,0,1-.4798.5q-.01009.00022-.0202,0h0a.49.49,0,0,1-.5-.4798C199.84987,269.01363,199.84987,269.00691,199.85,269.00017Zm-2,0a.49.49,0,0,1,.47979-.5c.00673-.00015.01348-.00015.02021,0h0a.5.5,0,0,1,.5.5h0a.5.5,0,0,1-.5.5h0a.49.49,0,0,1-.5-.4798C197.84987,269.01363,197.84987,269.00691,197.85,269.00017Zm-2,0a.49.49,0,0,1,.47979-.5c.00673-.00015.01348-.00015.02021,0h0a.5.5,0,0,1,.5.5h0a.5.5,0,0,1-.5.5h0a.49.49,0,0,1-.5-.4798C195.84987,269.01363,195.84987,269.00691,195.85,269.00017Zm-2,0a.49.49,0,0,1,.47979-.5c.00673-.00015.01348-.00015.02021,0h0a.5.5,0,0,1,.5.5h0a.5.5,0,0,1-.5.5h0a.49.49,0,0,1-.5-.4798C193.84987,269.01363,193.84987,269.00691,193.85,269.00017Zm-2,0a.49.49,0,0,1,.47979-.5c.00673-.00015.01348-.00015.02021,0h0a.49.49,0,0,1,.5.4798c.00013.00674.00013.01346,0,.0202h0a.49.49,0,0,1-.4798.5q-.01009.00022-.0202,0h0a.49.49,0,0,1-.5-.4798C191.84987,269.01363,191.84987,269.00691,191.85,269.00017Zm-2,0a.49.49,0,0,1,.47979-.5c.00673-.00015.01348-.00015.02021,0h0a.49.49,0,0,1,.5.4798c.00013.00674.00013.01346,0,.0202h0a.49.49,0,0,1-.4798.5q-.01009.00022-.0202,0h0a.49.49,0,0,1-.5-.4798C189.84987,269.01363,189.84987,269.00691,189.85,269.00017Zm-2,0a.49.49,0,0,1,.47979-.5c.00673-.00015.01348-.00015.02021,0h0a.49.49,0,0,1,.5.4798c.00013.00674.00013.01346,0,.0202h0a.49.49,0,0,1-.4798.5q-.01009.00022-.0202,0h0a.49.49,0,0,1-.5-.4798C187.84987,269.01363,187.84987,269.00691,187.85,269.00017Zm-2,0a.49.49,0,0,1,.47979-.5c.00673-.00015.01348-.00015.02021,0h0a.5.5,0,0,1,.5.5h0a.5.5,0,0,1-.5.5h0a.49.49,0,0,1-.5-.4798C185.84987,269.01363,185.84987,269.00691,185.85,269.00017Zm-2,0a.5.5,0,0,1,.5-.5h0a.5.5,0,0,1,.5.5h0a.5.5,0,0,1-.5.5h0A.5.5,0,0,1,183.85,269.00017Zm-2,0a.5.5,0,0,1,.5-.5h0a.49.49,0,0,1,.5.4798c.00013.00674.00013.01346,0,.0202h0a.49.49,0,0,1-.4798.5q-.01009.00022-.0202,0h0A.5.5,0,0,1,181.85,269.00017Zm-2,0a.5.5,0,0,1,.5-.5h0a.49.49,0,0,1,.5.4798c.00013.00674.00013.01346,0,.0202h0a.49.49,0,0,1-.4798.5q-.01009.00022-.0202,0h0A.5.5,0,0,1,179.85,269.00017Zm-2,0a.5.5,0,0,1,.5-.5h0a.49.49,0,0,1,.5.4798c.00013.00674.00013.01346,0,.0202h0a.49.49,0,0,1-.4798.5q-.01009.00022-.0202,0h0A.5.5,0,0,1,177.85,269.00017Zm-2,0a.5.5,0,0,1,.5-.5h0a.49.49,0,0,1,.5.4798c.00013.00674.00013.01346,0,.0202h0a.49.49,0,0,1-.4798.5q-.01009.00022-.0202,0h0A.5.5,0,0,1,175.85,269.00017Zm-2,0a.5.5,0,0,1,.5-.5h0a.49.49,0,0,1,.5.4798c.00013.00674.00013.01346,0,.0202h0a.49.49,0,0,1-.4798.5q-.01009.00022-.0202,0h0A.5.5,0,0,1,173.85,269.00017Zm-2,0a.5.5,0,0,1,.5-.5h0a.49.49,0,0,1,.5.4798c.00013.00674.00013.01346,0,.0202h0a.49.49,0,0,1-.4798.5q-.01009.00022-.0202,0h0A.5.5,0,0,1,171.85,269.00017Zm-2,0a.5.5,0,0,1,.5-.5h0a.49.49,0,0,1,.5.4798c.00013.00674.00013.01346,0,.0202h0a.49.49,0,0,1-.4798.5q-.01009.00022-.0202,0h0A.5.5,0,0,1,169.85,269.00017Zm-2,0a.5.5,0,0,1,.5-.5h0a.49.49,0,0,1,.5.4798c.00013.00674.00013.01346,0,.0202h0a.49.49,0,0,1-.4798.5q-.01009.00022-.0202,0h0A.5.5,0,0,1,167.85,269.00017Zm-2,0a.5.5,0,0,1,.5-.5h0a.49.49,0,0,1,.5.4798c.00013.00674.00013.01346,0,.0202h0a.49.49,0,0,1-.4798.5q-.01009.00022-.0202,0h0A.5.5,0,0,1,165.85,269.00017Zm-2,0a.5.5,0,0,1,.5-.5h0a.49.49,0,0,1,.5.4798c.00013.00674.00013.01346,0,.0202h0a.49.49,0,0,1-.4798.5q-.01009.00022-.0202,0h0A.5.5,0,0,1,163.85,269.00017Zm-2,0a.5.5,0,0,1,.5-.5h0a.49.49,0,0,1,.5.4798c.00013.00674.00013.01346,0,.0202h0a.49.49,0,0,1-.4798.5q-.01009.00022-.0202,0h0A.5.5,0,0,1,161.85,269.00017Z"/><circle id="Oval-8" class="cls-8" cx="149.33" cy="277.36018" r="2.05"/><path class="cls-7" d="M207.85,277.36016a.5.5,0,0,1,.5-.5h0a.5.5,0,0,1,.5.5h0a.49.49,0,0,1-.4798.5q-.01009.00023-.0202,0h0a.49.49,0,0,1-.5-.4798C207.84987,277.37361,207.84987,277.3669,207.85,277.36016Zm-2,0a.5.5,0,0,1,.5-.5h0a.5.5,0,0,1,.5.5h0a.49.49,0,0,1-.4798.5q-.01009.00023-.0202,0h0a.49.49,0,0,1-.5-.4798C205.84987,277.37361,205.84987,277.3669,205.85,277.36016Zm-2,0a.5.5,0,0,1,.5-.5h0a.5.5,0,0,1,.5.5h0a.5.5,0,0,1-.5.5h0a.49.49,0,0,1-.5-.4798C203.84987,277.37361,203.84987,277.3669,203.85,277.36016Zm-2,0a.5.5,0,0,1,.5-.5h0a.5.5,0,0,1,.5.5h0a.5.5,0,0,1-.5.5h0a.49.49,0,0,1-.5-.4798C201.84987,277.37361,201.84987,277.3669,201.85,277.36016Zm-2,0a.5.5,0,0,1,.5-.5h0a.5.5,0,0,1,.5.5h0a.5.5,0,0,1-.5.5h0a.49.49,0,0,1-.5-.4798C199.84987,277.37361,199.84987,277.3669,199.85,277.36016Zm-2,0a.5.5,0,0,1,.5-.5h0a.5.5,0,0,1,.5.5h0a.49.49,0,0,1-.4798.5q-.01009.00023-.0202,0h0a.49.49,0,0,1-.5-.4798C197.84987,277.37361,197.84987,277.3669,197.85,277.36016Zm-2,0a.5.5,0,0,1,.5-.5h0a.5.5,0,0,1,.5.5h0a.49.49,0,0,1-.4798.5q-.01009.00023-.0202,0h0a.49.49,0,0,1-.5-.4798C195.84987,277.37361,195.84987,277.3669,195.85,277.36016Zm-2,0a.5.5,0,0,1,.5-.5h0a.5.5,0,0,1,.5.5h0a.5.5,0,0,1-.5.5h0a.49.49,0,0,1-.5-.4798C193.84987,277.37361,193.84987,277.3669,193.85,277.36016Zm-2,0a.5.5,0,0,1,.5-.5h0a.5.5,0,0,1,.5.5h0a.5.5,0,0,1-.5.5h0a.49.49,0,0,1-.5-.4798C191.84987,277.37361,191.84987,277.3669,191.85,277.36016Zm-2,0a.5.5,0,0,1,.5-.5h0a.5.5,0,0,1,.5.5h0a.5.5,0,0,1-.5.5h0a.49.49,0,0,1-.5-.4798C189.84987,277.37361,189.84987,277.3669,189.85,277.36016Zm-2,0a.5.5,0,0,1,.5-.5h0a.5.5,0,0,1,.5.5h0a.49.49,0,0,1-.4798.5q-.01009.00023-.0202,0h0a.49.49,0,0,1-.5-.4798C187.84987,277.37361,187.84987,277.3669,187.85,277.36016Zm-2,0a.5.5,0,0,1,.5-.5h0a.5.5,0,0,1,.5.5h0a.49.49,0,0,1-.4798.5q-.01009.00023-.0202,0h0a.49.49,0,0,1-.5-.4798C185.84987,277.37361,185.84987,277.3669,185.85,277.36016Zm-2,0a.5.5,0,0,1,.5-.5h0a.5.5,0,0,1,.5.5h0a.49.49,0,0,1-.4798.5q-.01009.00023-.0202,0h0A.5.5,0,0,1,183.85,277.36016Zm-2,0a.5.5,0,0,1,.5-.5h0a.5.5,0,0,1,.5.5h0a.49.49,0,0,1-.4798.5q-.01009.00023-.0202,0h0A.5.5,0,0,1,181.85,277.36016Zm-2,0a.5.5,0,0,1,.5-.5h0a.5.5,0,0,1,.5.5h0a.49.49,0,0,1-.4798.5q-.01009.00023-.0202,0h0A.5.5,0,0,1,179.85,277.36016Zm-2,0a.5.5,0,0,1,.5-.5h0a.5.5,0,0,1,.5.5h0a.49.49,0,0,1-.4798.5q-.01009.00023-.0202,0h0A.5.5,0,0,1,177.85,277.36016Zm-2,0a.5.5,0,0,1,.5-.5h0a.5.5,0,0,1,.5.5h0a.49.49,0,0,1-.4798.5q-.01009.00023-.0202,0h0A.5.5,0,0,1,175.85,277.36016Zm-2,0a.5.5,0,0,1,.5-.5h0a.5.5,0,0,1,.5.5h0a.49.49,0,0,1-.4798.5q-.01009.00023-.0202,0h0A.5.5,0,0,1,173.85,277.36016Zm-2,0a.5.5,0,0,1,.5-.5h0a.5.5,0,0,1,.5.5h0a.49.49,0,0,1-.4798.5q-.01009.00023-.0202,0h0A.5.5,0,0,1,171.85,277.36016Zm-2,0a.5.5,0,0,1,.5-.5h0a.5.5,0,0,1,.5.5h0a.49.49,0,0,1-.4798.5q-.01009.00023-.0202,0h0A.5.5,0,0,1,169.85,277.36016Zm-2,0a.5.5,0,0,1,.5-.5h0a.5.5,0,0,1,.5.5h0a.49.49,0,0,1-.4798.5q-.01009.00023-.0202,0h0A.5.5,0,0,1,167.85,277.36016Zm-2,0a.5.5,0,0,1,.5-.5h0a.5.5,0,0,1,.5.5h0a.49.49,0,0,1-.4798.5q-.01009.00023-.0202,0h0A.5.5,0,0,1,165.85,277.36016Zm-2,0a.5.5,0,0,1,.5-.5h0a.5.5,0,0,1,.5.5h0a.49.49,0,0,1-.4798.5q-.01009.00023-.0202,0h0A.5.5,0,0,1,163.85,277.36016Zm-2,0a.5.5,0,0,1,.5-.5h0a.5.5,0,0,1,.5.5h0a.49.49,0,0,1-.4798.5q-.01009.00023-.0202,0h0A.5.5,0,0,1,161.85,277.36016Z"/><g id="Group-2" class="cls-9"><path id="Shape-64" class="cls-10" d="M92.22,34.57017H22.67a2.94,2.94,0,0,0-2.94,2.94v43.7a2.94,2.94,0,0,0,2.94,2.93H92.22a2.94,2.94,0,0,0,2.94-2.94h0v-43.69a2.94,2.94,0,0,0-2.94-2.94Zm2.16,40-8.71,8.8h-7.6l16.31-16.49Zm0-8.82-17.46,17.62h-7.6l25.06-25.3Zm0-8.82-26.15,26.44H60.67l33.71-34.12Zm0-8.82-34.85,35.26h-7.6l42.45-42.94Zm0-10.64v1.82l-43.54,44H43.11l47.35-48h1.76a2.16,2.16,0,0,1,2.16084,2.15917q0,.03041-.00084.06083h0Zm-12.71-2.12h7.7l-47.37,48H34.29Zm-48.44,48H25.47l47.35-48h7.73Zm-12.71-39.8,8.21-8.21h7.73l-15.94,16.17v-7.96Zm0,9.06,17-17.27h7.73l-24.73,25.11v-7.83h0Zm0,8.94,25.85-26.2H54.1l-33.57,34v-7.79h0Zm0,8.94,34.67-35.14h7.73l-42.39,43v-7.85h0Zm2.15-35.14h5l-7.11,7.11v-5a2.16,2.16,0,0,1,2.11-2.16h0Zm-2.15,45.86v-1.77l43.48-44.1h7.73l-47.35,48H22.67a2.16,2.16,0,0,1-2.15-2.13Zm71.69,2.16H86.67l7.66-7.67v5.51a2.16,2.16,0,0,1-2.11,2.16h-.01Z"/><path id="Shape-65" class="cls-10" d="M261.38,92.00017H191.84a2.94,2.94,0,0,0-2.94062,2.93938l.00061.06062v43.7a2.94,2.94,0,0,0,2.94,2.94h69.53a2.94,2.94,0,0,0,2.94-2.94h0v-43.76a2.94,2.94,0,0,0-2.93-2.94Zm2.16,40-8.76,8.81h-7.6l16.36-16.49Zm0-8.82-17.46,17.63h-7.6l25.06-25.3Zm0-8.82-26.15,26.45h-7.6l33.75-34.12Zm0-8.82-34.87,35.27h-7.6l42.47-43Zm0-10.64v1.82l-43.54,44h-7.73l47.35-48h1.76a2.16,2.16,0,0,1,2.16059,2.15942l-.00058.05058h0Zm-12.74-2.08h7.73l-47.35,48h-7.73Zm-48.44,48h-7.69l47.35-48h7.65Zm-12.69-39.82,8.22-8.17h7.78l-16,16.12v-7.95Zm0,9.06,17-17.23h7.73l-24.73,25.07v-7.84Zm0,8.94,25.86-26.17h7.73l-33.59,34v-7.83Zm0,8.94,34.68-35.11h7.73l-42.41,43Zm2.17-35.11h4.95l-7.12,7.07v-5a2.16,2.16,0,0,1,2.17-2.12h0Zm-2.17,45.82v-1.76l43.49-44.06h7.73l-47.35,48h-1.7a2.16,2.16,0,0,1-2.17007-2.14989q-.00007-.01506.00007-.0301h0Zm71.71,2.18h-5.5l7.66-7.67v5.51a2.16,2.16,0,0,1-2.16,2.16Z"/><path id="Shape-66" class="cls-11" d="M176.8,34.57017H107.26a2.94,2.94,0,0,0-2.94,2.94h0v43.7a2.94,2.94,0,0,0,2.94,2.94h69.53a2.94,2.94,0,0,0,2.94-2.94h0v-43.7a2.94,2.94,0,0,0-2.93-2.94h0Zm2.16,40-8.76,8.77h-7.6l16.4-16.49v7.72h-.04Zm0-8.82-17.46,17.62h-7.6l25.1-25.3v7.68Zm0-8.82-26.15,26.44h-7.6l33.79-34.12v7.68Zm0-8.82-34.85,35.26h-7.6l42.49-42.94v7.68Zm0-10.64v1.82l-43.54,44h-7.75l47.35-48h1.76a2.16,2.16,0,0,1,2.22,2.0983q.00171.06084,0,.1217h0Zm-12.74-2.16h7.73l-47.35,48h-7.73Zm-48.44,48h-7.73l47.35-48h7.73Zm-12.68-39.76,8.21-8.21H121l-15.9,16.17v-7.96Zm0,9.06,17-17.27h7.73l-24.76,25.1v-7.82h0Zm0,8.94,25.85-26.21h7.72l-33.57,34v-7.78h0Zm0,8.94,34.67-35.14h7.73l-42.39,43v-7.85h0Zm2.16-35.15h4.95l-7.11,7.11v-4.94a2.16,2.16,0,0,1,2.16-2.16h0Zm-2.16,45.86v-1.76l43.48-44.1h7.73l-47.31,48h-1.7a2.16,2.16,0,0,1-2.16-2.13h0Zm71.69,2.16h-5.5l7.66-7.67v5.51a2.16,2.16,0,0,1-2.14995,2.17h0Z"/><path id="Shape-67" class="cls-11" d="M346,92.00017H276.42a2.94,2.94,0,0,0-2.94061,2.93938l.00061.06062v43.7a2.94,2.94,0,0,0,2.94,2.94H346a2.94,2.94,0,0,0,2.94-2.94h0v-43.76a2.94,2.94,0,0,0-2.94-2.94Zm2.16,40-8.76,8.81h-7.6l16.36-16.49v7.68Zm0-8.82-17.45,17.63h-7.6l25.06-25.3v7.67Zm0-8.82-26.16,26.46h-7.6l33.75-34.12v7.67Zm0-8.82-34.85,35.27h-7.6l42.45-43Zm0-10.64v1.82l-43.54,44h-7.73l47.35-48H346a2.16,2.16,0,0,1,2.16058,2.15942l-.00058.05058h0Zm-12.74-2.09h7.73l-47.35,48H288Zm-48.44,48h-7.73l47.35-48h7.73Zm-12.72-39.81,8.21-8.19h7.73l-15.94,16.19Zm0,9.06,17-17.27H299l-24.76,25.1v-7.84h0Zm0,8.94,25.85-26.19h7.73l-33.57,34v-7.81Zm0,8.94,34.67-35.13h7.74l-42.39,43v-7.81Zm2.16-35.13h4.95l-7.11,7.11v-5a2.16,2.16,0,0,1,2.16-2.12h0Zm-2.16,45.86v-1.76l43.48-44.1h7.73l-47.35,48h-1.7a2.16,2.16,0,0,1-2.16009-2.1599l.00009-.02009h0Zm71.7,2.14h-5.5l7.66-7.67v5.51a2.16,2.16,0,0,1-2.16,2.16Z"/><path id="Shape-68" class="cls-12" d="M261.38,34.57017H191.84a2.94,2.94,0,0,0-2.94,2.94h0v43.7a2.94,2.94,0,0,0,2.94,2.94h69.53a2.94,2.94,0,0,0,2.94-2.94h0v-43.7a2.94,2.94,0,0,0-2.93-2.94Zm2.16,40-8.76,8.77h-7.6l16.36-16.49v7.72Zm0-8.82-17.46,17.62h-7.6l25.06-25.3Zm0-8.82-26.15,26.44h-7.6l33.75-34.12v7.68Zm0-8.82-34.87,35.26h-7.6l42.45-42.94v7.71Zm0-10.64v1.82l-43.54,44h-7.73l47.35-48h1.76a2.16,2.16,0,0,1,2.16083,2.15917q0,.03041-.00082.06083h0Zm-12.74-2.16h7.73l-47.35,48h-7.73Zm-48.44,48h-7.69l47.35-48h7.65Zm-12.69-39.76,8.21-8.21h7.79l-16,16.17v-7.96Zm0,9.06,17-17.27h7.73l-24.73,25.11v-7.83h0Zm0,8.94,25.85-26.21h7.73l-33.58,34.06v-7.84h0Zm0,8.94,34.66-35.15h7.73l-42.39,43v-7.84h0Zm2.16-35.15h4.95l-7.11,7.12v-5a2.16,2.16,0,0,1,2.16-2.16l.01,0h0Zm-2.16,45.87v-1.77l43.48-44.1h7.73l-47.35,48h-1.7a2.16,2.16,0,0,1-2.16-2.13h0Zm71.69,2.16h-5.5l7.66-7.67v5.51a2.16,2.16,0,0,1-2.14,2.16h-.02Z"/><path id="Shape-69" class="cls-12" d="M92.22,92.00017H22.67a2.94,2.94,0,0,0-2.94061,2.93938q0,.03032.00061.06062v43.7a2.94,2.94,0,0,0,2.94,2.93H92.22a2.94,2.94,0,0,0,2.94-2.94h0v-43.75a2.94,2.94,0,0,0-2.94-2.94Zm2.16,40-8.71,8.81h-7.6l16.31-16.5Zm0-8.82-17.46,17.64h-7.6l25.06-25.3v7.66Zm0-8.82-26.15,26.46H60.67l33.75-34.12v7.71Zm0-8.82-34.85,35.28h-7.6l42.45-43v7.72Zm0-10.64v1.82l-43.54,44.1H43.11l47.35-48h1.76a2.16,2.16,0,0,1,2.16,2.12h0Zm-12.71-2.08h7.7l-47.37,48H34.29Zm-48.47,48H25.47l47.35-48h7.73Zm-12.68-39.82,8.21-8.17h7.73l-15.94,16.11v-7.94Zm0,9.06,17-17.23h7.73l-24.76,25.1v-7.87Zm0,8.94,25.85-26.18H54.1l-33.58,34v-7.82Zm0,8.94,34.67-35.12h7.73l-42.4,43v-7.88Zm2.15-35.11h5l-7.11,7.11v-5a2.16,2.16,0,0,1,2.11-2.12h0Zm-2.16,45.86v-1.76L64,92.82017h7.73l-47.35,48H22.67a2.16,2.16,0,0,1-2.15007-2.16989l.00007-.01011h0Zm71.71,2.14H86.67l7.66-7.67v5.51a2.16,2.16,0,0,1-2.11,2.16Z"/><path id="Shape-70" class="cls-13" d="M346,34.57017H276.42a2.94,2.94,0,0,0-2.94,2.94h0v43.7a2.94,2.94,0,0,0,2.94,2.94H346a2.94,2.94,0,0,0,2.94-2.94h0v-43.7a2.94,2.94,0,0,0-2.94-2.94Zm2.16,40-8.76,8.77h-7.6l16.36-16.49v7.72h0Zm0-8.82-17.49,17.62h-7.6l25.06-25.3v7.68Zm0-8.82L322,83.37017h-7.6l33.75-34.12v7.68Zm0-8.82-34.89,35.26h-7.6l42.45-42.94v7.68Zm0-10.64v1.82l-43.54,44h-7.73l47.35-48H346a2.16,2.16,0,0,1,2.16083,2.15917q0,.03041-.00083.06083h0Zm-12.74-2.16h7.73l-47.35,48H288Zm-48.44,48h-7.73l47.35-48h7.73Zm-12.72-39.76,8.21-8.21h7.73l-15.94,16.17v-7.96Zm0,9.06,17-17.27H299l-24.76,25.1v-7.82h0Zm0,8.94,25.85-26.21h7.73l-33.57,34v-7.78h0Zm0,8.94,34.66-35.15h7.75l-42.39,43v-7.84h0Zm2.16-35.15h4.95l-7.11,7.11v-4.94a2.16,2.16,0,0,1,2.16-2.16h0Zm-2.16,45.86v-1.76l43.48-44.1h7.73l-47.35,48h-1.7a2.16,2.16,0,0,1-2.16-2.13h0Zm71.74,2.16h-5.5l7.66-7.67v5.51a2.16,2.16,0,0,1-2.15,2.17l-.01,0h0Z"/><path id="Shape-71" class="cls-13" d="M176.8,92.00017H107.26a2.94,2.94,0,0,0-2.94061,2.93938q0,.03032.00061.06062v43.7a2.94,2.94,0,0,0,2.94,2.94h69.53a2.94,2.94,0,0,0,2.94-2.94h0v-43.76a2.94,2.94,0,0,0-2.93-2.94Zm2.2,40-8.76,8.81h-7.6l16.36-16.48Zm0-8.82-17.5,17.64h-7.6l25.1-25.3v7.66Zm0-8.82-26.15,26.45h-7.6l33.75-34.11v7.66Zm0-8.82-34.85,35.27h-7.6l42.45-43v7.73Zm0-10.64v1.82l-43.54,44h-7.75l47.35-48h1.76a2.16,2.16,0,0,1,2.18074,2.139q.00039.04049-.00073.081h0Zm-12.74-2.09h7.73l-47.35,48h-7.73Zm-48.44,48h-7.73l47.35-48h7.73Zm-12.72-39.81,8.21-8.19H121l-15.9,16.19Zm0,9.06,17-17.27h7.73l-24.76,25.1v-7.84h0Zm0,8.94,25.85-26.19h7.72l-33.57,34Zm0,8.94,34.67-35.13h7.73l-42.39,43v-7.87Zm2.16-35.13h4.95l-7.11,7.11v-5a2.16,2.16,0,0,1,2.16-2.12h0Zm-2.16,45.86v-1.76l43.48-44.1h7.73l-47.35,48h-1.7a2.16,2.16,0,0,1-2.16009-2.1599l.00009-.02009h0Zm71.7,2.14h-5.5l7.66-7.67v5.51a2.16,2.16,0,0,1-2.16,2.16Z"/></g><rect id="Rectangle-path-4" class="cls-14" x="20.14" y="34.96017" width="74.63" height="48.8" rx="2.55" ry="2.55"/><rect id="Rectangle-path-5" class="cls-15" x="104.72" y="34.96017" width="74.63" height="48.8" rx="2.55" ry="2.55"/><path id="Rectangle-path-6" class="cls-16" d="M191.85,34.96017h69.53a2.55,2.55,0,0,1,2.55,2.55v43.7a2.55,2.55,0,0,1-2.55,2.55H191.85a2.55,2.55,0,0,1-2.55-2.55v-43.7A2.55,2.55,0,0,1,191.85,34.96017Z"/><path id="Rectangle-path-7" class="cls-17" d="M276.43,34.96017h69.53a2.55,2.55,0,0,1,2.55,2.55v43.7a2.55,2.55,0,0,1-2.55,2.55H276.43a2.55,2.55,0,0,1-2.55-2.55v-43.7A2.55,2.55,0,0,1,276.43,34.96017Z"/><rect id="Rectangle-path-8" class="cls-16" x="20.14" y="92.44017" width="74.63" height="48.8" rx="2.55" ry="2.55"/><rect id="Rectangle-path-9" class="cls-18" x="104.72" y="92.41017" width="74.63" height="48.8" rx="2.55" ry="2.55"/><path id="Rectangle-path-10" class="cls-19" d="M191.85,92.86017h69.53a2.55,2.55,0,0,1,2.55,2.55v43.7a2.55,2.55,0,0,1-2.55,2.55H191.85a2.55,2.55,0,0,1-2.55-2.55v-43.7A2.55,2.55,0,0,1,191.85,92.86017Z"/><path id="Rectangle-path-11" class="cls-20" d="M276.43,92.86017h69.53a2.55,2.55,0,0,1,2.55,2.55v43.7a2.55,2.55,0,0,1-2.55,2.55H276.43a2.55,2.55,0,0,1-2.55-2.55v-43.7A2.55,2.55,0,0,1,276.43,92.86017Z"/></g></g></g></g><g id="Layer_52" data-name="Layer 52"><g id="Group-2-2" data-name="Group" class="cls-21"><path id="Rectangle-path-3-2" data-name="Rectangle-path-3" class="cls-2" d="M31.83,259.69016h88.75a2.55,2.55,0,0,1,2.55,2.55v56.26a2.55,2.55,0,0,1-2.55,2.55H31.83a2.55,2.55,0,0,1-2.55-2.55v-56.26A2.55,2.55,0,0,1,31.83,259.69016Z"/></g><path id="Shape-29-2" data-name="Shape-29" class="cls-2" d="M120.58,260.44017a1.8,1.8,0,0,1,1.8,1.8v56.27a1.8,1.8,0,0,1-1.8,1.8H31.82a1.8,1.8,0,0,1-1.8-1.8v-56.27a1.8,1.8,0,0,1,1.8-1.8h88.76Zm0-.75H31.82a2.55,2.55,0,0,0-2.55,2.55v56.27a2.55,2.55,0,0,0,2.55,2.55h88.76a2.55,2.55,0,0,0,2.55-2.55v-56.27a2.55,2.55,0,0,0-2.55-2.55h0Z"/><path class="cls-22" d="M35.71986,298.50232c.32751-.49785.60645-1.02436.904-1.53973q2.17823-3.77275,4.34893-7.54986c.74469-1.29321,1.49336-2.58415,2.23179-3.88092a2.42363,2.42363,0,0,1,.62476-.61428q2.66226-2.24466,5.33526-4.47656,1.42257-1.19288,2.8438-2.38733c.05585-.04682.119-.085.17872-.12723a2.21677,2.21677,0,0,1-.27234.664c-.75144,1.62825-1.51255,3.252-2.26975,4.87762q-1.73337,3.72125-3.46574,7.443-1.14006,2.44747-2.28182,4.89415c-.396.849-.79649,1.6959-1.18571,2.548a.34736.34736,0,0,1-.36567.23518q-3.31308-.00977-6.62622-.00562Z"/><path class="cls-22" d="M42.751,301.07437q1.13376-.20205,2.26757-.40392,3.23052-.57078,6.46125-1.14041,2.4599-.435,4.91913-.87367c.07742-.01378.19475-.00182.21851-.06695.02945-.08077-.072-.14617-.12588-.21043q-2.06874-2.4685-4.13982-4.93506c-.92415-1.1019-1.84506-2.20652-2.77312-3.30512a.37405.37405,0,0,1-.0743-.41833q1.38375-3.80036,2.7589-7.60385.42423-1.16989.85287-2.33817c.02417-.06583.02165-.17264.10059-.18041.07835-.00771.10036.09594.13563.15669q1.47651,2.54307,2.94924,5.08832,3.69291,6.39723,7.38226,12.7965.94788,1.643,1.89691,3.2854c.09751.169.08538.18979-.10362.19491-.04681.00128-.09368.00029-.14053.00029H42.75347Z"/><path class="cls-23" d="M77.71046,288.91963H76.46072v-4.83207q0-.59413.07416-1.45307H76.514a5.07328,5.07328,0,0,1-.20657.70333l-2.26627,5.58181h-.86846l-2.27175-5.54a5.1386,5.1386,0,0,1-.20109-.74451h-.0209q.04274.448.04243,1.463v4.82149H69.55625v-7.4668h1.77387l1.99637,4.97281a7.24951,7.24951,0,0,1,.29629.85389h.02638q.196-.58853.31769-.87505l2.03357-4.95165h1.71041l-.0005,7.4668Zm2.34591-6.45164a.74418.74418,0,0,1-.51617-.1925.629.629,0,0,1-.21453-.48954.64567.64567,0,0,1,.21453-.49489.73575.73575,0,0,1,.51617-.19786.75913.75913,0,0,1,.52961.19786.64219.64219,0,0,1,.21727.49489.63363.63363,0,0,1-.21727.48157A.75231.75231,0,0,1,80.05637,282.468Zm.60863,6.45164H79.43691v-5.33219h1.22821v5.33219Zm5.49146-.24477a3.07094,3.07094,0,0,1-1.541.36958,2.6346,2.6346,0,0,1-1.94871-.74178,2.6044,2.6044,0,0,1-.7414-1.92406,2.74578,2.74578,0,0,1,2.92828-2.91609,3.15116,3.15116,0,0,1,1.30773.25547v1.12455a2.00441,2.00441,0,0,0-1.20706-.41662,1.69239,1.69239,0,0,0-1.276.51816,1.87606,1.87606,0,0,0-.498,1.35626,1.7881,1.7881,0,0,0,.46838,1.307,1.67876,1.67876,0,0,0,1.2577.47909,1.98484,1.98484,0,0,0,1.24949-.46316Zm4.36817-3.93649a1.0304,1.0304,0,0,0-.64086-.17172,1.10142,1.10142,0,0,0-.91089.48419,2.1377,2.1377,0,0,0-.3656,1.31718v2.55161h-1.2287v-5.33219h1.2287v1.09867h.02091a1.8519,1.8519,0,0,1,.55325-.87729,1.26239,1.26239,0,0,1,.834-.31508,1.05618,1.05618,0,0,1,.5087.09893l.0005,1.1457Zm3.28306,4.30607a2.71413,2.71413,0,0,1-2.00446-.74713,2.67381,2.67381,0,0,1-.74949-1.98106,2.7813,2.7813,0,0,1,.78122-2.09865,2.90052,2.90052,0,0,1,2.105-.75509,2.625,2.625,0,0,1,1.98031.73443,2.80639,2.80639,0,0,1,.7093,2.03569,2.63961,2.63961,0,0,1-2.82189,2.81181Zm.05811-4.61853a1.41274,1.41274,0,0,0-1.13824.49439,2.04672,2.04672,0,0,0-.41836,1.3641,1.92905,1.92905,0,0,0,.42371,1.31979,1.43437,1.43437,0,0,0,1.13339.48158,1.36014,1.36014,0,0,0,1.11472-.47361,2.07628,2.07628,0,0,0,.38924-1.34892,2.10276,2.10276,0,0,0-.38924-1.35886,1.35571,1.35571,0,0,0-1.11522-.47847Zm3.68051,4.32722v-1.11932a2.47777,2.47777,0,0,0,1.5194.51542q1.11248,0,1.112-.64559a.50365.50365,0,0,0-.09507-.30985.89151.89151,0,0,0-.25709-.22623,2.09329,2.09329,0,0,0-.38116-.17707q-.22025-.07858-.48991-.1772a5.205,5.205,0,0,1-.601-.276,1.81185,1.81185,0,0,1-.44474-.33038,1.23665,1.23665,0,0,1-.26717-.41936,1.51445,1.51445,0,0,1-.08984-.54666,1.24705,1.24705,0,0,1,.18541-.67943,1.59372,1.59372,0,0,1,.4975-.49439,2.40471,2.40471,0,0,1,.70967-.30189,3.29815,3.29815,0,0,1,.82055-.10154,3.79172,3.79172,0,0,1,1.34481.22361v1.057a2.2941,2.2941,0,0,0-1.31308-.38551,1.7742,1.7742,0,0,0-.421.04654,1.09874,1.09874,0,0,0-.32055.13016.646.646,0,0,0-.20645.20035.472.472,0,0,0-.07416.25759.5446.5446,0,0,0,.07416.29181.66929.66929,0,0,0,.21988.21092,1.883,1.883,0,0,0,.34955.1665c.136.05027.29193.10527.46889.164a6.8805,6.8805,0,0,1,.62741.28658,2.11945,2.11945,0,0,1,.47424.33038,1.28926,1.28926,0,0,1,.30164.4272,1.42894,1.42894,0,0,1,.106.57528,1.29605,1.29605,0,0,1-.19089.70806,1.57409,1.57409,0,0,1-.50808.49962,2.39336,2.39336,0,0,1-.73344.29392,3.85507,3.85507,0,0,1-.87642.09631,3.73518,3.73518,0,0,1-1.541-.29081Zm7.42388.29131a2.71382,2.71382,0,0,1-2.00458-.74713,2.67345,2.67345,0,0,1-.749-1.98106,2.78137,2.78137,0,0,1,.78135-2.09865,2.89907,2.89907,0,0,1,2.1045-.75509,2.62514,2.62514,0,0,1,1.98032.73443,2.80711,2.80711,0,0,1,.70967,2.03569,2.63949,2.63949,0,0,1-2.82227,2.81181Zm.05811-4.61853a1.41451,1.41451,0,0,0-1.13886.49439,2.04672,2.04672,0,0,0-.41836,1.3641,1.9297,1.9297,0,0,0,.42371,1.31979,1.43462,1.43462,0,0,0,1.13351.48158,1.36155,1.36155,0,0,0,1.1146-.47361,2.07272,2.07272,0,0,0,.38924-1.34892,2.10276,2.10276,0,0,0-.38924-1.35886,1.35527,1.35527,0,0,0-1.1146-.47847Zm7.085-2.41585a1.13228,1.13228,0,0,0-.56669-.14061q-.89521,0-.89471.99451v.72386h1.26031v.9476h-1.255v4.38421H109.4287v-4.38421h-.92645v-.9476h.92645v-.86448a1.66925,1.66925,0,0,1,.56134-1.33024,2.0645,2.0645,0,0,1,1.40341-.48706,2.11042,2.11042,0,0,1,.71988.09893v1.00509Zm3.54239,6.85245a2.1602,2.1602,0,0,1-.948.1772q-1.57764,0-1.57764-1.4889v-3.0149h-.90541v-.94747h.90541v-1.23418l1.22871-.34358v1.57776h1.29739v.94747h-1.29739v2.66572a1.03626,1.03626,0,0,0,.17471.67682.73264.73264,0,0,0,.58237.20309.85066.85066,0,0,0,.53982-.1772v.95817ZM76.64057,300.78722H75.25868l-.68292-1.9008H71.58949l-.65654,1.9008h-1.377l2.8433-7.4668h1.419l2.82226,7.4668Zm-2.39868-2.91061-1.05337-2.97844a3.43142,3.43142,0,0,1-.10055-.46851h-.02091a2.98777,2.98777,0,0,1-.106.46851l-1.043,2.97844h2.32389Zm7.3125-1.91623-2.92816,3.88409h2.91746v.94275H76.905v-.45308l2.99175-3.93649H77.19108v-.94274H81.5544v.50547Zm5.76623,4.82684H86.09253v-.84382h-.02091a1.77262,1.77262,0,0,1-1.66249.96863q-1.9222,0-1.92233-2.27038v-3.18674h1.22858v3.06193q0,1.43727,1.12816,1.43714a1.14812,1.14812,0,0,0,.89732-.39547,1.4996,1.4996,0,0,0,.35217-1.03632v-3.06728h1.2287Zm4.74993-4.18126a1.03014,1.03014,0,0,0-.64086-.17172,1.10159,1.10159,0,0,0-.91089.48419,2.13855,2.13855,0,0,0-.3656,1.31718v2.55161H88.925V295.455h1.2282v1.09867h.02091a1.85205,1.85205,0,0,1,.55325-.87729,1.26261,1.26261,0,0,1,.834-.31508,1.05317,1.05317,0,0,1,.50809.09893l.00124,1.1457Zm5.46995,1.84319H93.8443a1.52232,1.52232,0,0,0,.46341,1.14048,1.74273,1.74273,0,0,0,1.21526.40081,2.71083,2.71083,0,0,0,1.59369-.5102v.97336a3.68882,3.68882,0,0,1-1.95928.45843,2.44664,2.44664,0,0,1-1.87716-.72647A2.87351,2.87351,0,0,1,92.6,298.142a2.81188,2.81188,0,0,1,.74961-2.02834,2.4709,2.4709,0,0,1,1.86148-.78359,2.1543,2.1543,0,0,1,1.72061.7027,2.88571,2.88571,0,0,1,.60913,1.95269l-.0005.46366Zm-1.18615-.8539a1.54737,1.54737,0,0,0-.31234-1.01256,1.05274,1.05274,0,0,0-.84743-.36161,1.20231,1.20231,0,0,0-.89744.38016,1.72409,1.72409,0,0,0-.45271.99451h2.50992Z"/></g><path class="cls-24" d="M236.9582,106.48049h1.89453v14.11084q0,3.5808-3.58008,3.58056h-4.21191q-3.58155,0-3.58008-3.58056v-5.26514q0-3.58008,3.58008-3.58057h4.63379v1.89551h-4.63379a1.48892,1.48892,0,0,0-1.68457,1.68506v5.26514a1.48872,1.48872,0,0,0,1.68457,1.68505h4.21191a1.4898,1.4898,0,0,0,1.68555-1.68505Z"/><path class="cls-24" d="M251.27851,122.27638v1.89551h-6.73828q-3.583,0-3.582-3.58056v-5.26514q0-3.58008,3.582-3.58057h4.21094q3.58008,0,3.58008,3.58057v.042q0,3.53834-3.58008,3.53809h-4.63281v-1.895h4.63281a1.47167,1.47167,0,0,0,1.68554-1.64307v-.042a1.49,1.49,0,0,0-1.68554-1.68506h-4.21094a1.48922,1.48922,0,0,0-1.68555,1.68506v5.26514a1.489,1.489,0,0,0,1.68555,1.68505Z"/><path class="cls-24" d="M212.89277,124.17189h-1.89551v-8.8457a1.48931,1.48931,0,0,0-1.68457-1.68506h-5.89746v10.53076H201.5207V111.74562h7.792q3.58008,0,3.58008,3.58057Z"/><path class="cls-24" d="M214.99921,115.32619q0-3.58008,3.58008-3.58057h4.21289q3.58008,0,3.58008,3.58057v5.30713q0,3.53832-3.58008,3.53857h-4.21289q-3.58008,0-3.58008-3.58056Zm7.793,6.95019a1.47026,1.47026,0,0,0,1.6836-1.64306v-5.30713a1.48862,1.48862,0,0,0-1.6836-1.68506h-4.21289a1.48931,1.48931,0,0,0-1.68457,1.68506v5.26514a1.48911,1.48911,0,0,0,1.68457,1.68505Z"/><path class="cls-1" d="M88.33906,188.18117a.88316.88316,0,0,1,.29883.28027l16.60547,22.20069a10.29069,10.29069,0,0,1-.05469-1.0503V188.11769H106.8v25.623h-.86914a.82222.82222,0,0,1-.38868-.08154.89454.89454,0,0,1-.29882-.28077L88.60175,191.15968q.05421.54346.05371,1.01416v21.5669H87.02558v-25.623h.92383A.947.947,0,0,1,88.33906,188.18117Z"/><path class="cls-1" d="M135.68281,200.91994a15.53311,15.53311,0,0,1-.8877,5.38721,11.94431,11.94431,0,0,1-2.499,4.1289,11.031,11.031,0,0,1-3.86621,2.64356,13.68691,13.68691,0,0,1-9.93164,0,11.0497,11.0497,0,0,1-3.85742-2.64356,11.94449,11.94449,0,0,1-2.499-4.1289,16.75329,16.75329,0,0,1,0-10.75635,11.94234,11.94234,0,0,1,2.499-4.12842,11.1516,11.1516,0,0,1,3.85742-2.65283,12.70663,12.70663,0,0,1,4.96094-.9419,12.882,12.882,0,0,1,4.9707.93262,10.98314,10.98314,0,0,1,3.86621,2.65283,12.04325,12.04325,0,0,1,2.499,4.1377A15.48192,15.48192,0,0,1,135.68281,200.91994Zm-1.91992,0a14.615,14.615,0,0,0-.74219-4.81641,10.30458,10.30458,0,0,0-2.10059-3.62207,9.05942,9.05942,0,0,0-3.25976-2.27246,11.54915,11.54915,0,0,0-8.38379,0,9.14352,9.14352,0,0,0-3.26856,2.27246,10.32427,10.32427,0,0,0-2.11914,3.62207,15.852,15.852,0,0,0,0,9.64258,10.32815,10.32815,0,0,0,2.11914,3.61231,9.03694,9.03694,0,0,0,3.26856,2.26367,11.67066,11.67066,0,0,0,8.38379,0,8.95444,8.95444,0,0,0,3.25976-2.26367,10.308,10.308,0,0,0,2.10059-3.61231A14.59456,14.59456,0,0,0,133.76289,200.91994Z"/><path class="cls-1" d="M161.72187,200.91994a15.1797,15.1797,0,0,1-.88769,5.34228,11.54285,11.54285,0,0,1-2.499,4.03809,10.80762,10.80762,0,0,1-3.86621,2.55322,13.46661,13.46661,0,0,1-4.9707.88721h-9.36231v-25.623h9.36231a13.46661,13.46661,0,0,1,4.9707.88721,10.8205,10.8205,0,0,1,3.86621,2.55322,11.54731,11.54731,0,0,1,2.499,4.03809A15.12416,15.12416,0,0,1,161.72187,200.91994Zm-1.91992,0a14.31962,14.31962,0,0,0-.74219-4.78027,9.97184,9.97184,0,0,0-2.10058-3.54932,8.97834,8.97834,0,0,0-3.25977-2.20947,11.21982,11.21982,0,0,0-4.20117-.76026h-7.49707v22.61719h7.49707a11.21038,11.21038,0,0,0,4.20117-.76074,8.97123,8.97123,0,0,0,3.25977-2.209,9.97189,9.97189,0,0,0,2.10058-3.54931A14.3775,14.3775,0,0,0,159.802,200.91994Z"/><path class="cls-1" d="M181.56855,188.11769v1.53907H168.07734v10.35791h11.22754v1.50292H168.07734v10.68409h13.52734l-.03613,1.53906H166.21211v-25.623Z"/><path class="cls-1" d="M198.20918,191.232a.51048.51048,0,0,1-.47071.30811,1.03835,1.03835,0,0,1-.60644-.335,7.76545,7.76545,0,0,0-2.58985-1.49414,7.94914,7.94914,0,0,0-4.79785.05469,5.11972,5.11972,0,0,0-1.77539,1.08643,4.623,4.623,0,0,0-1.08594,1.59326,4.95617,4.95617,0,0,0-.37109,1.90137,3.88476,3.88476,0,0,0,.55176,2.15478,4.97461,4.97461,0,0,0,1.458,1.44873,9.42627,9.42627,0,0,0,2.05566,1.00537q1.14843.40724,2.3623.80567,1.2129.39843,2.36329.87793a8.53436,8.53436,0,0,1,2.05566,1.20459,5.53735,5.53735,0,0,1,1.458,1.78369,5.6575,5.6575,0,0,1,.55176,2.63476,8.29853,8.29853,0,0,1-.55176,3.03272,7.10108,7.10108,0,0,1-1.60254,2.47217,7.52986,7.52986,0,0,1-2.57227,1.65673,9.32873,9.32873,0,0,1-3.47656.60645,9.83165,9.83165,0,0,1-4.36426-.896,10.2973,10.2973,0,0,1-3.20508-2.45361l.50782-.79687a.63617.63617,0,0,1,.50683-.272.72667.72667,0,0,1,.416.21729q.25341.21753.61621.53467.36182.3164.86914.688a7.17809,7.17809,0,0,0,1.17676.688,8.32467,8.32467,0,0,0,1.53906.53418,8.15761,8.15761,0,0,0,1.97363.21729,7.48932,7.48932,0,0,0,2.7168-.46192,5.93049,5.93049,0,0,0,2.01855-1.2583,5.32914,5.32914,0,0,0,1.25879-1.89258,6.29168,6.29168,0,0,0,.43457-2.34472,4.13536,4.13536,0,0,0-.55273-2.23633,4.76025,4.76025,0,0,0-1.457-1.4668,9.43675,9.43675,0,0,0-2.05567-.98681q-1.1499-.39845-2.36328-.77881-1.21288-.38013-2.36328-.85108a8.14592,8.14592,0,0,1-2.05469-1.2041,5.51587,5.51587,0,0,1-1.458-1.8291,6.0646,6.0646,0,0,1-.55176-2.74316,6.48676,6.48676,0,0,1,.48828-2.481,6.173,6.173,0,0,1,1.43066-2.10986,7.039,7.039,0,0,1,2.32715-1.4668,8.49021,8.49021,0,0,1,3.16016-.55225,9.56686,9.56686,0,0,1,3.57617.63379,8.57452,8.57452,0,0,1,2.8877,1.938Z"/><path class="cls-1" d="M220.35566,188.11769v1.5752h-9v24.04785h-1.86523V189.69289h-9.05372v-1.5752Z"/><path class="cls-1" d="M225.08125,202.15138v11.58936H223.216v-25.623h6.55567q4.418,0,6.61816,1.71094A5.97877,5.97877,0,0,1,238.59,194.854a6.78232,6.78232,0,0,1-.51562,2.67969,6.38886,6.38886,0,0,1-1.4668,2.12793,7.73534,7.73534,0,0,1-2.2998,1.50293,10.26946,10.26946,0,0,1-3.01465.76953,2.94713,2.94713,0,0,1,.77832.72461l8.81836,11.082h-1.59277a1.19134,1.19134,0,0,1-.51661-.09961,1.0231,1.0231,0,0,1-.38964-.37109l-8.22071-10.394a2.46507,2.46507,0,0,0-.29883-.34423,1.18688,1.18688,0,0,0-.34375-.22657,1.7887,1.7887,0,0,0-.45312-.11767,4.84882,4.84882,0,0,0-.64258-.03614Zm0-1.376h4.43652a10.55574,10.55574,0,0,0,3.05176-.40772,6.56224,6.56224,0,0,0,2.28125-1.168,5.03839,5.03839,0,0,0,1.42187-1.82861,5.72143,5.72143,0,0,0,.48926-2.40869,4.7203,4.7203,0,0,0-1.78418-4.05615,8.66208,8.66208,0,0,0-5.20605-1.32178h-4.69043Z"/><path class="cls-1" d="M259.10664,188.11769v1.53907H245.61543v10.35791H256.843v1.50292H245.61543v10.68409h13.52734l-.03613,1.53906H243.75019v-25.623Z"/><path class="cls-1" d="M282.79218,213.74074h-1.43066a.629.629,0,0,1-.417-.13574.89849.89849,0,0,1-.25293-.353l-3.00684-7.44287h-12.585l-3.00586,7.44287a.76928.76928,0,0,1-.25391.34375.6725.6725,0,0,1-.43457.145h-1.4121l10.48437-25.623h1.8291Zm-17.14941-9.30762h11.48144l-5.21582-12.94726a12.96849,12.96849,0,0,1-.52441-1.52149q-.12744.43506-.25391.833c-.085.26611-.16894.50146-.2539.70654Z"/><path class="cls-1" d="M298.383,207.36672q.10841-.27174.23536-.56153a5.57135,5.57135,0,0,1,.27148-.543l10.0498-17.80078a.6409.6409,0,0,1,.29883-.28955,1.255,1.255,0,0,1,.40723-.0542h1.26758v25.623h-1.61133V191.90236c0-.145.00293-.30176.00879-.47119.00586-.16895.01562-.3374.02734-.50684l-10.06836,17.89112a.7893.7893,0,0,1-.72363.4707h-.29a.78966.78966,0,0,1-.72461-.4707L287.174,190.8882a9.87837,9.87837,0,0,1,.05371,1.01416v21.83838h-1.62988v-25.623H286.884a1.17394,1.17394,0,0,1,.39844.0542.65676.65676,0,0,1,.29.28955l10.33984,17.81885A7.4128,7.4128,0,0,1,298.383,207.36672Z"/><path class="cls-1" d="M68.82506,189.17377a2.21814,2.21814,0,0,0-2.21814-2.21814H58.9062a2.21815,2.21815,0,0,0-2.21814,2.21814v7.70072a2.21814,2.21814,0,0,0,2.21814,2.21814h7.70072a2.21813,2.21813,0,0,0,2.21814-2.21814Zm-10.88145.051a1.11943,1.11943,0,0,1,.99932-1.01359h7.78442a.98234.98234,0,0,1,.84216,1.01359v7.78442a.8106.8106,0,0,1-.84216.82789H58.94293a.95232.95232,0,0,1-.99932-.82789Zm13.09447,3.17158H80.371l-3.18073-3.15523a.6925.6925,0,0,1,0-.94984.66947.66947,0,0,1,.96259.00638l4.31073,4.31391a.71071.71071,0,0,1,0,.96418l-4.31073,4.35338a.61084.61084,0,0,1-.92074.0006.79759.79759,0,0,1,0-1.02984l3.18074-3.248H71.03808a.62909.62909,0,1,1,0-1.25556Zm11.59805,19.09354v-7.78442a2.104,2.104,0,0,0-2.18141-2.10174H72.71215a2.13112,2.13112,0,0,0-2.213,2.10174v7.78442a2.25685,2.25685,0,0,0,2.213,2.25085h7.78442A2.22283,2.22283,0,0,0,82.63613,211.48989Zm-10.88145,0v-7.78442a.9293.9293,0,0,1,.95747-.84618h7.78442a.86051.86051,0,0,1,.884.84618v7.78442a.99482.99482,0,0,1-.884.99529H72.71215A1.06112,1.06112,0,0,1,71.75468,211.48989Zm-14.82063-4.39443,4.31072-4.31073a.70868.70868,0,0,1,.96259,0,.78527.78527,0,0,1,0,1.02079l-3.18073,3.23894h9.33294a.62908.62908,0,1,1,0,1.25555H59.02663l3.18073,3.16438a.69827.69827,0,0,1,0,.95441.66732.66732,0,0,1-.46037.20517.67448.67448,0,0,1-.46036-.2113l-4.35258-4.3536A.63773.63773,0,0,1,56.93405,207.09546Z"/></g></g></svg>